#N canvas 402 221 1147 773 12;
#X obj 230 412 expr $f2*(1-($f1))+$f3*($f1);
#X obj 299 525 i;
#X obj 98 34 inlet;
#X obj 232 30 inlet;
#X obj 260 621 outlet;
#X msg 331 9 r0 g0 b0 r1 g1 b1;
#X obj 334 251 unpack f f f f f f;
#X obj 490 425 expr $f2*(1-($f1))+$f3*($f1);
#X obj 723 427 expr $f2*(1-($f1))+$f3*($f1);
#X obj 435 572 pack f f f;
#X obj 449 531 i;
#X obj 622 502 i;
#X obj 141 321 t f f f;
#X obj 234 250 t b a;
#X msg 209 297 0;
#X obj 552 45 inlet;
#X text 605 44 intensity;
#X obj 297 494 * 1;
#X obj 411 503 * 1;
#X obj 702 473 * 1;
#X text 273 7 format;
#X text 143 8 0-1;
#X connect 0 0 17 0;
#X connect 1 0 9 0;
#X connect 2 0 12 0;
#X connect 3 0 13 0;
#X connect 6 0 0 1;
#X connect 6 1 7 1;
#X connect 6 2 8 1;
#X connect 6 3 0 2;
#X connect 6 4 7 2;
#X connect 6 5 8 2;
#X connect 7 0 18 0;
#X connect 8 0 19 0;
#X connect 9 0 4 0;
#X connect 10 0 9 1;
#X connect 11 0 9 2;
#X connect 12 0 0 0;
#X connect 12 1 7 0;
#X connect 12 2 8 0;
#X connect 13 0 14 0;
#X connect 13 1 6 0;
#X connect 14 0 12 0;
#X connect 15 0 17 1;
#X connect 15 0 18 1;
#X connect 15 0 19 1;
#X connect 17 0 1 0;
#X connect 18 0 10 0;
#X connect 19 0 11 0;
