#N canvas 402 221 1147 773 12;
#X obj 230 412 expr $f2*(1-($f1))+$f3*($f1);
#X obj 299 525 i;
#X obj 98 34 inlet;
#X obj 232 30 inlet;
#X obj 260 621 outlet;
#X obj 490 425 expr $f2*(1-($f1))+$f3*($f1);
#X obj 723 427 expr $f2*(1-($f1))+$f3*($f1);
#X obj 435 572 pack f f f;
#X obj 449 531 i;
#X obj 622 502 i;
#X obj 1004 55 inlet;
#X text 1057 62 intensity;
#X obj 297 494 * 1;
#X obj 411 503 * 1;
#X obj 702 473 * 1;
#X text 143 8 0-1;
#X obj 108 465 f;
#X obj 142 473 f;
#X obj 188 481 f;
#X obj 219 106 loadbang;
#X msg 228 143 0;
#X obj 86 206 t f f f;
#X obj 46 109 nbx 5 17 -1e+37 1e+37 0 0 empty empty empty 0 -10 0 12 #fcfcfc #000000 #000000 0 256;
#X obj 427 149 unpack f f f;
#X text 273 32 color target;
#X connect 0 0 12 0;
#X connect 0 0 16 1;
#X connect 1 0 7 0;
#X connect 2 0 21 0;
#X connect 3 0 23 0;
#X connect 5 0 13 0;
#X connect 5 0 17 1;
#X connect 6 0 14 0;
#X connect 6 0 18 1;
#X connect 7 0 4 0;
#X connect 8 0 7 1;
#X connect 9 0 7 2;
#X connect 10 0 12 1;
#X connect 10 0 13 1;
#X connect 10 0 14 1;
#X connect 12 0 1 0;
#X connect 13 0 8 0;
#X connect 14 0 9 0;
#X connect 19 0 20 0;
#X connect 20 0 0 1;
#X connect 20 0 0 2;
#X connect 20 0 5 1;
#X connect 20 0 5 2;
#X connect 20 0 6 1;
#X connect 20 0 6 2;
#X connect 21 0 0 0;
#X connect 21 1 5 0;
#X connect 21 2 6 0;
#X connect 22 0 21 0;
#X connect 23 0 0 2;
#X connect 23 1 5 2;
#X connect 23 2 6 2;
