#N canvas 686 289 1000 563 12;
#X obj 377 43 bng 19 250 50 0 empty empty empty 0 -10 0 12 #fcfcfc #000000 #000000;
#X obj 377 75 config config-dev.txt;
#X obj 319 18 loadbang;
#X obj 448 436 display;
#X msg 463 337 clear;
#X msg 521 338 update;
#X msg 594 333 pix 1 255 0 0;
#X msg 697 343 pix \$1 \$2 \$3 \$4;
#X msg 127 139 start;
#X msg 203 144 stop;
#X obj 468 265 loadbang;
#N canvas 180 491 1567 541 start-sequences 0;
#X obj 698 444 outlet;
#X obj 54 231 start-seq 0;
#X obj 147 233 start-seq 2;
#X obj 238 236 start-seq 4;
#X obj 331 235 start-seq 6;
#X obj 421 236 start-seq 8;
#X obj 513 237 start-seq 10;
#X obj 613 237 start-seq 12;
#X obj 720 237 start-seq 14;
#X obj 817 237 start-seq 16;
#X obj 924 239 start-seq 18;
#X obj 1019 240 start-seq 20;
#X obj 1119 241 start-seq 22;
#X obj 314 79 route 0 2 4 6 8 10 12 14 16 18 20 22;
#X obj 334 33 inlet;
#X connect 1 0 0 0;
#X connect 2 0 0 0;
#X connect 3 0 0 0;
#X connect 4 0 0 0;
#X connect 5 0 0 0;
#X connect 6 0 0 0;
#X connect 7 0 0 0;
#X connect 8 0 0 0;
#X connect 9 0 0 0;
#X connect 10 0 0 0;
#X connect 11 0 0 0;
#X connect 12 0 0 0;
#X connect 13 0 1 0;
#X connect 13 1 2 0;
#X connect 13 2 3 0;
#X connect 13 3 4 0;
#X connect 13 4 5 0;
#X connect 13 5 6 0;
#X connect 13 6 7 0;
#X connect 13 7 8 0;
#X connect 13 8 9 0;
#X connect 13 9 10 0;
#X connect 13 10 11 0;
#X connect 13 11 12 0;
#X connect 13 12 1 0;
#X connect 13 12 2 0;
#X connect 13 12 3 0;
#X connect 13 12 4 0;
#X connect 13 12 5 0;
#X connect 13 12 6 0;
#X connect 13 12 7 0;
#X connect 13 12 8 0;
#X connect 13 12 9 0;
#X connect 13 12 10 0;
#X connect 13 12 11 0;
#X connect 13 12 12 0;
#X connect 14 0 13 0;
#X restore 143 217 pd start-sequences;
#X msg 298 154 0 start;
#X msg 381 164 0 stop;
#X obj 578 111 params-store;
#X connect 0 0 1 0;
#X connect 2 0 0 0;
#X connect 4 0 3 0;
#X connect 5 0 3 0;
#X connect 6 0 3 0;
#X connect 7 0 3 0;
#X connect 8 0 11 0;
#X connect 9 0 11 0;
#X connect 10 0 4 0;
#X connect 11 0 3 0;
#X connect 12 0 11 0;
#X connect 13 0 11 0;
