#N canvas 800 366 1000 563 12;
#X obj 377 99 config config-dev.txt;
#X obj 368 8 loadbang;
#X obj 435 505 display;
#X msg 508 349 update;
#X msg 106 169 start;
#X msg 182 169 stop;
#N canvas 180 491 1567 541 start-sequences 0;
#X obj 698 444 outlet;
#X obj 54 231 start-seq 0;
#X obj 147 233 start-seq 2;
#X obj 238 236 start-seq 4;
#X obj 331 235 start-seq 6;
#X obj 421 236 start-seq 8;
#X obj 513 237 start-seq 10;
#X obj 613 237 start-seq 12;
#X obj 720 237 start-seq 14;
#X obj 817 237 start-seq 16;
#X obj 924 239 start-seq 18;
#X obj 1019 240 start-seq 20;
#X obj 1119 241 start-seq 22;
#X obj 314 79 route 0 2 4 6 8 10 12 14 16 18 20 22;
#X obj 334 33 inlet;
#X connect 1 0 0 0;
#X connect 2 0 0 0;
#X connect 3 0 0 0;
#X connect 4 0 0 0;
#X connect 5 0 0 0;
#X connect 6 0 0 0;
#X connect 7 0 0 0;
#X connect 8 0 0 0;
#X connect 9 0 0 0;
#X connect 10 0 0 0;
#X connect 11 0 0 0;
#X connect 12 0 0 0;
#X connect 13 0 1 0;
#X connect 13 1 2 0;
#X connect 13 2 3 0;
#X connect 13 3 4 0;
#X connect 13 4 5 0;
#X connect 13 5 6 0;
#X connect 13 6 7 0;
#X connect 13 7 8 0;
#X connect 13 8 9 0;
#X connect 13 9 10 0;
#X connect 13 10 11 0;
#X connect 13 11 12 0;
#X connect 13 12 1 0;
#X connect 13 12 2 0;
#X connect 13 12 6 0;
#X connect 13 12 3 0;
#X connect 13 12 4 0;
#X connect 13 12 5 0;
#X connect 13 12 7 0;
#X connect 13 12 8 0;
#X connect 13 12 9 0;
#X connect 13 12 10 0;
#X connect 13 12 11 0;
#X connect 13 12 12 0;
#X connect 14 0 13 0;
#X restore 122 247 pd start-sequences;
#X msg 277 169 0 start;
#X msg 360 194 0 stop;
#X obj 244 83 params-store;
#X obj 244 8 t b b b;
#X obj 140 99 s init2-bang;
#X obj 455 267 r init2-bang;
#X obj 624 292 sun-render;
#X msg 705 228 0.5;
#X msg 741 247 0.25;
#X msg 671 247 1;
#X obj 608 402 list prepend pix2;
#X obj 608 427 list trim;
#X obj 244 33 bng 19 250 50 0 empty empty empty 0 -10 0 12 #fcfcfc #000000 #000000;
#X obj 244 108 s reload-config;
#X msg 450 349 clear2;
#X obj 455 292 t b b;
#X msg 620 228 3;
#X obj 244 58 t b b;
#X msg 392 349 clear1;
#N canvas 146 589 1719 859 pulses 0;
#X obj 565 797 outlet;
#X msg 196 213 \$1 1000;
#X msg 193 73 0;
#X obj 184 270 line 0 100;
#X msg 78 733 update;
#X msg 237 73 1;
#X msg 305 489 pix1 0 \$1 \$2 \$3;
#X obj 254 370 nbx 5 17 -1e+37 1e+37 0 0 empty empty empty 0 -10 0 12 #fcfcfc #000000 #000000 0 256;
#X msg 494 268 255 0 0 0 0 255;
#X msg 455 494 pix1 1 \$1 \$2 \$3;
#X obj 187 390 t b f;
#X obj 307 453 color-lerp;
#X obj 456 452 color-lerp;
#X obj 595 453 color-lerp;
#X obj 744 452 color-lerp;
#X msg 593 489 pix1 2 \$1 \$2 \$3;
#X msg 743 494 pix1 3 \$1 \$2 \$3;
#X msg 656 277 0 255 0 255 0 0;
#X obj 244 312 min 1;
#X obj 247 336 max 0;
#X obj 864 252 nbx 5 17 -1e+37 1e+37 0 0 empty empty empty 0 -10 0 12 #fcfcfc #000000 #000000 0 256;
#X obj 83 45 metro 2000;
#X obj 103 124 tgl 19 0 empty empty empty 0 -10 0 12 #fcfcfc #000000 #000000 0 1;
#X obj 83 13 tgl 19 0 empty empty empty 0 -10 0 12 #fcfcfc #000000 #000000 0 1;
#X msg 842 162 255 0 0 0 0 255;
#X msg 663 186 0 255 0 255 0 0;
#X obj 484 149 bng 19 250 50 0 empty empty empty 0 -10 0 12 #fcfcfc #000000 #000000;
#X obj 638 133 bng 19 250 50 0 empty empty empty 0 -10 0 12 #fcfcfc #000000 #000000;
#X obj 1107 353 print;
#X obj 1107 244 gradient-gen;
#X msg 1139 119 255 0 255 0 255 0 10;
#X connect 1 0 3 0;
#X connect 2 0 1 0;
#X connect 3 0 18 0;
#X connect 4 0 0 0;
#X connect 5 0 1 0;
#X connect 6 0 0 0;
#X connect 8 0 11 1;
#X connect 8 0 12 1;
#X connect 9 0 0 0;
#X connect 10 0 4 0;
#X connect 10 1 11 0;
#X connect 10 1 14 0;
#X connect 10 1 13 0;
#X connect 10 1 12 0;
#X connect 11 0 6 0;
#X connect 12 0 9 0;
#X connect 13 0 15 0;
#X connect 14 0 16 0;
#X connect 15 0 0 0;
#X connect 16 0 0 0;
#X connect 17 0 14 1;
#X connect 17 0 13 1;
#X connect 18 0 19 0;
#X connect 19 0 7 0;
#X connect 19 0 10 0;
#X connect 20 0 11 2;
#X connect 20 0 12 2;
#X connect 20 0 13 2;
#X connect 20 0 14 2;
#X connect 21 0 22 0;
#X connect 22 0 1 0;
#X connect 23 0 21 0;
#X connect 24 0 13 1;
#X connect 24 0 14 1;
#X connect 25 0 11 1;
#X connect 25 0 12 1;
#X connect 26 0 8 0;
#X connect 26 0 17 0;
#X connect 27 0 25 0;
#X connect 27 0 24 0;
#X connect 29 0 28 0;
#X connect 30 0 29 0;
#X restore 62 313 pd pulses;
#X obj 78 425 print;
#X connect 1 0 10 0;
#X connect 3 0 2 0;
#X connect 4 0 6 0;
#X connect 5 0 6 0;
#X connect 6 0 2 0;
#X connect 7 0 6 0;
#X connect 8 0 6 0;
#X connect 10 0 11 0;
#X connect 10 1 19 0;
#X connect 10 2 0 0;
#X connect 12 0 22 0;
#X connect 13 0 21 0;
#X connect 13 1 17 0;
#X connect 13 2 3 0;
#X connect 14 0 13 1;
#X connect 16 0 13 1;
#X connect 17 0 18 0;
#X connect 18 0 2 0;
#X connect 19 0 24 0;
#X connect 21 0 2 0;
#X connect 22 0 3 0;
#X connect 22 1 21 0;
#X connect 22 1 25 0;
#X connect 23 0 13 0;
#X connect 24 0 20 0;
#X connect 24 0 9 0;
#X connect 24 1 0 0;
#X connect 25 0 2 0;
#X connect 26 0 2 0;
