#N canvas 800 366 1000 563 12;
#X obj 377 96 config config-dev.txt;
#X obj 368 12 loadbang;
#X obj 435 505 display;
#X msg 508 340 update;
#X msg 106 169 start;
#X msg 182 174 stop;
#N canvas 180 491 1567 541 start-sequences 1;
#X obj 698 444 outlet;
#X obj 54 231 start-seq 0;
#X obj 147 233 start-seq 2;
#X obj 238 236 start-seq 4;
#X obj 331 235 start-seq 6;
#X obj 421 236 start-seq 8;
#X obj 513 237 start-seq 10;
#X obj 613 237 start-seq 12;
#X obj 720 237 start-seq 14;
#X obj 817 237 start-seq 16;
#X obj 924 239 start-seq 18;
#X obj 1019 240 start-seq 20;
#X obj 1119 241 start-seq 22;
#X obj 314 79 route 0 2 4 6 8 10 12 14 16 18 20 22;
#X obj 334 33 inlet;
#X connect 1 0 0 0;
#X connect 2 0 0 0;
#X connect 3 0 0 0;
#X connect 4 0 0 0;
#X connect 5 0 0 0;
#X connect 6 0 0 0;
#X connect 7 0 0 0;
#X connect 8 0 0 0;
#X connect 9 0 0 0;
#X connect 10 0 0 0;
#X connect 11 0 0 0;
#X connect 12 0 0 0;
#X connect 13 0 1 0;
#X connect 13 1 2 0;
#X connect 13 2 3 0;
#X connect 13 3 4 0;
#X connect 13 4 5 0;
#X connect 13 5 6 0;
#X connect 13 6 7 0;
#X connect 13 7 8 0;
#X connect 13 8 9 0;
#X connect 13 9 10 0;
#X connect 13 10 11 0;
#X connect 13 11 12 0;
#X connect 13 12 2 0;
#X connect 13 12 1 0;
#X connect 13 12 6 0;
#X connect 13 12 3 0;
#X connect 13 12 4 0;
#X connect 13 12 5 0;
#X connect 13 12 7 0;
#X connect 13 12 8 0;
#X connect 13 12 9 0;
#X connect 13 12 10 0;
#X connect 13 12 11 0;
#X connect 13 12 12 0;
#X connect 14 0 13 0;
#X restore 122 247 pd start-sequences;
#X msg 277 184 0 start;
#X msg 360 194 0 stop;
#X obj 238 122 params-store;
#X obj 244 8 t b b b;
#X obj 140 99 s init2-bang;
#X obj 455 267 r init2-bang;
#X obj 624 288 sun-render;
#X msg 705 227 0.5;
#X msg 741 231 0.25;
#X msg 671 232 1;
#X obj 608 402 list prepend pix2;
#X obj 608 432 list trim;
#X obj 250 33 bng 19 250 50 0 empty empty empty 0 -10 0 12 #fcfcfc #000000 #000000;
#X obj 255 97 s reload-config;
#X msg 450 339 clear2;
#X obj 454 302 t b b;
#X msg 620 228 3;
#X obj 256 59 t b b;
#X msg 392 349 clear1;
#X connect 1 0 10 0;
#X connect 3 0 2 0;
#X connect 4 0 6 0;
#X connect 5 0 6 0;
#X connect 6 0 2 0;
#X connect 7 0 6 0;
#X connect 8 0 6 0;
#X connect 10 0 11 0;
#X connect 10 1 19 0;
#X connect 10 2 0 0;
#X connect 12 0 22 0;
#X connect 13 0 21 0;
#X connect 13 1 17 0;
#X connect 13 2 3 0;
#X connect 14 0 13 1;
#X connect 16 0 13 1;
#X connect 17 0 18 0;
#X connect 18 0 2 0;
#X connect 19 0 24 0;
#X connect 21 0 2 0;
#X connect 22 0 3 0;
#X connect 22 1 21 0;
#X connect 22 1 25 0;
#X connect 23 0 13 0;
#X connect 24 0 20 0;
#X connect 24 0 9 0;
#X connect 24 1 0 0;
#X connect 25 0 2 0;
