#N canvas 295 365 1304 628 12;
#X obj 377 99 config config-dev.txt;
#X obj 368 8 loadbang;
#X obj 435 505 display;
#X msg 508 349 update;
#X msg 106 169 start;
#X msg 182 169 stop;
#N canvas 180 491 1567 541 start-sequences 0;
#X obj 698 444 outlet;
#X obj 54 231 start-seq 0;
#X obj 147 233 start-seq 2;
#X obj 238 236 start-seq 4;
#X obj 331 235 start-seq 6;
#X obj 421 236 start-seq 8;
#X obj 513 237 start-seq 10;
#X obj 613 237 start-seq 12;
#X obj 720 237 start-seq 14;
#X obj 817 237 start-seq 16;
#X obj 924 239 start-seq 18;
#X obj 1019 240 start-seq 20;
#X obj 1119 241 start-seq 22;
#X obj 314 79 route 0 2 4 6 8 10 12 14 16 18 20 22;
#X obj 334 33 inlet;
#X connect 1 0 0 0;
#X connect 2 0 0 0;
#X connect 3 0 0 0;
#X connect 4 0 0 0;
#X connect 5 0 0 0;
#X connect 6 0 0 0;
#X connect 7 0 0 0;
#X connect 8 0 0 0;
#X connect 9 0 0 0;
#X connect 10 0 0 0;
#X connect 11 0 0 0;
#X connect 12 0 0 0;
#X connect 13 0 1 0;
#X connect 13 1 2 0;
#X connect 13 2 3 0;
#X connect 13 3 4 0;
#X connect 13 4 5 0;
#X connect 13 5 6 0;
#X connect 13 6 7 0;
#X connect 13 7 8 0;
#X connect 13 8 9 0;
#X connect 13 9 10 0;
#X connect 13 10 11 0;
#X connect 13 11 12 0;
#X connect 13 12 1 0;
#X connect 13 12 2 0;
#X connect 13 12 6 0;
#X connect 13 12 3 0;
#X connect 13 12 4 0;
#X connect 13 12 5 0;
#X connect 13 12 7 0;
#X connect 13 12 8 0;
#X connect 13 12 9 0;
#X connect 13 12 10 0;
#X connect 13 12 11 0;
#X connect 13 12 12 0;
#X connect 14 0 13 0;
#X restore 122 247 pd start-sequences;
#X msg 277 169 0 start;
#X msg 360 194 0 stop;
#X obj 244 83 params-store;
#X obj 244 8 t b b b;
#X obj 140 99 s init2-bang;
#X obj 455 267 r init2-bang;
#X obj 624 292 sun-render;
#X msg 705 228 0.5;
#X msg 741 247 0.25;
#X msg 671 247 1;
#X obj 608 402 list prepend pix2;
#X obj 608 427 list trim;
#X obj 244 33 bng 19 250 50 0 empty empty empty 0 -10 0 12 #fcfcfc #000000 #000000;
#X obj 244 108 s reload-config;
#X msg 450 349 clear2;
#X obj 455 292 t b b;
#X msg 620 228 3;
#X obj 244 58 t b b;
#X msg 392 349 clear1;
#N canvas 0 39 1800 1050 pulses 0;
#X obj 2707 912 outlet;
#X msg 196 213 \$1 1000;
#X msg 193 73 0;
#X obj 184 270 line 0 100;
#X msg 237 73 1;
#X msg 307 478 pix1 0 \$1 \$2 \$3;
#X obj 286 378 nbx 5 17 -1e+37 1e+37 0 0 empty empty empty 0 -10 0 12 #fcfcfc #000000 #000000 0 256;
#X msg 494 270 255 0 0 0 0 255;
#X msg 456 478 pix1 1 \$1 \$2 \$3;
#X obj 307 453 color-lerp;
#X obj 456 453 color-lerp;
#X obj 595 453 color-lerp;
#X obj 744 453 color-lerp;
#X msg 595 478 pix1 2 \$1 \$2 \$3;
#X msg 744 478 pix1 3 \$1 \$2 \$3;
#X msg 656 270 0 255 0 255 0 0;
#X obj 244 312 min 1;
#X obj 244 337 max 0;
#X obj 864 252 nbx 5 17 -1e+37 1e+37 0 0 empty empty empty 0 -10 0 12 #fcfcfc #000000 #000000 0 256;
#X obj 83 38 metro 2000;
#X obj 103 124 tgl 19 0 empty empty empty 0 -10 0 12 #fcfcfc #000000 #000000 0 1;
#X obj 83 13 tgl 19 0 empty empty empty 0 -10 0 12 #fcfcfc #000000 #000000 0 1;
#X msg 842 149 255 0 0 0 0 255;
#X msg 663 186 0 255 0 255 0 0;
#X obj 484 149 bng 19 250 50 0 empty empty empty 0 -10 0 12 #fcfcfc #000000 #000000;
#X obj 638 124 bng 19 250 50 0 empty empty empty 0 -10 0 12 #fcfcfc #000000 #000000;
#X obj 1276 453 sun-grad;
#X obj 1362 186 pack f f;
#X obj 1232 97 nbx 5 17 0 12 0 0 empty empty Etalement 0 -10 0 12 #fcfcfc #000000 #000000 0 256;
#X obj 1388 124 t b f;
#X obj 1363 49 nbx 5 17 -1e+37 1e+37 0 0 empty empty Position\ LED 0 -10 0 12 #fcfcfc #000000 #000000 0 256;
#X msg 1359 394 update;
#X obj 725 729 color-lerp2;
#X msg 725 754 pix1 0 \$1 \$2 \$3;
#X obj 847 729 color-lerp2;
#X msg 847 754 pix1 1 \$1 \$2 \$3;
#X obj 975 729 color-lerp2;
#X msg 975 754 pix1 2 \$1 \$2 \$3;
#X obj 1100 729 color-lerp2;
#X msg 1100 754 pix1 3 \$1 \$2 \$3;
#X obj 1222 729 color-lerp2;
#X msg 1222 754 pix1 4 \$1 \$2 \$3;
#X obj 2507 404 route 0 1 2 3 4 5 6 7 8 9 10 11 12 13 14 15 16 17 18 19 20 21 22 23, f 100;
#X obj 1339 729 color-lerp2;
#X msg 1339 754 pix1 5 \$1 \$2 \$3;
#X obj 1461 729 color-lerp2;
#X msg 1461 754 pix1 6 \$1 \$2 \$3;
#X obj 1589 729 color-lerp2;
#X msg 1589 754 pix1 7 \$1 \$2 \$3;
#X obj 1712 729 color-lerp2;
#X msg 1712 754 pix1 8 \$1 \$2 \$3;
#X obj 1833 729 color-lerp2;
#X msg 1833 754 pix1 9 \$1 \$2 \$3;
#X obj 1964 730 color-lerp2;
#X obj 2086 730 color-lerp2;
#X obj 2214 730 color-lerp2;
#X obj 2339 730 color-lerp2;
#X obj 2461 730 color-lerp2;
#X obj 2578 730 color-lerp2;
#X obj 2700 730 color-lerp2;
#X obj 2828 730 color-lerp2;
#X obj 2951 730 color-lerp2;
#X obj 3072 730 color-lerp2;
#X msg 1964 755 pix1 10 \$1 \$2 \$3;
#X msg 2086 755 pix1 11 \$1 \$2 \$3;
#X msg 2214 755 pix1 12 \$1 \$2 \$3;
#X msg 2339 755 pix1 13 \$1 \$2 \$3;
#X msg 2461 755 pix1 14 \$1 \$2 \$3;
#X msg 2578 755 pix1 15 \$1 \$2 \$3;
#X msg 2700 755 pix1 16 \$1 \$2 \$3;
#X msg 2828 755 pix1 17 \$1 \$2 \$3;
#X msg 2951 755 pix1 18 \$1 \$2 \$3;
#X msg 3072 755 pix1 19 \$1 \$2 \$3;
#X obj 3201 737 color-lerp2;
#X obj 3329 737 color-lerp2;
#X obj 3452 737 color-lerp2;
#X obj 3573 737 color-lerp2;
#X msg 3201 762 pix1 20 \$1 \$2 \$3;
#X msg 3329 762 pix1 21 \$1 \$2 \$3;
#X msg 3452 762 pix1 22 \$1 \$2 \$3;
#X msg 3573 762 pix1 23 \$1 \$2 \$3;
#X obj 300 283 nbx 5 17 -1e+37 1e+37 0 0 empty empty empty 0 -10 0 12 #fcfcfc #000000 #000000 0 256;
#X obj 200 476 t b f b;
#X msg 232 581 clear2;
#X msg 1805 480 0 0 0;
#X obj 1309 314 t l b;
#X msg 1263 232 255 255 255 0 50 50 \$1 \$2;
#X obj 1134 25 loadbang;
#X msg 1225 26 2;
#X msg 1283 36 4;
#X connect 1 0 3 0;
#X connect 2 0 1 0;
#X connect 3 0 16 0;
#X connect 4 0 1 0;
#X connect 7 0 9 1;
#X connect 7 0 10 1;
#X connect 9 0 5 0;
#X connect 10 0 8 0;
#X connect 11 0 13 0;
#X connect 12 0 14 0;
#X connect 15 0 12 1;
#X connect 15 0 11 1;
#X connect 16 0 17 0;
#X connect 17 0 6 0;
#X connect 17 0 82 0;
#X connect 18 0 9 2;
#X connect 18 0 10 2;
#X connect 18 0 11 2;
#X connect 18 0 12 2;
#X connect 19 0 20 0;
#X connect 20 0 1 0;
#X connect 21 0 19 0;
#X connect 22 0 11 1;
#X connect 22 0 12 1;
#X connect 23 0 9 1;
#X connect 23 0 10 1;
#X connect 24 0 7 0;
#X connect 24 0 15 0;
#X connect 25 0 23 0;
#X connect 25 0 22 0;
#X connect 26 0 42 0;
#X connect 27 0 86 0;
#X connect 28 0 27 0;
#X connect 29 0 27 0;
#X connect 29 1 27 1;
#X connect 30 0 29 0;
#X connect 31 0 0 0;
#X connect 32 0 33 0;
#X connect 33 0 0 0;
#X connect 34 0 35 0;
#X connect 35 0 0 0;
#X connect 36 0 37 0;
#X connect 37 0 0 0;
#X connect 38 0 39 0;
#X connect 39 0 0 0;
#X connect 40 0 41 0;
#X connect 41 0 0 0;
#X connect 42 0 32 1;
#X connect 42 1 34 1;
#X connect 42 2 36 1;
#X connect 42 3 38 1;
#X connect 42 4 40 1;
#X connect 42 5 43 1;
#X connect 42 6 45 1;
#X connect 42 7 47 1;
#X connect 42 8 49 1;
#X connect 42 9 51 1;
#X connect 42 10 53 1;
#X connect 42 11 54 1;
#X connect 42 12 55 1;
#X connect 42 13 56 1;
#X connect 42 14 57 1;
#X connect 42 15 58 1;
#X connect 42 16 59 1;
#X connect 42 17 60 1;
#X connect 42 18 61 1;
#X connect 42 19 62 1;
#X connect 42 20 73 1;
#X connect 42 21 74 1;
#X connect 42 22 75 1;
#X connect 42 23 76 1;
#X connect 43 0 44 0;
#X connect 44 0 0 0;
#X connect 45 0 46 0;
#X connect 46 0 0 0;
#X connect 47 0 48 0;
#X connect 48 0 0 0;
#X connect 49 0 50 0;
#X connect 50 0 0 0;
#X connect 51 0 52 0;
#X connect 52 0 0 0;
#X connect 53 0 63 0;
#X connect 54 0 64 0;
#X connect 55 0 65 0;
#X connect 56 0 66 0;
#X connect 57 0 67 0;
#X connect 58 0 68 0;
#X connect 59 0 69 0;
#X connect 60 0 70 0;
#X connect 61 0 71 0;
#X connect 62 0 72 0;
#X connect 63 0 0 0;
#X connect 64 0 0 0;
#X connect 65 0 0 0;
#X connect 66 0 0 0;
#X connect 67 0 0 0;
#X connect 68 0 0 0;
#X connect 69 0 0 0;
#X connect 70 0 0 0;
#X connect 71 0 0 0;
#X connect 72 0 0 0;
#X connect 73 0 77 0;
#X connect 74 0 78 0;
#X connect 75 0 79 0;
#X connect 76 0 80 0;
#X connect 77 0 0 0;
#X connect 78 0 0 0;
#X connect 79 0 0 0;
#X connect 80 0 0 0;
#X connect 81 0 16 0;
#X connect 82 0 31 0;
#X connect 82 1 9 0;
#X connect 82 1 12 0;
#X connect 82 1 11 0;
#X connect 82 1 10 0;
#X connect 82 1 32 0;
#X connect 82 1 34 0;
#X connect 82 1 36 0;
#X connect 82 1 38 0;
#X connect 82 1 40 0;
#X connect 82 1 43 0;
#X connect 82 1 45 0;
#X connect 82 1 47 0;
#X connect 82 1 49 0;
#X connect 82 1 51 0;
#X connect 82 1 53 0;
#X connect 82 1 54 0;
#X connect 82 1 55 0;
#X connect 82 1 56 0;
#X connect 82 1 57 0;
#X connect 82 1 58 0;
#X connect 82 1 59 0;
#X connect 82 1 60 0;
#X connect 82 1 61 0;
#X connect 82 1 62 0;
#X connect 82 1 73 0;
#X connect 82 1 74 0;
#X connect 82 1 75 0;
#X connect 82 1 76 0;
#X connect 82 2 83 0;
#X connect 84 0 32 1;
#X connect 84 0 34 1;
#X connect 84 0 36 1;
#X connect 84 0 38 1;
#X connect 84 0 40 1;
#X connect 84 0 43 1;
#X connect 84 0 45 1;
#X connect 84 0 47 1;
#X connect 84 0 49 1;
#X connect 84 0 51 1;
#X connect 84 0 53 1;
#X connect 84 0 54 1;
#X connect 84 0 55 1;
#X connect 84 0 56 1;
#X connect 84 0 57 1;
#X connect 84 0 58 1;
#X connect 84 0 59 1;
#X connect 84 0 60 1;
#X connect 84 0 61 1;
#X connect 84 0 62 1;
#X connect 84 0 73 1;
#X connect 84 0 74 1;
#X connect 84 0 75 1;
#X connect 84 0 76 1;
#X connect 85 0 26 0;
#X connect 85 1 84 0;
#X connect 86 0 85 0;
#X connect 87 0 28 0;
#X connect 87 0 88 0;
#X connect 87 0 89 0;
#X connect 88 0 28 0;
#X connect 89 0 30 0;
#X restore 62 313 pd pulses;
#X obj 889 240 i 0;
#X obj 970 243 + 1;
#X obj 869 180 bng 19 250 50 0 empty empty empty 0 -10 0 12 #fcfcfc #000000 #000000;
#X msg 909 201 0;
#X obj 899 349 nbx 5 17 -1e+37 1e+37 0 0 empty empty empty 0 -10 0 12 #fcfcfc #000000 #000000 0 256;
#X obj 860 286 sel 24;
#X obj 949 404 t b f b;
#X msg 1169 463 clear1;
#X msg 899 454 update;
#X obj 867 150 metro 1000;
#X obj 862 90 tgl 19 0 empty empty empty 0 -10 0 12 #fcfcfc #000000 #000000 0 1;
#X msg 956 485 pix1 \$1 200 200 200;
#X obj 845 39 loadbang;
#X connect 1 0 10 0;
#X connect 3 0 2 0;
#X connect 4 0 6 0;
#X connect 5 0 6 0;
#X connect 6 0 2 0;
#X connect 7 0 6 0;
#X connect 8 0 6 0;
#X connect 10 0 11 0;
#X connect 10 1 19 0;
#X connect 10 2 0 0;
#X connect 12 0 22 0;
#X connect 13 0 21 0;
#X connect 13 1 17 0;
#X connect 13 2 3 0;
#X connect 14 0 13 1;
#X connect 16 0 13 1;
#X connect 17 0 18 0;
#X connect 18 0 2 0;
#X connect 19 0 24 0;
#X connect 21 0 2 0;
#X connect 22 0 3 0;
#X connect 22 1 21 0;
#X connect 22 1 25 0;
#X connect 23 0 13 0;
#X connect 24 0 20 0;
#X connect 24 0 9 0;
#X connect 24 1 0 0;
#X connect 25 0 2 0;
#X connect 26 0 2 0;
#X connect 27 0 28 0;
#X connect 27 0 31 0;
#X connect 27 0 32 0;
#X connect 28 0 27 1;
#X connect 29 0 27 0;
#X connect 30 0 27 0;
#X connect 31 0 33 0;
#X connect 32 0 30 0;
#X connect 33 0 35 0;
#X connect 33 1 38 0;
#X connect 33 2 34 0;
#X connect 34 0 2 0;
#X connect 35 0 2 0;
#X connect 36 0 29 0;
#X connect 37 0 36 0;
#X connect 38 0 2 0;
#X connect 39 0 37 0;
