#N canvas 1049 378 673 510 12;
#X obj 89 265 iemnet/udpsend;
#X msg 289 223 connect 127.0.0.1 8010;
#X obj 83 183 osc/packOSC;
#X msg 257 151 send /update;
#X obj 89 45 inlet;
#X msg 81 138 send /pix \$1 \$2 \$3 \$4;
#X obj 86 85 route pix update clear;
#X msg 355 142 send /clear;
#X obj 319 193 loadbang;
#X connect 1 0 0 0;
#X connect 2 0 0 0;
#X connect 3 0 2 0;
#X connect 4 0 6 0;
#X connect 5 0 2 0;
#X connect 6 0 5 0;
#X connect 6 1 3 0;
#X connect 6 2 7 0;
#X connect 7 0 2 0;
#X connect 8 0 1 0;
