#N canvas 187 549 1047 516 12;
#X obj 89 325 iemnet/udpsend;
#X msg 289 283 connect 127.0.0.1 8010;
#X obj 83 243 osc/packOSC;
#X msg 57 163 send /update;
#X obj 89 -9 inlet;
#X obj 523 252 config-query led-controller-host;
#X msg 523 319 set connect \$1 8010;
#X obj 547 285 symbol \$1;
#X obj 448 144 t b b;
#X msg 236 393 send /all 255 0 0;
#X obj 527 122 r reload-config;
#X msg 365 91 send /pix2 \$1 \$2 \$3 \$4;
#X msg 173 165 send /clear1;
#X msg 287 169 send /clear2;
#X obj 405 47 print error;
#X obj 91 25 route update clear1 clear2 pix1 pix2;
#X msg 193 125 send /pix1 \$1 \$2 \$3 \$4;
#X connect 1 0 0 0;
#X connect 2 0 0 0;
#X connect 3 0 2 0;
#X connect 4 0 15 0;
#X connect 5 0 7 0;
#X connect 6 0 1 0;
#X connect 7 0 6 0;
#X connect 8 0 1 0;
#X connect 8 1 5 0;
#X connect 9 0 2 0;
#X connect 10 0 8 0;
#X connect 11 0 2 0;
#X connect 12 0 2 0;
#X connect 13 0 2 0;
#X connect 15 0 3 0;
#X connect 15 1 12 0;
#X connect 15 2 13 0;
#X connect 15 3 16 0;
#X connect 15 4 11 0;
#X connect 15 5 14 0;
#X connect 16 0 2 0;
