#N canvas 92 131 724 456 12;
#X obj 339 40 loadbang;
#X obj 353 96 i \$1, f 5;
#X obj 155 73 inlet;
#X obj 155 211 outlet;
#X obj 247 128 pack f f;
#X msg 174 162 pix1 \$2 \$1 \$1 \$1;
#X connect 0 0 1 0;
#X connect 1 0 4 1;
#X connect 2 0 4 0;
#X connect 4 0 5 0;
#X connect 5 0 3 0;
