#N canvas 273 220 688 629 12;
#X obj 77 5 inlet;
#X obj 156 575 outlet;
#X obj 141 12 inlet;
#X obj 65 145 f 0;
#X obj 105 123 + 10;
#X obj 59 67 bng 19 250 50 0 empty empty empty 0 -10 0 12 #fcfcfc #000000 #000000;
#X obj 64 209 nbx 5 17 -1e+37 1e+37 0 0 empty empty empty 0 -10 0 12 #fcfcfc #000000 #000000 0 256;
#X msg 98 75 0;
#X obj 405 99 f;
#X obj 523 484 ==;
#X obj 521 532 sel 1;
#X obj 168 462 f;
#X obj 274 32 route set;
#X obj 219 407 t f f;
#X obj 491 76 loadbang;
#X obj 491 134 f \$1;
#X msg 281 174 0;
#X obj 528 178 route 0;
#X obj 79 284 expr $f2*(1-($f1/100.))+$f3*($f1/100.);
#X connect 0 0 5 0;
#X connect 2 0 12 0;
#X connect 3 0 4 0;
#X connect 3 0 6 0;
#X connect 4 0 3 1;
#X connect 5 0 3 0;
#X connect 6 0 18 0;
#X connect 7 0 3 1;
#X connect 8 0 9 1;
#X connect 8 0 18 2;
#X connect 9 0 10 0;
#X connect 10 0 7 0;
#X connect 10 0 11 0;
#X connect 11 0 18 1;
#X connect 12 0 7 0;
#X connect 12 0 18 1;
#X connect 12 1 8 0;
#X connect 13 0 9 0;
#X connect 13 1 11 0;
#X connect 14 0 15 0;
#X connect 14 0 16 0;
#X connect 15 0 17 0;
#X connect 16 0 18 1;
#X connect 17 1 4 1;
#X connect 18 0 1 0;
#X connect 18 0 13 0;
