#N canvas 196 260 1134 755 12;
#X obj 193 190 bng 19 250 50 0 empty empty empty 0 -10 0 12 #fcfcfc #000000 #000000;
#X obj 252 181 bng 19 250 50 0 empty empty empty 0 -10 0 12 #fcfcfc #000000 #000000;
#X msg 65 594 update;
#X msg 157 279 255 1000;
#X msg 251 287 0 1000;
#X obj 169 368 i;
#X obj 169 470 t b f f f;
#X msg 231 597 pix \$1 \$2 \$3 \$4;
#X obj 196 687 outlet;
#X obj 107 53 inlet;
#N canvas 801 217 786 612 start-seq 0;
#X obj 292 123 nbx 5 17 0 8000 0 0 empty empty empty 0 -10 0 12 #fcfcfc #000000 #000000 0 256;
#X obj 410 188 -;
#X obj 461 240 nbx 5 17 0 8000 0 0 empty empty empty 0 -10 0 12 #fcfcfc #000000 #000000 0 256;
#X obj 192 273 bng 19 250 50 0 empty empty empty 0 -10 0 12 #fcfcfc #000000 #000000;
#X obj 258 366 bng 19 250 50 0 empty empty empty 0 -10 0 12 #fcfcfc #000000 #000000;
#X obj 312 374 bng 19 250 50 0 empty empty empty 0 -10 0 12 #fcfcfc #000000 #000000;
#X msg 408 151 8000 \$1;
#X obj 272 272 delay 4000;
#X obj 394 274 delay 4000;
#X obj 275 306 t b b;
#X obj 117 15 inlet;
#X obj 116 53 route stop start;
#X obj 242 438 outlet;
#X obj 322 438 outlet;
#X msg 76 123 stop;
#X connect 0 0 6 0;
#X connect 0 0 7 1;
#X connect 1 0 2 0;
#X connect 2 0 8 1;
#X connect 3 0 7 0;
#X connect 3 0 4 0;
#X connect 4 0 12 0;
#X connect 5 0 13 0;
#X connect 6 0 1 0;
#X connect 7 0 9 0;
#X connect 8 0 3 0;
#X connect 9 0 5 0;
#X connect 9 1 8 0;
#X connect 10 0 11 0;
#X connect 11 0 14 0;
#X connect 11 1 3 0;
#X connect 11 2 0 0;
#X connect 14 0 7 0;
#X connect 14 0 8 0;
#X restore 195 143 pd start-seq;
#X obj 86 150 loadbang;
#X msg 119 187 4000;
#X obj 165 548 pack \$0 f f f;
#X obj 113 516 i \$1;
#X obj 396 467 t b f f f;
#X obj 392 545 pack \$0 f f f;
#X obj 370 314 i \$1;
#X obj 369 341 + 1;
#X obj 340 513 i;
#X obj 169 400 t b f f;
#X obj 242 374 nbx 5 17 -1e+37 1e+37 0 0 empty empty empty 0 -10 0 12 #fcfcfc #000000 #000000 0 256;
#X obj 230 95 route stop;
#X obj 169 336 line 0 100;
#X msg 356 203 set \$1 1000;
#X obj 382 152 r max-bright-start-seq;
#X connect 0 0 3 0;
#X connect 1 0 4 0;
#X connect 2 0 8 0;
#X connect 3 0 23 0;
#X connect 4 0 23 0;
#X connect 5 0 20 0;
#X connect 6 0 14 0;
#X connect 6 1 13 1;
#X connect 6 2 13 2;
#X connect 6 3 13 3;
#X connect 7 0 8 0;
#X connect 9 0 10 0;
#X connect 9 0 22 0;
#X connect 10 0 0 0;
#X connect 10 1 1 0;
#X connect 11 0 12 0;
#X connect 11 0 14 0;
#X connect 11 0 17 0;
#X connect 12 0 10 0;
#X connect 13 0 7 0;
#X connect 14 0 13 0;
#X connect 15 0 19 0;
#X connect 15 1 16 1;
#X connect 15 2 16 2;
#X connect 15 3 16 3;
#X connect 16 0 7 0;
#X connect 17 0 18 0;
#X connect 18 0 19 1;
#X connect 19 0 16 0;
#X connect 20 0 2 0;
#X connect 20 1 6 0;
#X connect 20 2 15 0;
#X connect 22 0 4 0;
#X connect 23 0 5 0;
#X connect 23 0 21 0;
#X connect 24 0 3 0;
#X connect 25 0 24 0;
