#N canvas 64 102 546 697 12;
#X msg 46 492 update;
#X msg 248 328 pix1 \$1 \$2 \$3 \$4;
#X obj 88 211 t b a b;
#X msg 203 492 clear1;
#X obj 297 279 gradient-gen -1;
#X obj 157 279 gradient-gen 1 1;
#X obj 351 619 outlet;
#X obj 97 28 inlet;
#X connect 0 0 6 0;
#X connect 1 0 6 0;
#X connect 2 0 0 0;
#X connect 2 1 4 0;
#X connect 2 1 5 0;
#X connect 2 2 3 0;
#X connect 3 0 6 0;
#X connect 4 0 1 0;
#X connect 5 0 1 0;
#X connect 7 0 2 0;
