#N canvas 371 111 1260 779 12;
#X obj 208 510 r mfk;
#X obj 311 520 r bfk;
#X obj 421 399 text define -k \$0-pattr;
#A set bfk 1.292 mfk 83.44 \; bfk 1.4 mfk 74.44 \;;
#X obj 162 776 text set \$0-pattr;
#X obj 717 460 text get \$0-pattr;
#X obj 696 578 until;
#X obj 709 661 list store;
#X obj 730 545 t b b l;
#X obj 696 603 f;
#X msg 753 578 0, f 2;
#X msg 696 634 get \$1 2;
#X obj 734 604 + 2;
#X msg 824 397 1;
#X obj 704 864 s;
#X obj 709 704 list trim;
#X obj 715 748 unpack s f;
#X obj 750 787 f;
#X obj 676 776 t b s;
#X msg 764 401 0;
#X obj 206 561 f;
#X obj 310 570 f;
#X obj 142 460 t b b;
#X obj 123 411 bng 19 250 50 0 empty empty empty 0 -10 0 12 #fcfcfc #000000 #000000;
#X obj 168 710 list store;
#X obj 106 692 bng 19 250 50 0 empty empty empty 0 -10 0 12 #fcfcfc #000000 #000000;
#X msg 158 606 append mfk \$1;
#X obj 295 654 bng 19 250 50 0 empty empty clear\ list 0 -10 0 12 #fcfcfc #000000 #000000;
#X msg 267 610 append bfk \$1;
#X msg 341 695 1, f 5;
#X obj 376 568 nbx 5 17 -1e+37 1e+37 0 0 empty empty empty 0 -10 0 12 #fcfcfc #000000 #000000 0 256;
#X obj 238 566 nbx 5 17 -1e+37 1e+37 0 0 empty empty empty 0 -10 0 12 #fcfcfc #000000 #000000 0 256;
#X obj 181 408 t b b f b;
#X msg 177 371 1, f 5;
#X text 105 304 SAVE;
#X text 705 355 LOAD;
#X obj 246 112 inlet;
#X obj 234 167 route save load;
#X connect 0 0 19 1;
#X connect 0 0 30 0;
#X connect 1 0 20 1;
#X connect 1 0 29 0;
#X connect 4 0 7 0;
#X connect 5 0 8 0;
#X connect 6 0 14 0;
#X connect 6 1 5 1;
#X connect 7 0 5 0;
#X connect 7 1 9 0;
#X connect 7 2 6 1;
#X connect 8 0 10 0;
#X connect 8 0 11 0;
#X connect 9 0 8 1;
#X connect 10 0 6 0;
#X connect 11 0 8 1;
#X connect 12 0 4 0;
#X connect 14 0 15 0;
#X connect 15 0 17 0;
#X connect 15 1 16 1;
#X connect 16 0 13 0;
#X connect 17 0 16 0;
#X connect 17 1 13 1;
#X connect 18 0 4 0;
#X connect 19 0 25 0;
#X connect 20 0 27 0;
#X connect 21 0 19 0;
#X connect 21 1 20 0;
#X connect 22 0 21 0;
#X connect 23 0 3 0;
#X connect 24 0 23 0;
#X connect 25 0 23 0;
#X connect 26 0 23 1;
#X connect 27 0 23 0;
#X connect 28 0 3 1;
#X connect 31 0 23 0;
#X connect 31 1 21 0;
#X connect 31 2 3 1;
#X connect 31 3 26 0;
#X connect 32 0 31 0;
#X connect 35 0 36 0;
#X connect 36 0 31 0;
#X connect 36 1 4 0;
