#N canvas 362 161 1069 919 12;
#X msg 307 180 Drone 1 \; mfk 83.44 \; bfk 1.292;
#X obj 55 96 s mfk;
#X obj 44 52 nbx 5 17 -1e+37 1e+37 0 0 empty empty empty 0 -10 0 12 #fcfcfc #000000 #000000 0 256;
#X obj 142 61 nbx 5 17 -1e+37 1e+37 0 0 empty empty empty 0 -10 0 12 #fcfcfc #000000 #000000 0 256;
#X obj 153 105 s bfk;
#X msg 428 164 Astral Projection \; mfk 852 \; bfk 6;
#X obj 268 358 pattr;
#X msg 259 309 load 1;
#X msg 334 315 save 0;
#X msg 405 319 save 2;
#X msg 187 315 load 0;
#X connect 2 0 1 0;
#X connect 3 0 4 0;
#X connect 7 0 6 0;
#X connect 8 0 6 0;
#X connect 9 0 6 0;
#X connect 10 0 6 0;
