#N canvas 757 263 779 579 12;
#X msg 101 135 save 0;
#X msg 151 145 save 1;
#X obj 133 269 nbx 5 17 -1e+37 1e+37 0 0 empty empty empty 0 -10 0 12 #fcfcfc #000000 #000000 0 256;
#X msg 293 148 load 0;
#X msg 367 137 load 1;
#X msg 217 145 save 2;
#X msg 441 148 load 2;
#X obj 147 200 pattr 3000;
#X msg 499 156 load 3;
#X connect 0 0 7 0;
#X connect 1 0 7 0;
#X connect 3 0 7 0;
#X connect 4 0 7 0;
#X connect 5 0 7 0;
#X connect 6 0 7 0;
#X connect 7 0 2 0;
#X connect 8 0 7 0;
