#N canvas 55 566 682 586 12;
#X msg 20 104 save 0;
#X msg 80 104 save 1;
#X obj 145 359 nbx 5 17 -1e+37 1e+37 0 0 empty empty empty 0 -10 0 12 #fcfcfc #000000 #000000 0 256;
#X msg 281 110 load 0;
#X msg 354 110 load 1;
#X msg 145 104 save 2;
#X msg 428 110 load 2;
#X msg 502 110 load 3;
#X obj 286 62 loadbang;
#X obj 146 303 pattr 3000 preset.txt;
#X msg 409 173 show;
#X msg 408 205 save_file;
#X msg 201 104 save 3;
#X connect 0 0 9 0;
#X connect 1 0 9 0;
#X connect 3 0 9 0;
#X connect 4 0 9 0;
#X connect 5 0 9 0;
#X connect 6 0 9 0;
#X connect 7 0 9 0;
#X connect 8 0 3 0;
#X connect 9 0 2 0;
#X connect 10 0 9 0;
#X connect 11 0 9 0;
#X connect 12 0 9 0;
