#N canvas 642 119 1063 856 12;
#X msg 370 250 send /update;
#X msg 253 384 send /ping;
#X msg 38 185 send /clear;
#N canvas 745 446 778 516 display 0;
#X obj 258 145 loadbang;
#X obj 337 147 bng 19 250 50 0 empty empty empty 0 -10 0 12 #fcfcfc #000000 #000000;
#X obj 94 171 osc/packOSC;
#X obj 90 35 inlet;
#X obj 201 347 osc/unpackOSC;
#X obj 412 411 outlet;
#X obj 403 361 route /sensor;
#X obj 202 293 iemnet/udpreceive 8012;
#X obj 132 227 iemnet/udpsend;
#X msg 199 191 connect 127.0.0.1 8010;
#X obj 189 42 inlet;
#X connect 0 0 9 0;
#X connect 1 0 9 0;
#X connect 2 0 8 0;
#X connect 3 0 2 0;
#X connect 4 0 6 0;
#X connect 6 0 5 0;
#X connect 7 0 4 0;
#X connect 9 0 8 0;
#X connect 10 0 1 0;
#X restore 171 380 pd display;
#X obj 174 446 route 1;
#X obj 179 498 nbx 5 17 -1e+37 1e+37 0 0 empty empty empty 0 -10 0 12 #fcfcfc #000000 #000000 0 256;
#X msg 638 250 send /pix 0 \$1 \$1 \$1;
#X msg 477 250 send /pix 1 \$1 \$1 \$1;
#X obj 454 211 t b f f;
#X obj 138 502 bng 19 250 50 0 empty empty empty 0 -10 0 12 #fcfcfc #000000 #000000;
#X text 250 497 vitesse capteur;
#N canvas 121 160 925 672 pulse 0;
#X obj 245 15 inlet;
#X obj 309 583 outlet;
#X obj 160 335 bng 19 250 50 0 empty empty empty 0 -10 0 12 #fcfcfc #000000 #000000;
#X msg 273 358 255 200;
#X msg 382 368 0 200;
#X obj 312 220 spigot 1;
#X obj 405 187 tgl 19 0 empty empty empty 0 -10 0 12 #fcfcfc #000000 #000000 0 1;
#X obj 235 61 route stop reset start;
#X msg 405 151 0;
#X msg 258 484 0;
#X msg 441 165 1;
#X obj 294 264 delay 4000;
#X obj 348 515 line 50;
#X obj 390 319 delay 3000;
#X connect 0 0 7 0;
#X connect 2 0 3 0;
#X connect 2 0 11 0;
#X connect 3 0 12 0;
#X connect 4 0 12 0;
#X connect 5 0 2 0;
#X connect 6 0 5 1;
#X connect 7 0 8 0;
#X connect 7 0 9 0;
#X connect 7 1 9 0;
#X connect 7 2 2 0;
#X connect 7 2 10 0;
#X connect 8 0 6 0;
#X connect 9 0 12 0;
#X connect 10 0 6 0;
#X connect 11 0 4 0;
#X connect 11 0 13 0;
#X connect 12 0 1 0;
#X connect 13 0 5 0;
#X restore 337 78 pd pulse;
#X msg 339 39 start;
#X msg 414 46 stop;
#X obj 343 125 nbx 5 17 -1e+37 1e+37 0 0 empty empty empty 0 -10 0 12 #fcfcfc #000000 #000000 0 256;
#X obj 245 293 bng 19 250 50 0 empty empty empty 0 -10 0 12 #fcfcfc #000000 #000000;
#X text 308 311 reconnect;
#X text 423 558 python3 "/Users/retake7/Documents/WORK-LAPTOP/SOLAR DEVICE/TECH/PROGRAMMATION/SolarDevice/DisplayController/main.py" /dev/cu.usbmodem112201;
#X text 411 452 lancer "Terminal" et copier/coller la ligne suivante + ENTER;
#X text 431 475 cliquer reconnect si msg "udp send: not connected";
#X obj 63 45 speed-check;
#X obj 55 100 print state;
#X obj 149 79 nbx 5 17 -1e+37 1e+37 0 0 empty empty empty 0 -10 0 12 #fcfcfc #000000 #000000 0 256;
#X obj 132 -21 bng 19 250 50 0 empty empty reset 0 -10 0 12 #fcfcfc #000000 #000000;
#X obj 649 -26 sel 2;
#X obj 657 19 bng 19 250 50 0 empty empty empty 0 -10 0 12 #fcfcfc #000000 #000000;
#X obj 325 -5 sel 0;
#X obj 485 52 bng 19 250 50 0 empty empty empty 0 -10 0 12 #fcfcfc #000000 #000000;
#X obj 483 -33 sel 1;
#X obj 294 28 bng 19 250 50 0 empty empty empty 0 -10 0 12 #fcfcfc #000000 #000000;
#X obj 405 2 bng 19 250 50 0 empty empty empty 0 -10 0 12 #fcfcfc #000000 #000000;
#X obj 484 -2 t b b;
#X msg 488 95 255;
#X msg 659 68 100;
#X msg 342 389 send /dump;
#X msg 36 230 send /all 255 120 120;
#X connect 0 0 3 0;
#X connect 1 0 3 0;
#X connect 2 0 3 0;
#X connect 3 0 4 0;
#X connect 4 0 5 0;
#X connect 4 0 9 0;
#X connect 5 0 20 0;
#X connect 6 0 3 0;
#X connect 7 0 3 0;
#X connect 8 0 0 0;
#X connect 8 1 7 0;
#X connect 8 2 6 0;
#X connect 11 0 14 0;
#X connect 12 0 11 0;
#X connect 13 0 11 0;
#X connect 14 0 8 0;
#X connect 15 0 3 1;
#X connect 20 0 21 0;
#X connect 20 0 22 0;
#X connect 22 0 24 0;
#X connect 22 0 26 0;
#X connect 22 0 28 0;
#X connect 23 0 20 1;
#X connect 24 0 25 0;
#X connect 25 0 33 0;
#X connect 26 0 12 0;
#X connect 26 0 29 0;
#X connect 26 1 30 0;
#X connect 27 0 32 0;
#X connect 28 0 31 0;
#X connect 31 0 27 0;
#X connect 31 1 13 0;
#X connect 32 0 8 0;
#X connect 33 0 8 0;
#X connect 34 0 3 0;
#X connect 35 0 3 0;
