#N canvas 1134 39 666 630 12;
#X msg 183 271 connect 127.0.0.1 5005;
#X obj 192 157 loadbang;
#X obj 264 85 tgl 19 0 empty empty empty 0 -10 0 12 #fcfcfc #000000 #000000 0 1;
#X msg 261 109 send /mire \$1;
#X msg 68 23 send /mapping 0 1;
#X msg 277 19 send /save_mapping panels_conf2.json;
#X msg 294 45 send /load_mapping panels_conf.json;
#X obj 307 154 tgl 19 0 empty empty empty 0 -10 0 12 #fcfcfc #000000 #000000 0 1;
#X msg 304 178 send /pause \$1;
#X msg 246 330 send /get_status;
#X obj 215 486 route /status_paused;
#X obj 212 558 tgl 19 0 empty empty empty 0 -10 0 12 #fcfcfc #000000 #000000 0 1;
#X obj 370 527 print;
#X text 235 561 paused;
#X text 229 522 status;
#X obj 232 379 iemnet/udpreceive 5006;
#X obj 236 438 osc/unpackOSC;
#X obj 76 329 iemnet/udpsend;
#X obj 68 243 osc/packOSC;
#X obj 192 215 t b b;
#X obj 192 185 bng 19 250 50 0 empty empty empty 0 -10 0 12 #fcfcfc #000000 #000000;
#X obj 483 116 vsl 19 162 1 12 0 0 empty empty empty 0 -9 0 12 #fcfcfc #000000 #000000 0 1;
#X msg 471 320 send /scale \$1;
#X connect 0 0 17 0;
#X connect 1 0 20 0;
#X connect 2 0 3 0;
#X connect 3 0 18 0;
#X connect 4 0 18 0;
#X connect 5 0 18 0;
#X connect 6 0 18 0;
#X connect 7 0 8 0;
#X connect 8 0 18 0;
#X connect 9 0 18 0;
#X connect 10 0 11 0;
#X connect 10 1 12 0;
#X connect 15 0 16 0;
#X connect 16 0 10 0;
#X connect 18 0 17 0;
#X connect 19 0 9 0;
#X connect 19 1 0 0;
#X connect 20 0 19 0;
#X connect 21 0 22 0;
#X connect 22 0 18 0;
