#N canvas 435 250 1157 536 12;
#X msg 116 32 devices;
#X obj 213 193 print status;
#X obj 113 140 comport 2 9600;
#X obj 424 93 vsl 19 162 0 255 0 0 empty empty empty 0 -9 0 12 #fcfcfc #000000 #000000 0 1;
#X msg 523 50 close;
#X floatatom 496 280 5 0 0 0 - - - 0;
#X msg 246 69 open 3;
#N canvas 324 363 1078 518 parse_input 0;
#X obj 88 62 inlet;
#X obj 113 335 fudiparse;
#X obj 112 158 select 10 13;
#X obj 113 244 t b b;
#X obj 114 291 list;
#X obj 208 212 list prepend;
#X obj 214 266 s enqueue;
#X obj 303 166 r enqueue;
#X obj 41 422 outlet;
#X connect 0 0 2 0;
#X connect 1 0 8 0;
#X connect 2 0 3 0;
#X connect 2 2 5 0;
#X connect 3 0 4 0;
#X connect 3 1 6 0;
#X connect 4 0 1 0;
#X connect 5 0 6 0;
#X connect 5 0 4 1;
#X connect 7 0 5 1;
#X restore 71 268 pd parse_input;
#X obj 186 316 unpack f f;
#X obj 170 390 nbx 5 17 -1e+37 1e+37 0 0 empty empty empty 0 -10 0 12 #fcfcfc #000000 #000000 0 256;
#X obj 375 401 nbx 5 17 -1e+37 1e+37 0 0 empty empty empty 0 -10 0 12 #fcfcfc #000000 #000000 0 256;
#X text 98 392 Speed;
#X text 308 400 activity;
#X obj 213 359 bng 19 250 50 0 empty empty empty 0 -10 0 12 #fcfcfc #000000 #000000;
#X obj 356 346 bng 19 250 50 0 empty empty empty 0 -10 0 12 #fcfcfc #000000 #000000;
#X connect 0 0 2 0;
#X connect 2 0 7 0;
#X connect 2 1 1 0;
#X connect 3 0 2 0;
#X connect 3 0 5 0;
#X connect 4 0 2 0;
#X connect 6 0 2 0;
#X connect 7 0 8 0;
#X connect 8 0 9 0;
#X connect 8 0 13 0;
#X connect 8 1 10 0;
#X connect 8 1 14 0;
