#N canvas 521 243 627 492 10;
#X obj 175 163 delta;
#X floatatom 175 139 5 0 0 0 - - -;
#X obj 98 389 spigot;
#X obj 98 54 inlet data;
#X obj 254 175 inlet max_deviation;
#X obj 98 430 outlet;
#X msg 175 341 1;
#X msg 214 341 0;
#X floatatom 175 297 5 0 0 0 - - -;
#X obj 214 264 >;
#X floatatom 214 296 5 0 0 0 - - -;
#X obj 175 216 t f f;
#X obj 175 264 <;
#X obj 214 318 sel 1;
#X obj 175 318 sel 1;
#X obj 175 188 abs;
#X obj 98 99 t f f;
#X connect 0 0 15 0;
#X connect 1 0 0 0;
#X connect 2 0 5 0;
#X connect 3 0 16 0;
#X connect 4 0 9 1;
#X connect 4 0 12 1;
#X connect 6 0 2 1;
#X connect 7 0 2 1;
#X connect 8 0 14 0;
#X connect 9 0 10 0;
#X connect 10 0 13 0;
#X connect 11 0 12 0;
#X connect 11 1 9 0;
#X connect 12 0 8 0;
#X connect 13 0 7 0;
#X connect 14 0 6 0;
#X connect 15 0 11 0;
#X connect 16 0 2 0;
#X connect 16 1 1 0;
