#N canvas 922 158 593 544 12;
#X obj 150 189 test-seq;
#X obj 199 304 control2;
#X msg 139 129 stop;
#X msg 185 129 reset;
#X msg 243 131 start;
#X text 135 97 séquence de démarrage;
#X text 273 300 <- open me \, si pb port série;
#X obj 204 413 bng 19 250 50 0 empty empty empty 0 -10 0 12 #fcfcfc #000000 #000000;
#X obj 326 418 bng 19 250 50 0 empty empty empty 0 -10 0 12 #fcfcfc #000000 #000000;
#X obj 209 342 route 0 1;
#X text 356 415 trig capteurs;
#X msg 144 229 0 \$1;
#X obj 323 192 test-seq;
#X msg 312 132 stop;
#X msg 358 132 reset;
#X msg 416 134 start;
#X msg 325 232 1 \$1;
#X msg 423 250 reset;
#X connect 0 0 11 0;
#X connect 1 0 9 0;
#X connect 2 0 0 0;
#X connect 3 0 0 0;
#X connect 4 0 0 0;
#X connect 9 0 7 0;
#X connect 9 1 8 0;
#X connect 11 0 1 0;
#X connect 12 0 16 0;
#X connect 13 0 12 0;
#X connect 14 0 12 0;
#X connect 15 0 12 0;
#X connect 16 0 1 0;
#X connect 17 0 1 1;
