#N canvas 617 371 1183 619 12;
#X obj 213 162 i 0;
#X obj 259 165 + 1;
#X msg 216 130 0;
#X obj 206 -10 inlet;
#X obj 203 305 outlet;
#X obj 213 34 route reset;
#X obj 492 118 loadbang;
#X obj 659 162 i \$1;
#X obj 654 98 bng 19 250 50 0 empty empty empty 0 -10 0 12 #fcfcfc #000000 #000000;
#X obj 517 306 outlet;
#X obj 210 247 expr abs(sin(($f2+$f1)*3.1415/100))*255;
#X obj 321 78 select 99;
#X obj 208 276 i;
#X connect 0 0 1 0;
#X connect 0 0 10 0;
#X connect 0 0 11 0;
#X connect 1 0 0 1;
#X connect 2 0 0 0;
#X connect 3 0 5 0;
#X connect 5 0 2 0;
#X connect 5 1 0 0;
#X connect 6 0 7 0;
#X connect 7 0 10 1;
#X connect 8 0 7 0;
#X connect 10 0 12 0;
#X connect 11 0 2 0;
#X connect 11 0 9 0;
#X connect 12 0 4 0;
