#N canvas 526 300 1085 660 12;
#N canvas 0 22 450 278 (subpatch) 0;
#X array array1 20 float 1;
#A 0 -1.21434 15.7858 40.0717 77.7148 114.144 143.287 159.073 172.43 179.716 185.787 185.787 183.358 177.287 162.715 151.787 128.715 104.429 55.8575 27.9287 -3.64291;
#A color 0;
#A width 1;
#X coords 0 255 19 0 300 210 1;
#X xticks 0 1 1;
#X yticks 0 1 10;
#X xlabel -1.075 0 1 2 3 4 5 6 7 8 9 10 11 12 13 14 15 16 17 18;
#X ylabel -0.1 -1 0 1;
#X restore 41 36 graph;
#X text 490 105 Point (0);
#X text 490 124 Polygon (1);
#X text 490 144 Bezier (2);
#X obj 177 411 tabread array1;
#X obj 180 464 nbx 5 17 -1e+37 1e+37 0 0 empty empty empty 0 -10 0 12 #fcfcfc #000000 #000000 0 256;
#X msg 462 177 \; array1 style 1;
#X obj 443 25 loadbang;
#X msg 453 278 \; array1 xticks 0 1 1;
#X msg 359 395 \; array1 xlabel -1.075 0 1 2 3 4 5 6 7 8 9 10 11 12 13 14 15 16 17 18;
#X msg 646 277 \; array1 yticks 0 1 10;
#X obj 80 284 tgl 19 0 empty empty empty 0 -10 0 12 #fcfcfc #000000 #000000 0 1;
#X obj 98 396 + 1;
#X obj 83 481 nbx 5 17 -1e+37 1e+37 0 0 empty empty empty 0 -10 0 12 #fcfcfc #000000 #000000 0 256;
#X obj 36 356 bng 19 250 50 0 empty empty empty 0 -10 0 12 #fcfcfc #000000 #000000;
#X msg 113 357 0;
#X obj 36 404 f 0;
#X obj 26 441 route 20;
#X obj 31 502 bng 19 250 50 0 empty empty empty 0 -10 0 12 #fcfcfc #000000 #000000;
#X obj 294 434 vsl 19 162 0 255 0 0 empty empty empty 0 -9 0 12 #fcfcfc #000000 #000000 0 1;
#X obj 62 319 metro 200;
#X connect 4 0 5 0;
#X connect 4 0 19 0;
#X connect 7 0 6 0;
#X connect 7 0 8 0;
#X connect 7 0 10 0;
#X connect 7 0 9 0;
#X connect 11 0 20 0;
#X connect 12 0 16 1;
#X connect 13 0 4 0;
#X connect 14 0 16 0;
#X connect 15 0 16 0;
#X connect 16 0 12 0;
#X connect 16 0 17 0;
#X connect 17 0 18 0;
#X connect 17 1 13 0;
#X connect 18 0 15 0;
#X connect 20 0 14 0;
