#N canvas 830 186 898 873 12;
#X obj 177 50 route stop reset start;
#X obj 245 15 inlet;
#X obj 182 345 outlet;
#X obj 185 284 tgl 19 0 empty empty empty 0 -10 0 12 #fcfcfc #000000 #000000 0 1;
#X msg 202 156 0;
#X msg 269 164 1;
#X msg 149 250 0;
#X obj 247 319 * 255;
#X obj 202 225 metro 6000;
#X connect 0 0 4 0;
#X connect 0 1 6 0;
#X connect 0 2 5 0;
#X connect 1 0 0 0;
#X connect 3 0 7 0;
#X connect 4 0 8 0;
#X connect 5 0 8 0;
#X connect 6 0 3 0;
#X connect 7 0 2 0;
#X connect 8 0 3 0;
