#N canvas 500 162 931 822 12;
#X obj 154 201 osc/packOSC;
#X obj 166 282 iemnet/udpsend 8010;
#X msg 291 236 connect 127.0.0.1 8010;
#X obj 374 19 tgl 19 0 empty empty empty 0 -10 0 12 #fcfcfc #000000 #000000 0 1;
#X obj 429 101 i 0;
#X obj 494 94 + 1;
#X obj 416 166 nbx 5 17 -1e+37 1e+37 0 0 empty empty empty 0 -10 0 12 #fcfcfc #000000 #000000 0 256;
#X msg 510 64 0;
#X obj 366 55 bng 19 250 50 0 empty empty empty 0 -10 0 12 #fcfcfc #000000 #000000;
#X obj 269 353 vsl 19 162 0 255 0 0 empty empty empty 0 -9 0 12 #ff0400 #000000 #000000 0 1;
#X obj 298 352 vsl 19 162 0 255 0 0 empty empty empty 0 -9 0 12 #00ff04 #000000 #000000 0 1;
#X obj 332 352 vsl 19 162 0 255 0 0 empty empty empty 0 -9 0 12 #0400ff #000000 #000000 0 1;
#X obj 343 528 nbx 3 17 -1e+37 1e+37 0 0 empty empty empty 0 -10 0 12 #fcfcfc #000000 #000000 0 256;
#X obj 298 527 nbx 3 17 -1e+37 1e+37 0 0 empty empty empty 0 -10 0 12 #fcfcfc #000000 #000000 0 256;
#X obj 252 529 nbx 3 17 -1e+37 1e+37 0 0 empty empty empty 0 -10 0 12 #fcfcfc #000000 #000000 0 256;
#X obj 254 615 pack f f f;
#X obj 284 569 t b f;
#X obj 336 576 t b f;
#X msg 61 443 send /all \$1 \$2 \$3;
#X obj 248 64 t f b;
#X obj 426 41 metro 40;
#X obj 607 107 vsl 19 162 40 1000 0 0 empty empty empty 0 -9 0 12 #fcfcfc #000000 #000000 0 1;
#X msg 101 83 send /all 0 0 0;
#X msg 193 171 send /pix \$1 0 127 0;
#X obj 489 462 tgl 19 0 empty empty empty 0 -10 0 12 #fcfcfc #000000 #000000 0 1;
#X obj 474 585 tgl 19 0 empty empty empty 0 -10 0 12 #fcfcfc #000000 #000000 0 1;
#X obj 447 616 sel 0 1;
#X obj 434 667 bng 19 250 50 0 empty empty empty 0 -10 0 12 #fcfcfc #000000 #000000;
#X obj 458 671 bng 19 250 50 0 empty empty empty 0 -10 0 12 #fcfcfc #000000 #000000;
#X msg 385 702 send /all 127 0 0;
#X msg 513 704 send /all 0 127 0;
#X obj 472 523 metro 200;
#X obj 472 138 sel 18;
#X msg 154 134 send /pix \$1 80 80 80;
#X obj 656 422 r testColor;
#X obj 649 602 r testColorReset;
#X obj 657 643 bng 19 250 50 0 empty empty empty 0 -10 0 12 #fcfcfc #000000 #000000;
#X obj 643 524 list prepend send /pix;
#X obj 645 556 list trim;
#X msg 133 49 send /update;
#X msg 26 14 send /all 30 30 30;
#X obj 706 304 r testColorUpdate;
#X obj 707 650 print reset;
#X obj 714 347 print update;
#X obj 745 565 print colors;
#X connect 0 0 1 0;
#X connect 2 0 1 0;
#X connect 3 0 20 0;
#X connect 4 0 5 0;
#X connect 4 0 6 0;
#X connect 4 0 32 0;
#X connect 5 0 4 1;
#X connect 6 0 19 0;
#X connect 7 0 4 0;
#X connect 8 0 4 0;
#X connect 9 0 14 0;
#X connect 10 0 13 0;
#X connect 11 0 12 0;
#X connect 12 0 17 0;
#X connect 13 0 16 0;
#X connect 14 0 15 0;
#X connect 15 0 18 0;
#X connect 16 0 15 0;
#X connect 16 1 15 1;
#X connect 17 0 15 0;
#X connect 17 1 15 2;
#X connect 18 0 0 0;
#X connect 19 0 33 0;
#X connect 19 1 22 0;
#X connect 20 0 4 0;
#X connect 21 0 20 1;
#X connect 22 0 0 0;
#X connect 23 0 0 0;
#X connect 24 0 31 0;
#X connect 25 0 26 0;
#X connect 26 0 27 0;
#X connect 26 1 28 0;
#X connect 27 0 29 0;
#X connect 28 0 30 0;
#X connect 29 0 0 0;
#X connect 30 0 0 0;
#X connect 31 0 25 0;
#X connect 32 0 7 0;
#X connect 33 0 0 0;
#X connect 34 0 37 0;
#X connect 35 0 42 0;
#X connect 35 0 36 0;
#X connect 36 0 22 0;
#X connect 37 0 38 0;
#X connect 38 0 0 0;
#X connect 38 0 44 0;
#X connect 39 0 0 0;
#X connect 40 0 0 0;
#X connect 41 0 39 0;
#X connect 41 0 43 0;
