#N canvas 127 250 1031 533 12;
#N canvas 1028 -520 450 371 config-searcher 0;
#X obj 81 60 inlet;
#X obj 239 243 text get configuration;
#X obj 118 217 route -1;
#X obj 73 273 symbol;
#X obj 50 132 bng 19 250 50 0 empty empty empty 0 -10 0 12 #fcfcfc #000000 #000000;
#X msg 154 64 symbol color-center;
#X obj 50 338 print config-search-error;
#X obj 260 302 outlet;
#X obj 102 130 text search configuration;
#X obj 109 99 symbol;
#X connect 0 0 9 0;
#X connect 1 0 7 0;
#X connect 2 0 3 0;
#X connect 2 1 1 0;
#X connect 3 0 6 0;
#X connect 4 0 3 0;
#X connect 8 0 2 0;
#X connect 9 0 8 0;
#X connect 9 0 3 1;
#X restore 368 208 pd config-searcher;
#X obj 440 26 loadbang;
#X obj 319 26 inlet;
#X obj 195 39 r config-query;
#X msg 53 66 color-center;
#X msg 63 97 color-off1;
#X msg 119 124 color-off3;
#X obj 745 334 s config-response;
#X obj 346 63 bng 19 250 50 0 empty empty empty 0 -10 0 12 #fcfcfc #000000 #000000;
#X obj 403 286 list trim;
#X obj 365 161 text define configuration;
#X msg 437 115 read prout.txt;
#X obj 647 42 symbol \$1;
#X msg 604 77 set read \$1;
#X obj 516 61 t b b;
#X connect 0 0 7 0;
#X connect 0 0 9 0;
#X connect 1 0 14 0;
#X connect 2 0 8 0;
#X connect 3 0 0 0;
#X connect 4 0 0 0;
#X connect 5 0 0 0;
#X connect 6 0 0 0;
#X connect 8 0 11 0;
#X connect 9 0 7 0;
#X connect 11 0 10 0;
#X connect 12 0 13 0;
#X connect 13 0 11 0;
#X connect 14 0 11 0;
#X connect 14 1 12 0;
