#N canvas 318 84 1311 976 12;
#X obj 91 789 osc/packOSC;
#X obj 89 891 iemnet/udpsend 8010;
#X msg 655 690 send /all 0 0 0;
#X obj 646 480 r testColor;
#X obj 649 602 r testColorReset;
#X obj 657 643 bng 19 250 50 0 empty empty empty 0 -10 0 12 #fcfcfc #000000 #000000;
#X obj 643 524 list prepend send /pix;
#X obj 645 556 list trim;
#X msg 492 199 send /update;
#X obj 625 763 r testColorUpdate;
#X msg 190 858 connect 192.168.1.182 8010;
#X msg 766 197 send /ping;
#X msg 395 199 send /clear;
#X obj 493 60 inlet;
#X obj 192 827 loadbang;
#X msg 593 196 send /all \$1 \$2 \$3;
#X msg 626 801 send /update;
#X msg 886 208 send /pix \$1 \$2 \$3 \$4;
#X obj 507 107 route clear update all ping;
#X connect 0 0 1 0;
#X connect 2 0 0 0;
#X connect 3 0 6 0;
#X connect 4 0 5 0;
#X connect 5 0 2 0;
#X connect 6 0 7 0;
#X connect 7 0 0 0;
#X connect 8 0 0 0;
#X connect 9 0 16 0;
#X connect 10 0 1 0;
#X connect 11 0 0 0;
#X connect 12 0 0 0;
#X connect 13 0 18 0;
#X connect 14 0 10 0;
#X connect 15 0 0 0;
#X connect 16 0 0 0;
#X connect 17 0 0 0;
#X connect 18 0 12 0;
#X connect 18 1 8 0;
#X connect 18 2 15 0;
#X connect 18 3 11 0;
#X connect 18 4 17 0;
