#N canvas 125 -908 1405 919 12;
#X obj 585 336 expr $f2*(1-($f1))+$f3*($f1);
#X obj 368 550 i;
#X obj 845 349 expr $f2*(1-($f1))+$f3*($f1);
#X obj 1078 351 expr $f2*(1-($f1))+$f3*($f1);
#X obj 804 455 i;
#X obj 977 426 i;
#X obj 212 262 t f f f;
#X obj 652 418 * 1;
#X obj 766 427 * 1;
#X obj 1057 397 * 1;
#X obj 190 49 i 0;
#X obj 234 39 + 1;
#X obj 25 174 bng 19 250 50 0 empty empty empty 0 -10 0 12 #fcfcfc #000000 #000000;
#X msg 201 3 0;
#X obj 349 77 /;
#X obj 421 126 nbx 5 17 -1e+37 1e+37 0 0 empty empty empty 0 -10 0 12 #fcfcfc #000000 #000000 0 256;
#X obj 271 185 *;
#X obj 204 628 pack \$1 \$2 \$3 \$4;
#X obj 95 263 tgl 19 0 empty empty empty 0 -10 0 12 #fcfcfc #000000 #000000 0 1;
#X obj 23 110 spigot 1;
#X obj 168 177 nbx 5 17 -1e+37 1e+37 0 0 empty empty empty 0 -10 0 12 #fcfcfc #000000 #000000 0 256;
#X obj 102 144 < 11;
#X msg 111 60 1;
#X obj 201 98 t f f b;
#X obj 29 34 bng 19 250 50 0 empty empty empty 0 -10 0 12 #fcfcfc #000000 #000000;
#X obj 80 -128 t b b;
#X obj 80 -167 bng 19 250 50 0 empty empty empty 0 -10 0 12 #fcfcfc #000000 #000000;
#X obj 328 -265 inlet;
#X obj 476 716 outlet;
#X msg 350 51 1 \$1;
#X obj 306 -238 t b l;
#X obj 457 19 - 1;
#X obj 242 526 mod 24;
#X obj 653 -174 unpack f f f f f f f f;
#X obj 906 -158 loadbang;
#X obj 926 -103 f \$1;
#X obj 942 -66 route 0;
#X obj 232 -268 nbx 5 17 -1e+37 1e+37 0 0 empty empty empty 0 -10 0 12 #fcfcfc #000000 #000000 0 256;
#X obj 263 354 i;
#X text 296 355 offset;
#X obj 142 432 +;
#X obj 149 329 t b f;
#X obj 127 372 * 1;
#X text 996 -99 direction;
#X obj 1113 -161 loadbang;
#X text 1185 -104 offset;
#X obj 1133 -106 f \$2;
#X obj 225 477 + 0;
#X text 405 -247 format Inlet R0 G0 B0 R1 G1 B1 led_center_idx etalement;
#X text 545 722 format Outlet list (size=etalement) led_idx R G B;
#X connect 0 0 7 0;
#X connect 1 0 17 1;
#X connect 2 0 8 0;
#X connect 3 0 9 0;
#X connect 4 0 17 2;
#X connect 5 0 17 3;
#X connect 6 0 0 0;
#X connect 6 1 2 0;
#X connect 6 2 3 0;
#X connect 7 0 1 0;
#X connect 8 0 4 0;
#X connect 9 0 5 0;
#X connect 10 0 11 0;
#X connect 10 0 20 0;
#X connect 10 0 21 0;
#X connect 10 0 23 0;
#X connect 11 0 10 1;
#X connect 12 0 10 0;
#X connect 13 0 10 1;
#X connect 13 0 22 0;
#X connect 14 0 15 0;
#X connect 14 0 16 1;
#X connect 16 0 6 0;
#X connect 17 0 28 0;
#X connect 18 0 19 1;
#X connect 19 0 12 0;
#X connect 21 0 18 0;
#X connect 22 0 19 1;
#X connect 23 0 41 0;
#X connect 23 1 16 0;
#X connect 23 2 19 0;
#X connect 24 0 19 0;
#X connect 25 0 13 0;
#X connect 25 1 24 0;
#X connect 26 0 25 0;
#X connect 27 0 30 0;
#X connect 29 0 14 0;
#X connect 30 0 26 0;
#X connect 30 1 33 0;
#X connect 31 0 21 1;
#X connect 31 0 29 0;
#X connect 32 0 17 0;
#X connect 33 0 0 1;
#X connect 33 1 2 1;
#X connect 33 2 3 1;
#X connect 33 3 0 2;
#X connect 33 4 2 2;
#X connect 33 5 3 2;
#X connect 33 6 31 0;
#X connect 33 7 38 1;
#X connect 34 0 35 0;
#X connect 35 0 36 0;
#X connect 36 1 42 1;
#X connect 37 0 30 0;
#X connect 38 0 40 0;
#X connect 40 0 47 0;
#X connect 41 0 38 0;
#X connect 41 1 42 0;
#X connect 42 0 40 1;
#X connect 44 0 46 0;
#X connect 46 0 47 1;
#X connect 47 0 32 0;
