#N canvas 733 329 1034 758 12;
#X obj 246 76 config;
#X obj 235 51 bng 19 250 50 0 empty empty empty 0 -10 0 12 #fcfcfc #000000 #000000;
#X text 264 47 reload config;
#N canvas 92 131 1105 643 led-control 0;
#X obj 28 370 display;
#X msg 29 325 clear;
#X msg 244 333 update;
#X msg 111 327 all 20 20 40;
#X msg 330 337 ping;
#X msg 408 339 1 50 40 0;
#X obj 550 89 vsl 19 162 0 255 0 0 empty empty empty 0 -9 0 12 #ff0400 #000000 #000000 0 1;
#X obj 579 88 vsl 19 162 0 255 0 0 empty empty empty 0 -9 0 12 #00ff04 #000000 #000000 0 1;
#X obj 613 88 vsl 19 162 0 255 0 0 empty empty empty 0 -9 0 12 #0400ff #000000 #000000 0 1;
#X obj 624 264 nbx 3 17 -1e+37 1e+37 0 0 empty empty empty 0 -10 0 12 #fcfcfc #000000 #000000 0 256;
#X obj 579 263 nbx 3 17 -1e+37 1e+37 0 0 empty empty empty 0 -10 0 12 #fcfcfc #000000 #000000 0 256;
#X obj 533 265 nbx 3 17 -1e+37 1e+37 0 0 empty empty empty 0 -10 0 12 #fcfcfc #000000 #000000 0 256;
#X obj 535 351 pack f f f;
#X obj 565 305 t b f;
#X obj 617 312 t b f;
#X msg 513 429 all \$1 \$2 \$3;
#X obj 533 398 t b l;
#X connect 1 0 0 0;
#X connect 2 0 0 0;
#X connect 3 0 0 0;
#X connect 4 0 0 0;
#X connect 5 0 0 0;
#X connect 6 0 11 0;
#X connect 7 0 10 0;
#X connect 8 0 9 0;
#X connect 9 0 14 0;
#X connect 10 0 13 0;
#X connect 11 0 12 0;
#X connect 12 0 16 0;
#X connect 13 0 12 0;
#X connect 13 1 12 1;
#X connect 14 0 12 0;
#X connect 14 1 12 2;
#X connect 15 0 0 0;
#X connect 16 0 2 0;
#X connect 16 1 15 0;
#X restore 299 154 pd led-control;
#X obj 307 257 state_control;
#X obj 297 352 sequencer;
#X obj 281 525 s testColor;
#X obj 398 526 s testColorUpdate;
#X obj 548 530 s testColorReset;
#X text 543 503 clear screen;
#X text 395 503 Update leds signal;
#X obj 306 407 visualize;
#X obj 573 193 i 0;
#X obj 618 178 + 1;
#X obj 573 162 bng 19 250 50 0 empty empty empty 0 -10 0 12 #fcfcfc #000000 #000000;
#X msg 642 208 0;
#X obj 573 98 tgl 19 0 empty empty empty 0 -10 0 12 #fcfcfc #000000 #000000 0 1;
#X obj 665 208 sel 12;
#X text 613 94 soleil;
#X obj 573 133 metro 1000;
#X obj 582 284 nbx 5 17 -1e+37 1e+37 0 0 empty empty empty 0 -10 0 12 #fcfcfc #000000 #000000 0 256;
#X obj 802 203 vsl 19 162 0 1 0 0 empty empty coeff\ étalement\ tache 0 -9 0 12 #fcfcfc #000000 #000000 0 1;
#X obj 462 225 loadbang;
#X msg 471 271 9;
#X connect 1 0 0 0;
#X connect 5 0 7 0;
#X connect 5 1 8 0;
#X connect 5 1 11 1;
#X connect 5 2 6 0;
#X connect 5 2 11 0;
#X connect 12 0 13 0;
#X connect 12 0 17 0;
#X connect 12 0 20 0;
#X connect 13 0 12 1;
#X connect 14 0 12 0;
#X connect 15 0 12 0;
#X connect 16 0 19 0;
#X connect 17 0 15 0;
#X connect 19 0 14 0;
#X connect 20 0 5 0;
#X connect 21 0 5 1;
#X connect 22 0 23 0;
#X connect 23 0 20 0;
