#N canvas 122 160 1048 642 12;
#X obj 61 89 inlet;
#X obj 352 94 inlet;
#X text 108 97 bang to output pulse params;
#X text 404 89 params;
#X obj 205 1084 outlet;
#X obj 290 535 pack f f;
#X obj 260 446 nbx 5 17 0 12 0 0 empty empty Etalement 0 -10 0 12 #fcfcfc #000000 #000000 0 256;
#X obj 290 503 t b f;
#X obj 391 451 nbx 5 17 -1e+37 1e+37 0 0 empty empty Position\ LED 0 -10 0 12 #fcfcfc #000000 #000000 0 256;
#X obj 399 334 nbx 5 17 -1e+37 1e+37 0 0 empty empty empty 0 -10 0 12 #fcfcfc #000000 #000000 0 256;
#X obj 398 360 * 2;
#X obj 389 392 i;
#X obj 255 280 * 12;
#X obj 255 312 i;
#X obj 290 313 nbx 5 17 -1e+37 1e+37 0 0 empty empty empty 0 -10 0 12 #fcfcfc #000000 #000000 0 256;
#X msg 392 233 \$1;
#X obj 400 305 change;
#X msg 567 900 255 255 255 246 227 117 \$1 \$2;
#X msg 223 900 145 172 178 251 253 251 \$1 \$2;
#X text 457 899 9h AM;
#X text 797 899 midi;
#X obj 317 647 tgl 19 0 empty empty empty 0 -10 0 12 #fcfcfc #000000 #000000 0 1;
#X obj 372 647 tgl 19 0 empty empty empty 0 -10 0 12 #fcfcfc #000000 #000000 0 1;
#X obj 414 647 tgl 19 0 empty empty empty 0 -10 0 12 #fcfcfc #000000 #000000 0 1;
#X obj 317 615 == 1;
#X obj 372 615 == 2;
#X obj 414 615 == 3;
#X obj 287 716 spigot 0;
#X obj 357 716 spigot 0;
#X obj 430 716 spigot 0;
#X obj 456 559 nbx 5 17 -1e+37 1e+37 0 0 empty empty empty 0 -10 0 12 #fcfcfc #000000 #000000 0 256;
#X obj 229 652 tgl 19 0 empty empty empty 0 -10 0 12 #fcfcfc #000000 #000000 0 1;
#X obj 199 721 spigot 0;
#X obj 229 620 == 0;
#X text 333 979 clear;
#X msg 99 980 0 0 0 0 0 0 \$1 \$2;
#X obj 364 199 route /luminosity /clock;
#X obj 515 500 loadbang;
#X msg 553 538 2;
#X connect 0 0 11 0;
#X connect 1 0 36 0;
#X connect 5 0 27 0;
#X connect 5 0 28 0;
#X connect 5 0 29 0;
#X connect 5 0 32 0;
#X connect 6 0 5 0;
#X connect 7 0 5 0;
#X connect 7 1 5 1;
#X connect 8 0 7 0;
#X connect 9 0 10 0;
#X connect 10 0 11 1;
#X connect 11 0 8 0;
#X connect 12 0 13 0;
#X connect 13 0 14 0;
#X connect 13 0 6 0;
#X connect 15 0 16 0;
#X connect 16 0 9 0;
#X connect 17 0 4 0;
#X connect 18 0 4 0;
#X connect 21 0 27 1;
#X connect 22 0 28 1;
#X connect 23 0 29 1;
#X connect 24 0 21 0;
#X connect 25 0 22 0;
#X connect 26 0 23 0;
#X connect 27 0 18 0;
#X connect 28 0 17 0;
#X connect 30 0 24 0;
#X connect 30 0 25 0;
#X connect 30 0 26 0;
#X connect 30 0 33 0;
#X connect 31 0 32 1;
#X connect 32 0 35 0;
#X connect 33 0 31 0;
#X connect 35 0 4 0;
#X connect 36 0 12 0;
#X connect 36 1 15 0;
#X connect 37 0 38 0;
#X connect 38 0 30 0;
