#N canvas 591 204 1106 884 12;
#X obj 149 109 config-query sunrise-color-grad;
#X obj 150 39 bng 19 250 50 0 empty empty empty 0 -10 0 12 #fcfcfc #000000 #000000;
#X obj 385 110 config-query noon-color-grad;
#X obj 596 110 config-query sunset-color-grad;
#X obj 176 220 unpack f f f f f f;
#X obj 157 434 nbx 5 17 -1e+37 1e+37 0 0 empty empty empty 0 -10 0 12 #fcfcfc #000000 #000000 0 256;
#X obj 91 254 bng 19 250 50 0 empty empty empty 0 -10 0 12 #fcfcfc #000000 #000000;
#X obj 434 428 nbx 5 17 -1e+37 1e+37 0 0 empty empty empty 0 -10 0 12 #fcfcfc #000000 #000000 0 256;
#X obj 507 434 nbx 5 17 -1e+37 1e+37 0 0 empty empty empty 0 -10 0 12 #fcfcfc #000000 #000000 0 256;
#X obj 604 434 nbx 5 17 -1e+37 1e+37 0 0 empty empty empty 0 -10 0 12 #fcfcfc #000000 #000000 0 256;
#X obj 686 433 nbx 5 17 -1e+37 1e+37 0 0 empty empty empty 0 -10 0 12 #fcfcfc #000000 #000000 0 256;
#X obj 774 434 nbx 5 17 -1e+37 1e+37 0 0 empty empty empty 0 -10 0 12 #fcfcfc #000000 #000000 0 256;
#X obj 371 38 bng 19 250 50 0 empty empty empty 0 -10 0 12 #fcfcfc #000000 #000000;
#X obj 175 319 i 0;
#X obj 402 319 i 0;
#X obj 449 319 i 0;
#X obj 530 319 i 0;
#X obj 563 319 i 0;
#X obj 600 319 i 0;
#X obj 140 720 lerp;
#X obj 129 777 nbx 5 17 -1e+37 1e+37 0 0 empty empty empty 0 -10 0 12 #fcfcfc #000000 #000000 0 256;
#X obj 73 644 nbx 5 17 0 1 0 0 empty empty empty 0 -10 0 12 #fcfcfc #000000 #000000 0 256;
#X msg 200 683 100;
#X msg 154 682 0;
#N canvas 556 375 975 598 hour-selector 0;
#X obj 311 52 nbx 5 17 -1e+37 1e+37 0 0 empty empty empty 0 -10 0 12 #fcfcfc #000000 #000000 0 256;
#X obj 247 276 tgl 19 0 empty empty sunrise 0 -10 0 12 #fcfcfc #000000 #000000 0 1;
#X obj 241 199 >= 9;
#X obj 331 202 >= 11;
#X obj 386 199 <= 13;
#X obj 353 230 &&;
#X obj 351 278 tgl 19 0 empty empty noon 0 -10 0 12 #fcfcfc #000000 #000000 0 1;
#X obj 444 198 > 13;
#X obj 447 281 tgl 19 0 empty empty sunset 0 -10 0 12 #fcfcfc #000000 #000000 0 1;
#X obj 277 199 < 11;
#X obj 266 234 &&;
#X obj 356 123 t f f;
#X obj 489 204 <= 17;
#X obj 451 240 &&;
#X obj 237 324 spigot 0;
#X obj 330 331 spigot 0;
#X obj 413 333 spigot 0;
#X obj 312 83 t f f, f 6;
#X obj 333 368 - 11;
#X obj 335 393 / 2;
#X obj 414 365 - 13;
#X obj 416 395 / 4;
#X obj 218 356 - 9;
#X obj 222 398 / 2;
#X obj 177 437 print sunrise-noon;
#X obj 337 438 print noon;
#X obj 463 427 print noon-sunset;
#X obj 104 275 tgl 19 0 empty empty pre-sunrise 0 -10 0 12 #fcfcfc #000000 #000000 0 1;
#X obj 123 233 &&;
#X obj 94 323 spigot 0;
#X obj 79 397 / 2;
#X obj 146 203 < 9;
#X obj 98 198 >= 7;
#X obj 34 436 print night-sunrise;
#X obj 75 355 - 7;
#X obj 527 384 print sunset-night;
#X obj 612 262 tgl 19 0 empty empty post-sunset 0 -10 0 12 #fcfcfc #000000 #000000 0 1;
#X obj 608 220 &&;
#X obj 579 310 spigot 0;
#X obj 583 185 > 17;
#X obj 631 190 < 19;
#X obj 723 194 >= 19;
#X obj 784 195 < 7;
#X obj 752 231 ||;
#X obj 752 266 tgl 19 0 empty empty night 0 -10 0 12 #fcfcfc #000000 #000000 0 1;
#X obj 694 318 spigot 0;
#X obj 700 381 print night;
#X obj 312 19 inlet;
#X obj 174 552 outlet;
#X msg 171 500 1 2 \$1 sunrise-noon;
#X msg 316 550 2 2 \$1 noon;
#X msg 383 508 2 3 \$1 noon-sunset;
#X msg 474 537 3 0 \$1 sunset-night;
#X msg 569 497 0 0 \$1 night;
#X msg 23 517 0 1 \$1 night-sunrise;
#X connect 0 0 17 0;
#X connect 1 0 14 1;
#X connect 2 0 10 0;
#X connect 3 0 5 0;
#X connect 4 0 5 1;
#X connect 5 0 6 0;
#X connect 6 0 15 1;
#X connect 7 0 13 0;
#X connect 8 0 16 1;
#X connect 9 0 10 1;
#X connect 10 0 1 0;
#X connect 11 0 2 0;
#X connect 11 0 3 0;
#X connect 11 0 7 0;
#X connect 11 0 32 0;
#X connect 11 0 39 0;
#X connect 11 0 41 0;
#X connect 11 1 9 0;
#X connect 11 1 4 0;
#X connect 11 1 12 0;
#X connect 11 1 31 0;
#X connect 11 1 40 0;
#X connect 11 1 42 0;
#X connect 12 0 13 1;
#X connect 13 0 8 0;
#X connect 14 0 22 0;
#X connect 15 0 18 0;
#X connect 16 0 20 0;
#X connect 17 0 14 0;
#X connect 17 0 15 0;
#X connect 17 0 16 0;
#X connect 17 0 29 0;
#X connect 17 0 38 0;
#X connect 17 0 45 0;
#X connect 17 1 11 0;
#X connect 18 0 19 0;
#X connect 19 0 50 0;
#X connect 20 0 21 0;
#X connect 21 0 51 0;
#X connect 22 0 23 0;
#X connect 23 0 49 0;
#X connect 27 0 29 1;
#X connect 28 0 27 0;
#X connect 29 0 34 0;
#X connect 30 0 54 0;
#X connect 31 0 28 1;
#X connect 32 0 28 0;
#X connect 34 0 30 0;
#X connect 36 0 38 1;
#X connect 37 0 36 0;
#X connect 38 0 52 0;
#X connect 39 0 37 0;
#X connect 40 0 37 1;
#X connect 41 0 43 0;
#X connect 42 0 43 1;
#X connect 43 0 44 0;
#X connect 44 0 45 1;
#X connect 45 0 53 0;
#X connect 47 0 0 0;
#X connect 49 0 48 0;
#X connect 50 0 48 0;
#X connect 51 0 48 0;
#X connect 52 0 48 0;
#X connect 53 0 48 0;
#X connect 54 0 48 0;
#X restore 601 570 pd hour-selector;
#X obj 586 513 nbx 5 17 -1e+37 1e+37 0 0 empty empty empty 0 -10 0 12 #fcfcfc #000000 #000000 0 256;
#X obj 580 661 print hour-selector;
#X obj 605 34 bng 19 250 50 0 empty empty empty 0 -10 0 12 #fcfcfc #000000 #000000;
#X msg 171 644 100;
#X msg 218 652 200;
#X obj 108 580 bng 19 250 50 0 empty empty empty 0 -10 0 12 #fcfcfc #000000 #000000;
#X obj 136 815 print OUT;
#X connect 0 0 4 0;
#X connect 1 0 0 0;
#X connect 2 0 4 0;
#X connect 4 0 13 1;
#X connect 4 1 14 1;
#X connect 4 2 15 1;
#X connect 4 3 16 1;
#X connect 4 4 17 1;
#X connect 4 5 18 1;
#X connect 6 0 13 0;
#X connect 6 0 14 0;
#X connect 6 0 15 0;
#X connect 6 0 16 0;
#X connect 6 0 17 0;
#X connect 6 0 18 0;
#X connect 12 0 2 0;
#X connect 13 0 5 0;
#X connect 14 0 7 0;
#X connect 15 0 8 0;
#X connect 16 0 9 0;
#X connect 17 0 10 0;
#X connect 18 0 11 0;
#X connect 19 0 20 0;
#X connect 20 0 31 0;
#X connect 21 0 19 0;
#X connect 22 0 19 2;
#X connect 23 0 19 1;
#X connect 24 0 26 0;
#X connect 25 0 24 0;
#X connect 27 0 3 0;
#X connect 28 0 19 1;
#X connect 29 0 19 2;
#X connect 30 0 19 0;
