#N canvas 1137 191 624 549 12;
#X obj 95 371 s max-bright-start-seq;
#X text 177 316 valeur max de lumière lors de la séquence de démarrage des mendocinos, f 34;
#X obj 122 201 config-query max-bright-start-seq;
#X obj 94 157 loadbang;
#X obj 101 81 inlet;
#X connect 2 0 0 0;
#X connect 3 0 2 0;
#X connect 4 0 2 0;
