#N canvas 523 39 1024 1047 12;
#X obj 696 543 nbx 5 17 -1e+37 1e+37 0 0 empty empty empty 0 -10 0 12 #fcfcfc #000000 #000000 0 256;
#X obj 158 383 + 1;
#X obj 129 383 - 1;
#X obj 128 417 mod 12;
#X obj 286 401 mod 12;
#X obj 737 399 i 0;
#X obj 782 384 + 1;
#X obj 737 368 bng 19 250 50 0 empty empty empty 0 -10 0 12 #fcfcfc #000000 #000000;
#X obj 737 445 nbx 5 17 -1e+37 1e+37 0 0 empty empty empty 0 -10 0 12 #fcfcfc #000000 #000000 0 256;
#X msg 806 414 0;
#X obj 737 304 tgl 19 0 empty empty empty 0 -10 0 12 #fcfcfc #000000 #000000 0 1;
#X obj 829 414 sel 12;
#X obj 286 444 * 2;
#X obj 287 475 + 1;
#X obj 165 503 * 2;
#X obj 167 533 + 1;
#X text 777 300 soleil;
#X text 259 608 couleur centrale;
#X text 98 607 couleur 1er côté;
#X obj 433 430 mod 12;
#X obj 432 393 + 2;
#X obj 442 500 * 2;
#X obj 443 531 + 1;
#X text 420 610 couleur 2eme côté;
#X obj 400 388 - 2;
#X msg 256 577 \$1 250 243 243;
#X msg 118 582 \$1 246 233 186;
#X msg 421 583 \$1 243 224 125;
#X obj 227 103 config-query color-center;
#X obj 420 101 config-query color-off2;
#X obj 399 13 loadbang;
#X obj 227 134 set-color-msg;
#X obj 417 134 set-color-msg;
#X obj 594 131 set-color-msg;
#X obj 597 98 config-query color-off1;
#X obj 826 578 bng 19 250 50 0 empty empty empty 0 -10 0 12 #fcfcfc #000000 #000000;
#X obj 738 481 t b f b;
#X obj 670 580 bng 19 250 50 0 empty empty empty 0 -10 0 12 #fcfcfc #000000 #000000;
#X obj 737 339 metro 1000;
#X obj 402 50 bng 19 250 50 0 empty empty empty 0 -10 0 12 #fcfcfc #000000 #000000;
#X obj 414 764 outlet;
#X obj 526 766 outlet;
#X obj 608 764 outlet;
#X text 630 737 clear screen;
#X text 490 730 update signal;
#X connect 0 0 2 0;
#X connect 0 0 1 0;
#X connect 0 0 4 0;
#X connect 0 0 20 0;
#X connect 0 0 24 0;
#X connect 1 0 3 0;
#X connect 2 0 3 0;
#X connect 3 0 14 0;
#X connect 4 0 12 0;
#X connect 5 0 6 0;
#X connect 5 0 8 0;
#X connect 5 0 11 0;
#X connect 6 0 5 1;
#X connect 7 0 5 0;
#X connect 8 0 36 0;
#X connect 9 0 5 0;
#X connect 10 0 38 0;
#X connect 11 0 9 0;
#X connect 12 0 13 0;
#X connect 12 0 25 0;
#X connect 13 0 25 0;
#X connect 14 0 15 0;
#X connect 14 0 26 0;
#X connect 15 0 26 0;
#X connect 19 0 21 0;
#X connect 20 0 19 0;
#X connect 21 0 22 0;
#X connect 21 0 27 0;
#X connect 22 0 27 0;
#X connect 24 0 19 0;
#X connect 25 0 40 0;
#X connect 26 0 40 0;
#X connect 27 0 40 0;
#X connect 28 0 31 0;
#X connect 29 0 32 0;
#X connect 30 0 39 0;
#X connect 31 0 25 0;
#X connect 32 0 27 0;
#X connect 33 0 26 0;
#X connect 34 0 33 0;
#X connect 35 0 42 0;
#X connect 36 0 37 0;
#X connect 36 1 0 0;
#X connect 36 2 35 0;
#X connect 37 0 41 0;
#X connect 38 0 7 0;
#X connect 39 0 28 0;
#X connect 39 0 29 0;
#X connect 39 0 34 0;
