#N canvas 717 306 632 452 12;
#X obj 68 43 inlet;
#X obj 142 119 i 0;
#X obj 93 179 == 0;
#X obj 67 233 spigot;
#X obj 123 206 tgl 19 0 empty empty empty 0 -10 0 12 #fcfcfc #000000 #000000 0 1;
#X obj 216 233 spigot;
#X obj 272 206 tgl 19 0 empty empty empty 0 -10 0 12 #fcfcfc #000000 #000000 0 1;
#X obj 242 179 == 1;
#X obj 178 119 nbx 5 17 -1e+37 1e+37 0 0 empty empty empty 0 -10 0 12 #fcfcfc #000000 #000000 0 256;
#X obj 141 43 inlet;
#X obj 67 316 outlet;
#X obj 282 43 inlet;
#X text 140 15 pulse-meteo;
#X text 271 17 hour anim;
#X text 58 18 state;
#X obj 324 151 print set-anim-state;
#X connect 0 0 1 0;
#X connect 1 0 8 0;
#X connect 1 0 7 0;
#X connect 1 0 2 0;
#X connect 1 0 15 0;
#X connect 2 0 4 0;
#X connect 2 0 3 1;
#X connect 3 0 10 0;
#X connect 5 0 10 0;
#X connect 7 0 6 0;
#X connect 7 0 5 1;
#X connect 9 0 3 0;
#X connect 11 0 5 0;
