#N canvas 1007 -885 450 300 12;
#X obj 47 177 s config-query;
#X msg 42 150 ;
#X obj 256 107 r config-response;
#X obj 37 13 inlet, f 11;
#X obj 172 31 loadbang;
#X obj 34 70 bng 19 250 50 0 empty empty empty 0 -10 0 12 #fcfcfc #000000 #000000;
#X obj 173 89 symbol \$1;
#X msg 130 124 set \$1;
#X obj 308 243 outlet;
#X obj 188 56 bng 19 250 50 0 empty empty empty 0 -10 0 12 #fcfcfc #000000 #000000;
#X symbolatom 295 38 18 0 0 0 - - - 0;
#X obj 259 183 route s;
#X obj 149 6 r reload-config;
#X connect 1 0 0 0;
#X connect 2 0 11 0;
#X connect 3 0 5 0;
#X connect 4 0 6 0;
#X connect 5 0 1 0;
#X connect 6 0 7 0;
#X connect 6 0 10 0;
#X connect 7 0 1 0;
#X connect 9 0 6 0;
#X connect 10 0 11 1;
#X connect 11 0 8 0;
#X connect 12 0 5 0;
