#N canvas 626 503 564 512 12;
#X obj 68 243 packOSC;
#X obj 76 329 udpsend;
#X msg 183 271 connect 127.0.0.1 5005;
#X obj 183 240 loadbang;
#X obj 264 85 tgl 19 0 empty empty empty 0 -10 0 12 #fcfcfc #000000 #000000 0 1;
#X msg 261 109 send /mire \$1;
#X msg 68 23 send /mapping 0 1;
#X msg 277 19 send /save_mapping panels_conf2.json;
#X msg 294 45 send /load_mapping panels_conf.json;
#X obj 307 154 tgl 19 0 empty empty empty 0 -10 0 12 #fcfcfc #000000 #000000 0 1;
#X msg 304 178 send /pause \$1;
#X connect 0 0 1 0;
#X connect 2 0 1 0;
#X connect 3 0 2 0;
#X connect 4 0 5 0;
#X connect 5 0 0 0;
#X connect 6 0 0 0;
#X connect 7 0 0 0;
#X connect 8 0 0 0;
#X connect 9 0 10 0;
#X connect 10 0 0 0;
