#N canvas 391 213 1215 874 12;
#X obj 213 193 print status;
#X msg 292 104 close;
#N canvas 457 363 1078 518 parse_input 0;
#X obj 88 62 inlet;
#X obj 113 335 fudiparse;
#X obj 112 158 select 10 13;
#X obj 113 244 t b b;
#X obj 114 291 list;
#X obj 208 212 list prepend;
#X obj 214 266 s enqueue;
#X obj 303 166 r enqueue;
#X obj 41 422 outlet;
#X connect 0 0 2 0;
#X connect 1 0 8 0;
#X connect 2 0 3 0;
#X connect 2 2 5 0;
#X connect 3 0 4 0;
#X connect 3 1 6 0;
#X connect 4 0 1 0;
#X connect 5 0 6 0;
#X connect 5 0 4 1;
#X connect 7 0 5 1;
#X restore 83 193 pd parse_input;
#X msg 134 29 devices;
#X msg 242 35 devices;
#X msg 246 69 open 3;
#X obj 456 215 led-addr 0;
#X obj 445 11 vsl 19 162 0 255 0 0 empty empty empty 0 -9 0 12 #fcfcfc #000000 #000000 0 1;
#X obj 484 15 vsl 19 162 0 255 0 0 empty empty empty 0 -9 0 12 #fcfcfc #000000 #000000 0 1;
#X obj 541 13 vsl 19 162 0 255 0 0 empty empty empty 0 -9 0 12 #fcfcfc #000000 #000000 0 1;
#X obj 623 17 vsl 19 162 0 255 0 0 empty empty empty 0 -9 0 12 #fcfcfc #000000 #000000 0 1;
#X obj 662 21 vsl 19 162 0 255 0 0 empty empty empty 0 -9 0 12 #fcfcfc #000000 #000000 0 1;
#X obj 719 19 vsl 19 162 0 255 0 0 empty empty empty 0 -9 0 12 #fcfcfc #000000 #000000 0 1;
#X obj 634 221 led-addr 1;
#X obj 105 102 comport 2 19200;
#X obj 775 14 vsl 19 162 0 255 0 0 empty empty empty 0 -9 0 12 #fcfcfc #000000 #000000 0 1;
#X obj 814 18 vsl 19 162 0 255 0 0 empty empty empty 0 -9 0 12 #fcfcfc #000000 #000000 0 1;
#X obj 871 16 vsl 19 162 0 255 0 0 empty empty empty 0 -9 0 12 #fcfcfc #000000 #000000 0 1;
#X obj 960 18 vsl 19 162 0 255 0 0 empty empty empty 0 -9 0 12 #fcfcfc #000000 #000000 0 1;
#X obj 999 22 vsl 19 162 0 255 0 0 empty empty empty 0 -9 0 12 #fcfcfc #000000 #000000 0 1;
#X obj 1056 20 vsl 19 162 0 255 0 0 empty empty empty 0 -9 0 12 #fcfcfc #000000 #000000 0 1;
#X obj 786 218 led-addr 2;
#X obj 971 222 led-addr 3;
#X msg 592 -88 0;
#X obj 716 -213 vsl 19 162 0 255 0 0 empty empty empty 0 -9 0 12 #fcfcfc #000000 #000000 0 1;
#X obj 281 -68 loadbang;
#X obj 142 226 print;
#X obj 461 -222 inlet;
#X obj 232 276 outlet;
#X connect 1 0 14 0;
#X connect 2 0 28 0;
#X connect 3 0 14 0;
#X connect 4 0 14 0;
#X connect 5 0 14 0;
#X connect 6 0 14 0;
#X connect 7 0 6 0;
#X connect 8 0 6 1;
#X connect 9 0 6 2;
#X connect 10 0 13 0;
#X connect 11 0 13 1;
#X connect 12 0 13 2;
#X connect 13 0 14 0;
#X connect 14 0 2 0;
#X connect 14 1 0 0;
#X connect 15 0 21 0;
#X connect 16 0 21 1;
#X connect 17 0 21 2;
#X connect 18 0 22 0;
#X connect 19 0 22 1;
#X connect 20 0 22 2;
#X connect 21 0 14 0;
#X connect 22 0 14 0;
#X connect 23 0 6 3;
#X connect 23 0 13 3;
#X connect 23 0 21 3;
#X connect 23 0 22 3;
#X connect 24 0 6 3;
#X connect 24 0 13 3;
#X connect 24 0 21 3;
#X connect 24 0 22 3;
#X connect 25 0 5 0;
#X connect 27 0 24 0;
