#N canvas 626 503 564 512 12;
#X obj 68 78 packOSC;
#X obj 76 164 udpsend;
#X msg 183 106 connect 127.0.0.1 5005;
#X obj 183 75 loadbang;
#X msg 68 23 send /mapping 1 2;
#X msg 201 24 send /save;
#X connect 0 0 1 0;
#X connect 2 0 1 0;
#X connect 3 0 2 0;
#X connect 4 0 0 0;
#X connect 5 0 1 0;
