#N canvas 160 171 1015 600 12;
#X obj 213 193 print status;
#X msg 292 104 close;
#N canvas 457 363 1078 518 parse_input 0;
#X obj 88 62 inlet;
#X obj 113 335 fudiparse;
#X obj 112 158 select 10 13;
#X obj 113 244 t b b;
#X obj 114 291 list;
#X obj 208 212 list prepend;
#X obj 214 266 s enqueue;
#X obj 303 166 r enqueue;
#X obj 41 422 outlet;
#X connect 0 0 2 0;
#X connect 1 0 8 0;
#X connect 2 0 3 0;
#X connect 2 2 5 0;
#X connect 3 0 4 0;
#X connect 3 1 6 0;
#X connect 4 0 1 0;
#X connect 5 0 6 0;
#X connect 5 0 4 1;
#X connect 7 0 5 1;
#X restore 83 193 pd parse_input;
#X msg 134 29 devices;
#X msg 242 35 devices;
#X msg 246 69 open 3;
#X obj 105 102 comport 2 9600;
#X obj 77 253 unpack f f f;
#X obj 159 296 nbx 5 17 -1e+37 1e+37 0 0 empty empty empty 0 -10 0 12 #fcfcfc #000000 #000000 0 256;
#X text 231 297 Vitesse;
#X connect 1 0 6 0;
#X connect 2 0 7 0;
#X connect 4 0 6 0;
#X connect 5 0 6 0;
#X connect 6 0 2 0;
#X connect 6 1 0 0;
#X connect 7 2 8 0;
