#N canvas 521 278 644 361 12;
#X obj 76 8 inlet;
#X obj 215 80 loadbang;
#X obj 209 135 f \$1;
#X obj 124 147 + 1;
#X obj 154 286 outlet;
#X obj 69 148 i 0;
#X msg 127 86 0;
#X obj 252 110 bng 19 250 50 0 empty empty empty 0 -10 0 12 #fcfcfc #000000 #000000;
#X obj 125 197 select;
#X obj 106 42 route reset;
#X msg 50 53 0;
#X obj 251 283 outlet;
#X connect 0 0 9 0;
#X connect 1 0 2 0;
#X connect 2 0 8 1;
#X connect 3 0 5 1;
#X connect 5 0 3 0;
#X connect 5 0 8 0;
#X connect 6 0 5 0;
#X connect 7 0 2 0;
#X connect 8 0 6 0;
#X connect 8 0 11 0;
#X connect 8 1 4 0;
#X connect 9 0 10 0;
#X connect 9 1 5 0;
#X connect 10 0 5 1;
