#N canvas 530 461 1047 516 12;
#X obj 89 325 iemnet/udpsend;
#X obj 83 243 osc/packOSC;
#X msg 57 163 send /update;
#X obj 89 -9 inlet;
#X obj 523 252 config-query led-controller-host;
#X obj 547 285 symbol \$1;
#X msg 173 165 send /clear1;
#X obj 405 47 print error;
#X msg 193 125 send /pix1 \$1 \$2 \$3 \$4;
#X msg 237 227 send /dump;
#X obj 95 378 tgl 19 0 empty empty empty 0 -10 0 12 #fcfcfc #000000 #000000 0 1;
#X obj 196 458 delay 1000;
#X obj 199 485 print retry-connection;
#X obj 87 423 sel 0 1;
#X obj 32 469 print connected!;
#X obj 540 198 bng 19 250 50 0 empty empty empty 0 -10 0 12 #fcfcfc #000000 #000000;
#X msg 313 315 connect \$1 8010;
#X obj 91 25 route update clear1 pix1;
#X msg 437 369 connect 127.0.0.1 8010;
#X msg 236 393 send /pix1 4 255 0 0;
#X connect 0 0 10 0;
#X connect 1 0 0 0;
#X connect 2 0 1 0;
#X connect 3 0 17 0;
#X connect 4 0 5 0;
#X connect 5 0 16 0;
#X connect 6 0 1 0;
#X connect 8 0 1 0;
#X connect 9 0 1 0;
#X connect 10 0 13 0;
#X connect 11 0 12 0;
#X connect 11 0 15 0;
#X connect 13 0 11 0;
#X connect 13 1 14 0;
#X connect 15 0 4 0;
#X connect 16 0 0 0;
#X connect 17 0 2 0;
#X connect 17 1 6 0;
#X connect 17 2 8 0;
#X connect 17 3 7 0;
#X connect 18 0 0 0;
#X connect 19 0 1 0;
