#N canvas 379 84 1311 976 12;
#X obj 91 789 osc/packOSC;
#X obj 89 891 iemnet/udpsend 8010;
#X msg 655 690 send /all 0 0 0;
#X obj 646 480 r testColor;
#X obj 649 602 r testColorReset;
#X obj 657 643 bng 19 250 50 0 empty empty empty 0 -10 0 12 #fcfcfc #000000 #000000;
#X obj 643 524 list prepend send /pix;
#X obj 645 556 list trim;
#X msg 492 199 send /update;
#X obj 625 763 r testColorUpdate;
#X msg 766 197 send /ping;
#X msg 395 199 send /clear;
#X obj 493 60 inlet;
#X msg 593 196 send /all \$1 \$2 \$3;
#X msg 626 801 send /update;
#X msg 886 208 send /pix \$1 \$2 \$3 \$4;
#X obj 507 107 route clear update all ping;
#X obj 77 846 spigot;
#X obj 21 789 tgl 19 0 empty empty empty 0 -10 0 12 #fcfcfc #000000 #000000 0 1;
#X obj 28 716 loadbang;
#X obj 1089 431 bng 19 250 50 0 empty empty empty 0 -10 0 12 #fcfcfc #000000 #000000;
#X obj 914 484 config-query led-controller-host;
#X msg 911 558 connect \$1 8010;
#X obj 915 523 symbol;
#X obj 915 725 print display connection:;
#X obj 1057 389 loadbang;
#X connect 0 0 17 0;
#X connect 2 0 0 0;
#X connect 3 0 6 0;
#X connect 4 0 5 0;
#X connect 5 0 2 0;
#X connect 6 0 7 0;
#X connect 7 0 0 0;
#X connect 8 0 0 0;
#X connect 9 0 14 0;
#X connect 10 0 0 0;
#X connect 11 0 0 0;
#X connect 12 0 16 0;
#X connect 13 0 0 0;
#X connect 14 0 0 0;
#X connect 15 0 0 0;
#X connect 16 0 11 0;
#X connect 16 1 8 0;
#X connect 16 2 13 0;
#X connect 16 3 10 0;
#X connect 16 4 15 0;
#X connect 17 0 1 0;
#X connect 18 0 17 1;
#X connect 19 0 18 0;
#X connect 20 0 21 0;
#X connect 21 0 23 0;
#X connect 22 0 1 0;
#X connect 22 0 24 0;
#X connect 23 0 22 0;
#X connect 25 0 20 0;
