#N canvas 371 366 1184 592 12;
#X obj 89 325 iemnet/udpsend;
#X obj 83 243 osc/packOSC;
#X msg 57 163 send /update;
#X obj 89 -9 inlet;
#X obj 523 252 config-query led-controller-host;
#X obj 547 285 symbol \$1;
#X msg 173 165 send /clear1;
#X obj 405 73 print error;
#X msg 193 125 send /pix1 \$1 \$2 \$3 \$4;
#X msg 237 227 send /dump;
#X obj 95 378 tgl 19 0 empty empty empty 0 -10 0 12 #fcfcfc #000000 #000000 0 1;
#X obj 196 458 delay 1000;
#X obj 199 485 print retry-connection;
#X obj 87 423 sel 0 1;
#X obj 32 469 print connected!;
#X obj 540 198 bng 19 250 50 0 empty empty empty 0 -10 0 12 #fcfcfc #000000 #000000;
#X msg 313 315 connect \$1 8010;
#X msg 437 369 connect 127.0.0.1 8010;
#X msg 236 393 send /pix1 4 255 0 0;
#X obj 91 25 route update clear1 pix1 all;
#X msg 371 183 send /all \$1 \$2 \$3;
#X msg 241 252 send /dump_arduino;
#X obj 834 -7 r position-soleil-hack;
#X obj 939 55 + 1;
#X obj 806 86 route;
#X msg 810 144 send /pix1 24 \$1 \$2 \$3;
#X obj 882 99 route;
#X msg 978 145 send /pix1 25 \$1 \$2 \$3;
#X text 677 9 Hack pour Mirrorer les leds 'soleil' en position 0-1;
#X obj 548 325 print;
#X msg 110 283 disconnect;
#X obj 544 98 spigot 0;
#X obj 591 42 tgl 19 0 empty empty empty 0 -10 0 12 #fcfcfc #000000 #000000 0 1;
#X obj 559 122 print SETPIX1;
#X obj 471 25 route 1;
#X connect 0 0 10 0;
#X connect 1 0 0 0;
#X connect 2 0 1 0;
#X connect 3 0 19 0;
#X connect 4 0 5 0;
#X connect 5 0 16 0;
#X connect 5 0 29 0;
#X connect 6 0 1 0;
#X connect 8 0 1 0;
#X connect 9 0 1 0;
#X connect 10 0 13 0;
#X connect 11 0 12 0;
#X connect 11 0 15 0;
#X connect 13 0 11 0;
#X connect 13 1 14 0;
#X connect 15 0 4 0;
#X connect 16 0 0 0;
#X connect 17 0 0 0;
#X connect 18 0 1 0;
#X connect 19 0 2 0;
#X connect 19 1 6 0;
#X connect 19 2 8 0;
#X connect 19 2 24 0;
#X connect 19 2 34 0;
#X connect 19 3 20 0;
#X connect 19 4 7 0;
#X connect 20 0 1 0;
#X connect 21 0 1 0;
#X connect 22 0 23 0;
#X connect 22 0 24 1;
#X connect 23 0 26 1;
#X connect 24 0 25 0;
#X connect 24 1 26 0;
#X connect 25 0 1 0;
#X connect 26 0 27 0;
#X connect 27 0 1 0;
#X connect 30 0 0 0;
#X connect 31 0 33 0;
#X connect 32 0 31 1;
#X connect 34 0 31 0;
