#N canvas 327 225 1402 485 12;
#X obj 78 41 inlet;
#X msg 293 262 243 223 225 248 244 248;
#X msg 525 261 255 255 120 128 128 60 \$1 \$2;
#X msg 732 268 191 221 220 105 107 105 \$1 \$2;
#X msg 1207 256 92 108 175 40 40 40 \$1 \$2;
#X text 218 240 0 matin;
#X text 537 239 1 midi;
#X text 756 235 2 aprem;
#X text 1293 230 4 nuit;
#X msg 967 263 221 191 191 105 107 105 \$1 \$2;
#X text 990 235 3 soir;
#X obj 963 -7 config-query soir-gradient;
#X obj 210 -7 config-query matin-gradient;
#X obj 469 -7 config-query midi-gradient;
#X obj 711 -7 config-query aprem-gradient;
#X obj 1194 -7 config-query nuit-gradient;
#X obj 92 411 outlet;
#X obj 97 150 select 0 1 2 3 4;
#X msg 210 22 set \$1 \$2 \$3 \$4 \$5 \$6;
#X msg 469 22 set \$1 \$2 \$3 \$4 \$5 \$6;
#X msg 711 22 set \$1 \$2 \$3 \$4 \$5 \$6;
#X msg 963 22 set \$1 \$2 \$3 \$4 \$5 \$6;
#X msg 1194 22 set \$1 \$2 \$3 \$4 \$5 \$6;
#X connect 0 0 17 0;
#X connect 1 0 16 0;
#X connect 2 0 16 0;
#X connect 3 0 16 0;
#X connect 4 0 16 0;
#X connect 9 0 16 0;
#X connect 11 0 21 0;
#X connect 12 0 18 0;
#X connect 13 0 19 0;
#X connect 14 0 20 0;
#X connect 15 0 22 0;
#X connect 17 0 1 0;
#X connect 17 1 2 0;
#X connect 17 2 3 0;
#X connect 17 3 9 0;
#X connect 17 4 4 0;
#X connect 18 0 1 0;
#X connect 19 0 2 0;
#X connect 20 0 3 0;
#X connect 21 0 9 0;
#X connect 22 0 4 0;
