#N canvas 1059 402 741 618 12;
#X obj 51 540 outlet;
#X msg 37 276 update;
#X obj 83 55 metro 2000;
#X obj 61 107 tgl 19 0 empty empty empty 0 -10 0 12 #fcfcfc #000000 #000000 0 1;
#X msg 61 138 \$1 1000;
#X obj 60 168 line 0 100;
#X msg 98 278 all \$1 \$1 \$1;
#X obj 58 236 t b f;
#X obj 58 202 * 255, f 6;
#X obj 82 16 inlet;
#X obj 422 129 bng 19 250 50 0 empty empty empty 0 -10 0 12 #fcfcfc #000000 #000000;
#X obj 424 167 config-query hour-anim-cycles;
#X obj 349 324 + 1;
#X obj 270 282 bng 19 250 50 0 empty empty empty 0 -10 0 12 #fcfcfc #000000 #000000;
#X msg 380 279 0;
#X obj 404 403 tgl 19 0 empty empty empty 0 -10 0 12 #fcfcfc #000000 #000000 0 1;
#X obj 300 322 i 0;
#X obj 101 107 sel 0;
#X obj 47 17 tgl 19 0 empty empty empty 0 -10 0 12 #fcfcfc #000000 #000000 0 1;
#X obj 393 443 sel 0;
#X msg 390 521 0;
#X obj 391 474 t b b;
#X obj 404 361 < 4;
#X obj 424 216 - 1;
#X obj 205 545 outlet;
#X connect 1 0 0 0;
#X connect 2 0 3 0;
#X connect 3 0 4 0;
#X connect 3 0 17 0;
#X connect 4 0 5 0;
#X connect 5 0 8 0;
#X connect 6 0 0 0;
#X connect 7 0 1 0;
#X connect 7 1 6 0;
#X connect 8 0 7 0;
#X connect 9 0 2 0;
#X connect 10 0 11 0;
#X connect 11 0 23 0;
#X connect 12 0 16 1;
#X connect 13 0 16 0;
#X connect 14 0 16 1;
#X connect 15 0 19 0;
#X connect 16 0 12 0;
#X connect 16 0 22 0;
#X connect 17 0 13 0;
#X connect 18 0 2 0;
#X connect 19 0 21 0;
#X connect 20 0 2 0;
#X connect 21 0 20 0;
#X connect 21 0 24 0;
#X connect 21 1 14 0;
#X connect 22 0 15 0;
#X connect 23 0 22 1;
