#N canvas 563 65 957 720 12;
#X obj 112 18 inlet;
#X obj 53 174 array define -yrange 0 255 chan-red 24;
#X msg 117 97 const 0;
#X obj 431 337 array set chan-red;
#X obj 472 105 unpack f f f f;
#X text 474 71 pos red green blue;
#X obj 420 228 i;
#X obj 407 173 t b f;
#X obj 59 233 array define -yrange 0 255 chan-green 24;
#X obj 69 286 array define -yrange 0 255 chan-blue 24;
#X obj 603 243 i;
#X obj 590 188 t b f;
#X obj 595 339 array set chan-green;
#X obj 763 246 i;
#X obj 750 191 t b f;
#X obj 755 342 array set chan-blue;
#X obj 88 346 t f f f;
#X obj 119 66 route clear get;
#X obj 72 389 array get chan-red 0 24;
#X obj 240 388 array get chan-green 0 24;
#X obj 421 387 array get chan-blue 0 24;
#X obj 86 471 print;
#X obj 37 339 bng 19 250 50 0 empty empty empty 0 -10 0 12 #fcfcfc #000000 #000000;
#X connect 0 0 17 0;
#X connect 2 0 1 0;
#X connect 2 0 8 0;
#X connect 2 0 9 0;
#X connect 4 0 7 0;
#X connect 4 0 11 0;
#X connect 4 0 14 0;
#X connect 4 1 6 1;
#X connect 4 2 10 1;
#X connect 4 3 13 1;
#X connect 6 0 3 0;
#X connect 7 0 6 0;
#X connect 7 1 3 1;
#X connect 10 0 12 0;
#X connect 11 0 10 0;
#X connect 11 1 12 1;
#X connect 13 0 15 0;
#X connect 14 0 13 0;
#X connect 14 1 15 1;
#X connect 16 0 18 0;
#X connect 16 1 19 0;
#X connect 16 2 20 0;
#X connect 17 0 2 0;
#X connect 17 1 16 0;
#X connect 17 2 4 0;
#X connect 18 0 21 0;
#X connect 22 0 18 0;
