#N canvas 533 273 622 347 12;
#X obj 91 33 inlet;
#X obj 149 34 inlet;
#X obj 225 33 inlet;
#X obj 64 283 outlet;
#X obj 64 215 list prepend 23 \$1;
#X obj 147 69 int;
#X obj 225 67 int;
#X obj 90 67 int;
#X obj 134 116 t b f;
#X obj 219 120 t b f;
#X obj 65 184 pack f f f;
#X obj 425 54 inlet;
#X obj 63 255 list append 42;
#X msg 359 157 \$1 \$1 \$1;
#X connect 0 0 7 0;
#X connect 1 0 5 0;
#X connect 2 0 6 0;
#X connect 4 0 12 0;
#X connect 5 0 8 0;
#X connect 6 0 9 0;
#X connect 7 0 10 0;
#X connect 8 0 10 0;
#X connect 8 1 10 1;
#X connect 9 0 10 0;
#X connect 9 1 10 2;
#X connect 10 0 4 0;
#X connect 11 0 13 0;
#X connect 12 0 3 0;
#X connect 13 0 10 0;
