#N canvas 377 312 971 315 12;
#X obj 265 161 expr $f2*(1-($f1))+$f3*($f1);
#X obj 169 9 inlet;
#X obj 410 71 inlet;
#X obj 258 243 outlet;
#X obj 338 64 inlet;
#X obj 316 123 f;
#X obj 382 123 f;
#X obj 199 72 route bang;
#X connect 0 0 3 0;
#X connect 1 0 7 0;
#X connect 2 0 6 1;
#X connect 4 0 5 1;
#X connect 5 0 0 1;
#X connect 6 0 0 2;
#X connect 7 0 5 0;
#X connect 7 0 6 0;
#X connect 7 1 0 0;
