#N canvas 891 54 909 719 12;
#N canvas 673 225 732 365 init 0;
#X obj 377 99 config config-dev.txt;
#X obj 244 -17 loadbang;
#X obj 244 8 t b b b;
#X obj 140 99 s init2-bang;
#X obj 244 31 bng 19 250 50 0 empty empty empty 0 -10 0 12 #fcfcfc #000000 #000000;
#X obj 244 123 s reload-config;
#X obj 244 58 t b b;
#X obj 378 51 bng 19 250 50 0 empty empty empty 0 -10 0 12 #fcfcfc #000000 #000000;
#X obj 367 2 bng 19 250 50 0 empty empty empty 0 -10 0 12 #fcfcfc #000000 #000000;
#X connect 1 0 2 0;
#X connect 2 0 3 0;
#X connect 2 1 4 0;
#X connect 2 2 0 0;
#X connect 4 0 6 0;
#X connect 6 0 5 0;
#X connect 6 1 0 0;
#X connect 7 0 0 0;
#X connect 8 0 2 0;
#X restore 52 8 pd init;
#X obj 49 642 display;
#N canvas 0 39 1800 1050 pulses 0;
#X obj 2707 912 outlet;
#X obj 2516 270 sun-grad;
#X msg 1148 378 update;
#X obj 725 729 color-lerp;
#X msg 725 754 pix1 0 \$1 \$2 \$3;
#X obj 847 729 color-lerp;
#X msg 847 754 pix1 1 \$1 \$2 \$3;
#X obj 975 729 color-lerp;
#X msg 975 754 pix1 2 \$1 \$2 \$3;
#X obj 1100 729 color-lerp;
#X msg 1100 754 pix1 3 \$1 \$2 \$3;
#X obj 1222 729 color-lerp;
#X msg 1222 754 pix1 4 \$1 \$2 \$3;
#X obj 2638 512 route 0 1 2 3 4 5 6 7 8 9 10 11 12 13 14 15 16 17 18 19 20 21 22 23, f 100;
#X obj 1339 729 color-lerp;
#X msg 1339 754 pix1 5 \$1 \$2 \$3;
#X obj 1461 729 color-lerp;
#X msg 1461 754 pix1 6 \$1 \$2 \$3;
#X obj 1589 729 color-lerp;
#X msg 1589 754 pix1 7 \$1 \$2 \$3;
#X obj 1712 729 color-lerp;
#X msg 1712 754 pix1 8 \$1 \$2 \$3;
#X obj 1833 729 color-lerp;
#X msg 1833 754 pix1 9 \$1 \$2 \$3;
#X obj 1964 730 color-lerp;
#X obj 2086 730 color-lerp;
#X obj 2214 730 color-lerp;
#X obj 2339 730 color-lerp;
#X obj 2461 730 color-lerp;
#X obj 2578 730 color-lerp;
#X obj 2700 730 color-lerp;
#X obj 2828 730 color-lerp;
#X obj 2951 730 color-lerp;
#X obj 3072 730 color-lerp;
#X msg 1964 755 pix1 10 \$1 \$2 \$3;
#X msg 2086 755 pix1 11 \$1 \$2 \$3;
#X msg 2214 755 pix1 12 \$1 \$2 \$3;
#X msg 2339 755 pix1 13 \$1 \$2 \$3;
#X msg 2461 755 pix1 14 \$1 \$2 \$3;
#X msg 2578 755 pix1 15 \$1 \$2 \$3;
#X msg 2700 755 pix1 16 \$1 \$2 \$3;
#X msg 2828 755 pix1 17 \$1 \$2 \$3;
#X msg 2951 755 pix1 18 \$1 \$2 \$3;
#X msg 3072 755 pix1 19 \$1 \$2 \$3;
#X obj 3201 737 color-lerp;
#X obj 3329 737 color-lerp;
#X obj 3452 737 color-lerp;
#X obj 3573 737 color-lerp;
#X msg 3201 762 pix1 20 \$1 \$2 \$3;
#X msg 3329 762 pix1 21 \$1 \$2 \$3;
#X msg 3452 762 pix1 22 \$1 \$2 \$3;
#X msg 3573 762 pix1 23 \$1 \$2 \$3;
#X obj 1388 286 t b f b;
#X msg 1805 480 0 0 0;
#X obj 2522 179 t l b;
#X obj 1405 142 inlet;
#X obj 2520 132 inlet;
#X obj 2578 109 unpack f f f f f f f f;
#X obj 2524 307 route;
#X obj 2694 270 + 1;
#X obj 2555 351 route;
#X obj 2479 404 i;
#X obj 2675 337 i;
#X obj 2524 344 bng 19 250 50 0 empty empty empty 0 -10 0 12 #fcfcfc #000000 #000000;
#X obj 2550 384 bng 19 250 50 0 empty empty empty 0 -10 0 12 #fcfcfc #000000 #000000;
#X obj 2824 222 nbx 5 17 -1e+37 1e+37 0 0 empty empty empty 0 -10 0 12 #fcfcfc #000000 #000000 0 256;
#X text 2723 242 index led de l'heure (0->0h \, 2->1h \, 12->6h \, etc.);
#X obj 2816 158 mod 24;
#X obj 3013 127 inlet;
#X obj 2839 396 pack f f f f;
#X obj 2905 359 unpack f f f;
#X text 3059 126 couleur du soleil;
#X connect 1 0 58 0;
#X connect 2 0 0 0;
#X connect 3 0 4 0;
#X connect 4 0 0 0;
#X connect 5 0 6 0;
#X connect 6 0 0 0;
#X connect 7 0 8 0;
#X connect 8 0 0 0;
#X connect 9 0 10 0;
#X connect 10 0 0 0;
#X connect 11 0 12 0;
#X connect 12 0 0 0;
#X connect 13 0 3 1;
#X connect 13 1 5 1;
#X connect 13 2 7 1;
#X connect 13 3 9 1;
#X connect 13 4 11 1;
#X connect 13 5 14 1;
#X connect 13 6 16 1;
#X connect 13 7 18 1;
#X connect 13 8 20 1;
#X connect 13 9 22 1;
#X connect 13 10 24 1;
#X connect 13 11 25 1;
#X connect 13 12 26 1;
#X connect 13 13 27 1;
#X connect 13 14 28 1;
#X connect 13 15 29 1;
#X connect 13 16 30 1;
#X connect 13 17 31 1;
#X connect 13 18 32 1;
#X connect 13 19 33 1;
#X connect 13 20 44 1;
#X connect 13 21 45 1;
#X connect 13 22 46 1;
#X connect 13 23 47 1;
#X connect 14 0 15 0;
#X connect 15 0 0 0;
#X connect 16 0 17 0;
#X connect 17 0 0 0;
#X connect 18 0 19 0;
#X connect 19 0 0 0;
#X connect 20 0 21 0;
#X connect 21 0 0 0;
#X connect 22 0 23 0;
#X connect 23 0 0 0;
#X connect 24 0 34 0;
#X connect 25 0 35 0;
#X connect 26 0 36 0;
#X connect 27 0 37 0;
#X connect 28 0 38 0;
#X connect 29 0 39 0;
#X connect 30 0 40 0;
#X connect 31 0 41 0;
#X connect 32 0 42 0;
#X connect 33 0 43 0;
#X connect 34 0 0 0;
#X connect 35 0 0 0;
#X connect 36 0 0 0;
#X connect 37 0 0 0;
#X connect 38 0 0 0;
#X connect 39 0 0 0;
#X connect 40 0 0 0;
#X connect 41 0 0 0;
#X connect 42 0 0 0;
#X connect 43 0 0 0;
#X connect 44 0 48 0;
#X connect 45 0 49 0;
#X connect 46 0 50 0;
#X connect 47 0 51 0;
#X connect 48 0 0 0;
#X connect 49 0 0 0;
#X connect 50 0 0 0;
#X connect 51 0 0 0;
#X connect 52 0 2 0;
#X connect 52 1 3 0;
#X connect 52 1 5 0;
#X connect 52 1 7 0;
#X connect 52 1 9 0;
#X connect 52 1 11 0;
#X connect 52 1 14 0;
#X connect 52 1 16 0;
#X connect 52 1 18 0;
#X connect 52 1 20 0;
#X connect 52 1 22 0;
#X connect 52 1 24 0;
#X connect 52 1 25 0;
#X connect 52 1 26 0;
#X connect 52 1 27 0;
#X connect 52 1 28 0;
#X connect 52 1 29 0;
#X connect 52 1 30 0;
#X connect 52 1 31 0;
#X connect 52 1 32 0;
#X connect 52 1 33 0;
#X connect 52 1 44 0;
#X connect 52 1 45 0;
#X connect 52 1 46 0;
#X connect 52 1 47 0;
#X connect 53 0 3 1;
#X connect 53 0 5 1;
#X connect 53 0 7 1;
#X connect 53 0 9 1;
#X connect 53 0 11 1;
#X connect 53 0 14 1;
#X connect 53 0 16 1;
#X connect 53 0 18 1;
#X connect 53 0 20 1;
#X connect 53 0 22 1;
#X connect 53 0 24 1;
#X connect 53 0 25 1;
#X connect 53 0 26 1;
#X connect 53 0 27 1;
#X connect 53 0 28 1;
#X connect 53 0 29 1;
#X connect 53 0 30 1;
#X connect 53 0 31 1;
#X connect 53 0 32 1;
#X connect 53 0 33 1;
#X connect 53 0 44 1;
#X connect 53 0 45 1;
#X connect 53 0 46 1;
#X connect 53 0 47 1;
#X connect 54 0 1 0;
#X connect 54 0 57 0;
#X connect 54 1 53 0;
#X connect 55 0 52 0;
#X connect 56 0 54 0;
#X connect 57 7 67 0;
#X connect 58 0 63 0;
#X connect 58 1 60 0;
#X connect 59 0 60 1;
#X connect 59 0 62 1;
#X connect 60 0 64 0;
#X connect 60 1 13 0;
#X connect 61 0 69 0;
#X connect 62 0 69 0;
#X connect 63 0 61 0;
#X connect 64 0 62 0;
#X connect 67 0 65 0;
#X connect 67 0 58 1;
#X connect 67 0 59 0;
#X connect 67 0 61 1;
#X connect 68 0 70 0;
#X connect 69 0 13 0;
#X connect 70 0 69 1;
#X connect 70 1 69 2;
#X connect 70 2 69 3;
#X restore 48 452 pd pulses;
#X obj 87 495 loadbang;
#X obj 50 573 spigot 1;
#X obj 87 527 tgl 19 0 empty empty empty 0 -10 0 12 #fcfcfc #000000 #000000 0 1;
#X msg 42 133 \$1 1000;
#X obj 42 165 line 0 100;
#X obj 40 304 nbx 5 17 -1e+37 1e+37 0 0 empty empty empty 0 -10 0 12 #fcfcfc #000000 #000000 0 256;
#X obj 41 249 min 1;
#X obj 39 273 max 0;
#X obj 42 74 metro 2000;
#X obj 42 106 tgl 19 0 empty empty empty 0 -10 0 12 #fcfcfc #000000 #000000 0 1;
#X obj 42 42 tgl 19 0 empty empty empty 0 -10 0 12 #fcfcfc #000000 #000000 0 1;
#X obj 181 31 loadbang;
#N canvas 63 102 450 300 debug 0;
#N canvas 63 102 913 663 test-chenillard 0;
#X obj 119 181 i 0;
#X obj 200 184 + 1;
#X obj 99 121 bng 19 250 50 0 empty empty empty 0 -10 0 12 #fcfcfc #000000 #000000;
#X msg 139 142 0;
#X obj 129 290 nbx 5 17 -1e+37 1e+37 0 0 empty empty empty 0 -10 0 12 #fcfcfc #000000 #000000 0 256;
#X obj 90 227 sel 24;
#X obj 179 345 t b f b;
#X msg 399 404 clear1;
#X msg 129 395 update;
#X obj 97 91 metro 1000;
#X msg 186 426 pix1 \$1 200 200 200;
#X obj 233 597 outlet;
#X obj 142 27 inlet;
#X obj 278 523 spigot 0;
#X connect 0 0 1 0;
#X connect 0 0 4 0;
#X connect 0 0 5 0;
#X connect 1 0 0 1;
#X connect 2 0 0 0;
#X connect 3 0 0 0;
#X connect 4 0 6 0;
#X connect 5 0 3 0;
#X connect 6 0 8 0;
#X connect 6 1 10 0;
#X connect 6 2 7 0;
#X connect 7 0 13 0;
#X connect 8 0 13 0;
#X connect 9 0 2 0;
#X connect 10 0 13 0;
#X connect 12 0 9 0;
#X connect 12 0 13 1;
#X connect 13 0 11 0;
#X restore 48 83 pd test-chenillard;
#X obj 41 26 tgl 19 0 empty empty empty 0 -10 0 12 #fcfcfc #000000 #000000 0 1;
#X obj 50 176 outlet;
#X connect 0 0 2 0;
#X connect 1 0 0 0;
#X restore 127 564 pd debug;
#X obj 256 340 sel 0;
#X obj 256 376 bng 19 250 50 0 empty empty empty 0 -10 0 12 #fcfcfc #000000 #000000;
#N canvas 294 127 1288 577 receive_params 1;
#X obj 87 121 iemnet/udpreceive 8012;
#X obj 104 198 osc/unpackOSC;
#X text 47 365 clock -> hh mm;
#X text 333 403 luminosity ->[0 \, 1];
#X obj 454 349 print receive_params other osc msg;
#X obj 86 345 bng 19 250 50 0 empty empty empty 0 -10 0 12 #fcfcfc #000000 #000000;
#X obj 178 355 bng 19 250 50 0 empty empty empty 0 -10 0 12 #fcfcfc #000000 #000000;
#X text 569 403 sensor ID speed;
#N canvas 92 131 1254 789 sensors 0;
#X obj 163 41 route 0 1 2 3 4 5 6 7 8 9 10 11;
#X obj 169 118 nbx 5 17 -1e+37 1e+37 0 0 empty empty 0 -18 10 0 12 #fcfcfc #000000 #000000 0 256;
#X obj 169 146 nbx 5 17 -1e+37 1e+37 0 0 empty empty 1 -18 10 0 12 #fcfcfc #000000 #000000 0 256;
#X obj 169 174 nbx 5 17 -1e+37 1e+37 0 0 empty empty 2 -18 10 0 12 #fcfcfc #000000 #000000 0 256;
#X obj 169 202 nbx 5 17 -1e+37 1e+37 0 0 empty empty 3 -18 10 0 12 #fcfcfc #000000 #000000 0 256;
#X obj 169 230 nbx 5 17 -1e+37 1e+37 0 0 empty empty 4 -18 10 0 12 #fcfcfc #000000 #000000 0 256;
#X obj 169 258 nbx 5 17 -1e+37 1e+37 0 0 empty empty 5 -18 10 0 12 #fcfcfc #000000 #000000 0 256;
#X obj 286 118 nbx 5 17 -1e+37 1e+37 0 0 empty empty 6 -18 10 0 12 #fcfcfc #000000 #000000 0 256;
#X obj 286 146 nbx 5 17 -1e+37 1e+37 0 0 empty empty 7 -18 10 0 12 #fcfcfc #000000 #000000 0 256;
#X obj 286 174 nbx 5 17 -1e+37 1e+37 0 0 empty empty 8 -18 10 0 12 #fcfcfc #000000 #000000 0 256;
#X obj 286 202 nbx 5 17 -1e+37 1e+37 0 0 empty empty 9 -18 10 0 12 #fcfcfc #000000 #000000 0 256;
#X obj 286 230 nbx 5 17 -1e+37 1e+37 0 0 empty empty 10 -18 10 0 12 #fcfcfc #000000 #000000 0 256;
#X obj 286 258 nbx 5 17 -1e+37 1e+37 0 0 empty empty 11 -18 10 0 12 #fcfcfc #000000 #000000 0 256;
#X obj 122 -24 inlet;
#X obj 127 118 bng 19 250 50 0 empty empty empty 0 -10 0 12 #fcfcfc #000000 #000000;
#X obj 127 146 bng 19 250 50 0 empty empty empty 0 -10 0 12 #fcfcfc #000000 #000000;
#X obj 127 174 bng 19 250 50 0 empty empty empty 0 -10 0 12 #fcfcfc #000000 #000000;
#X obj 127 202 bng 19 250 50 0 empty empty empty 0 -10 0 12 #fcfcfc #000000 #000000;
#X obj 127 230 bng 19 250 50 0 empty empty empty 0 -10 0 12 #fcfcfc #000000 #000000;
#X obj 127 258 bng 19 250 50 0 empty empty empty 0 -10 0 12 #fcfcfc #000000 #000000;
#X obj 245 118 bng 19 250 50 0 empty empty empty 0 -10 0 12 #fcfcfc #000000 #000000;
#X obj 245 146 bng 19 250 50 0 empty empty empty 0 -10 0 12 #fcfcfc #000000 #000000;
#X obj 245 174 bng 19 250 50 0 empty empty empty 0 -10 0 12 #fcfcfc #000000 #000000;
#X obj 245 202 bng 19 250 50 0 empty empty empty 0 -10 0 12 #fcfcfc #000000 #000000;
#X obj 245 230 bng 19 250 50 0 empty empty empty 0 -10 0 12 #fcfcfc #000000 #000000;
#X obj 245 258 bng 19 250 50 0 empty empty empty 0 -10 0 12 #fcfcfc #000000 #000000;
#X connect 0 0 1 0;
#X connect 0 0 14 0;
#X connect 0 1 2 0;
#X connect 0 1 15 0;
#X connect 0 2 3 0;
#X connect 0 2 16 0;
#X connect 0 3 4 0;
#X connect 0 3 17 0;
#X connect 0 4 5 0;
#X connect 0 4 18 0;
#X connect 0 5 6 0;
#X connect 0 5 19 0;
#X connect 0 6 7 0;
#X connect 0 6 20 0;
#X connect 0 7 8 0;
#X connect 0 7 21 0;
#X connect 0 8 9 0;
#X connect 0 8 22 0;
#X connect 0 9 10 0;
#X connect 0 9 23 0;
#X connect 0 10 11 0;
#X connect 0 10 24 0;
#X connect 0 11 12 0;
#X connect 0 11 25 0;
#X connect 13 0 0 0;
#X coords 0 -1 1 1 280 200 1 100 100;
#X restore 717 138 pd sensors;
#X obj 110 309 route /clock /luminosity /sensor /nebulosity;
#X text 748 417 nebulosity ->[0 \, 1];
#X obj 83 465 outlet;
#X obj 276 26 loadbang;
#X obj 343 49 bng 19 250 50 0 empty empty empty 0 -10 0 12 #fcfcfc #000000 #000000;
#X obj 262 402 nbx 5 17 -1e+37 1e+37 0 0 empty empty empty 0 -10 0 12 #fcfcfc #000000 #000000 0 256;
#X msg 476 96 /nebulosity 0;
#X msg 250 84 /clock 0 0;
#X msg 346 93 /luminosity 0.5;
#X connect 0 0 1 0;
#X connect 1 0 9 0;
#X connect 1 0 11 0;
#X connect 9 0 5 0;
#X connect 9 1 6 0;
#X connect 9 1 14 0;
#X connect 9 2 8 0;
#X connect 9 4 4 0;
#X connect 12 0 13 0;
#X connect 13 0 16 0;
#X connect 13 0 17 0;
#X connect 13 0 15 0;
#X connect 15 0 11 0;
#X connect 16 0 11 0;
#X connect 17 0 11 0;
#X restore 344 200 pd receive_params;
#X obj 321 406 meteo;
#N canvas 859 510 570 520 pulse-start 0;
#X obj 125 276 line 0 100;
#X msg 93 122 1 1000;
#X obj 124 314 == 1;
#X msg 174 122 0 1000;
#X obj 124 348 change;
#X obj 124 160 delay 5000;
#X obj 122 387 sel 0 1;
#X obj 224 159 delay 4000;
#X obj 92 92 bng 19 250 50 0 empty empty empty 0 -10 0 12 #fcfcfc #000000 #000000;
#X obj 69 471 outlet;
#X obj 155 16 inlet;
#X obj 151 59 sel 1 0;
#X msg 230 84 stop;
#X connect 0 0 2 0;
#X connect 0 0 9 0;
#X connect 1 0 0 0;
#X connect 2 0 4 0;
#X connect 3 0 0 0;
#X connect 4 0 6 0;
#X connect 5 0 3 0;
#X connect 6 0 7 0;
#X connect 6 1 5 0;
#X connect 7 0 1 0;
#X connect 8 0 1 0;
#X connect 10 0 11 0;
#X connect 11 0 8 0;
#X connect 11 1 3 0;
#X connect 11 1 12 0;
#X connect 12 0 5 0;
#X connect 12 0 7 0;
#X restore 168 145 pd pulse-start;
#X obj 180 105 tgl 19 0 empty empty empty 0 -10 0 12 #fcfcfc #000000 #000000 0 1;
#X obj 447 359 sound/main_audio;
#X obj 599 188 vsl 19 162 0 1 0 0 empty empty test-vitesse 0 -9 0 12 #fcfcfc #000000 #000000 0 1;
#X connect 2 0 4 0;
#X connect 3 0 5 0;
#X connect 4 0 1 0;
#X connect 5 0 4 1;
#X connect 6 0 7 0;
#X connect 7 0 9 0;
#X connect 8 0 2 0;
#X connect 8 0 16 0;
#X connect 9 0 10 0;
#X connect 10 0 8 0;
#X connect 11 0 12 0;
#X connect 12 0 6 0;
#X connect 13 0 11 0;
#X connect 14 0 21 0;
#X connect 15 0 1 0;
#X connect 16 0 17 0;
#X connect 17 0 19 0;
#X connect 18 0 19 1;
#X connect 18 0 22 0;
#X connect 19 0 2 1;
#X connect 19 1 2 2;
#X connect 20 0 9 0;
#X connect 21 0 20 0;
#X connect 23 0 22 1;
