#N canvas 467 243 1225 815 12;
#N canvas 860 156 764 256 init 0;
#X obj 278 132 config config-dev.txt;
#X obj 145 16 loadbang;
#X obj 145 41 t b b b;
#X obj 41 132 s init2-bang;
#X obj 145 64 bng 19 250 50 0 empty empty empty 0 -10 0 12 #fcfcfc #000000 #000000;
#X obj 145 156 s reload-config;
#X obj 145 91 t b b;
#X obj 279 84 bng 19 250 50 0 empty empty empty 0 -10 0 12 #fcfcfc #000000 #000000;
#X obj 309 24 inlet;
#X obj 472 141 text define -k start-seq;
#A set 1 1000 \; 0 1000 \; 1 1000 \; 0 1000 \; 1 1000 \; 0 1000 \; 1 1000 \; 0 1000 \; 1 1000 \; 0 1000 \; 1 1000 \; 0 1000 \;;
#X connect 1 0 2 0;
#X connect 2 0 3 0;
#X connect 2 1 4 0;
#X connect 2 2 0 0;
#X connect 4 0 6 0;
#X connect 6 0 5 0;
#X connect 6 1 0 0;
#X connect 7 0 0 0;
#X connect 8 0 2 0;
#X restore 52 53 pd init;
#X obj 173 761 display;
#N canvas 107 174 1652 915 pulses 0;
#X obj 1979 1018 outlet;
#X obj 1812 201 sun-grad;
#X msg 435 307 update;
#X obj 12 658 color-lerp;
#X msg 12 683 pix1 0 \$1 \$2 \$3;
#X obj 134 658 color-lerp;
#X msg 134 683 pix1 1 \$1 \$2 \$3;
#X obj 262 658 color-lerp;
#X msg 262 683 pix1 2 \$1 \$2 \$3;
#X obj 387 658 color-lerp;
#X msg 387 683 pix1 3 \$1 \$2 \$3;
#X obj 509 658 color-lerp;
#X msg 509 683 pix1 4 \$1 \$2 \$3;
#X obj 1832 432 route 0 1 2 3 4 5 6 7 8 9 10 11 12 13 14 15 16 17 18 19 20 21 22 23, f 100;
#X obj 626 658 color-lerp;
#X msg 626 683 pix1 5 \$1 \$2 \$3;
#X obj 748 658 color-lerp;
#X msg 748 683 pix1 6 \$1 \$2 \$3;
#X obj 876 658 color-lerp;
#X msg 876 683 pix1 7 \$1 \$2 \$3;
#X obj 999 658 color-lerp;
#X msg 999 683 pix1 8 \$1 \$2 \$3;
#X obj 1120 658 color-lerp;
#X msg 1120 683 pix1 9 \$1 \$2 \$3;
#X obj 1251 659 color-lerp;
#X obj 1373 659 color-lerp;
#X obj 1501 659 color-lerp;
#X obj 1626 659 color-lerp;
#X obj 1748 659 color-lerp;
#X obj 1865 659 color-lerp;
#X obj 1987 659 color-lerp;
#X obj 2115 659 color-lerp;
#X obj 2238 659 color-lerp;
#X obj 2359 659 color-lerp;
#X msg 1251 684 pix1 10 \$1 \$2 \$3;
#X msg 1373 684 pix1 11 \$1 \$2 \$3;
#X msg 1501 684 pix1 12 \$1 \$2 \$3;
#X msg 1626 684 pix1 13 \$1 \$2 \$3;
#X msg 1748 684 pix1 14 \$1 \$2 \$3;
#X msg 1865 684 pix1 15 \$1 \$2 \$3;
#X msg 1987 684 pix1 16 \$1 \$2 \$3;
#X msg 2115 684 pix1 17 \$1 \$2 \$3;
#X msg 2238 684 pix1 18 \$1 \$2 \$3;
#X msg 2359 684 pix1 19 \$1 \$2 \$3;
#X obj 2510 659 color-lerp;
#X obj 2641 662 color-lerp;
#X obj 2782 665 color-lerp;
#X obj 2903 665 color-lerp;
#X msg 2513 687 pix1 20 \$1 \$2 \$3;
#X msg 2641 687 pix1 21 \$1 \$2 \$3;
#X msg 2782 690 pix1 22 \$1 \$2 \$3;
#X msg 2903 690 pix1 23 \$1 \$2 \$3;
#X obj 675 215 t b f b;
#X msg 1538 250 0 0 0;
#X obj 1807 69 t l b;
#X obj 692 71 inlet;
#X obj 1807 37 inlet;
#X obj 1811 236 route;
#X obj 2354 227 + 1;
#X obj 1842 280 route;
#X obj 2105 287 i;
#X obj 2326 366 i;
#X obj 1811 273 bng 19 250 50 0 empty empty empty 0 -10 0 12 #fcfcfc #000000 #000000;
#X obj 1837 313 bng 19 250 50 0 empty empty empty 0 -10 0 12 #fcfcfc #000000 #000000;
#X obj 1976 171 nbx 5 17 -1e+37 1e+37 0 0 empty empty empty 0 -10 0 12 #fcfcfc #000000 #000000 0 256;
#X text 2050 170 index led de l'heure (0->0h \, 2->1h \, 12->6h \, etc.);
#X obj 1974 141 mod 24;
#X obj 2222 28 inlet;
#X obj 2126 325 pack f f f f;
#X obj 2144 287 unpack f f f;
#X text 2268 27 couleur du soleil;
#X msg 1974 116 \$8;
#X obj 2318 396 pack f f f f;
#X obj 2362 366 unpack f f f;
#X msg 2169 229 \$1 \$2 \$3;
#X msg 2372 268 \$4 \$5 \$6;
#X obj 2297 870 spigot 1;
#X obj 2594 41 inlet mask-anim-mendo;
#X obj 2565 109 route 0 1 2 3 4 5 6 7 8 9 10 11;
#X obj 2208 870 spigot 1;
#X obj 2109 870 spigot 1;
#X obj 2009 870 spigot 1;
#X obj 1883 870 spigot 1;
#X obj 1768 870 spigot 1;
#X obj 1634 870 spigot 1;
#X obj 1546 870 spigot 1;
#X obj 1426 870 spigot 1;
#X obj 1315 870 spigot 1;
#X obj 1224 870 spigot 1;
#X obj 1079 870 spigot 1;
#X obj 2822 72 route all;
#X msg 2883 118 \$1;
#X obj 3000 149 f 1;
#X text 3080 149 facteur d'intensité [0 \, 1];
#X obj 2997 36 inlet intensity;
#X obj 2999 71 min 1;
#X obj 3000 97 max 0;
#X connect 1 0 57 0;
#X connect 2 0 0 0;
#X connect 3 0 4 0;
#X connect 4 0 89 0;
#X connect 5 0 6 0;
#X connect 6 0 89 0;
#X connect 7 0 8 0;
#X connect 8 0 88 0;
#X connect 9 0 10 0;
#X connect 10 0 88 0;
#X connect 11 0 12 0;
#X connect 12 0 87 0;
#X connect 13 0 3 1;
#X connect 13 1 5 1;
#X connect 13 2 7 1;
#X connect 13 3 9 1;
#X connect 13 4 11 1;
#X connect 13 5 14 1;
#X connect 13 6 16 1;
#X connect 13 7 18 1;
#X connect 13 8 20 1;
#X connect 13 9 22 1;
#X connect 13 10 24 1;
#X connect 13 11 25 1;
#X connect 13 12 26 1;
#X connect 13 13 27 1;
#X connect 13 14 28 1;
#X connect 13 15 29 1;
#X connect 13 16 30 1;
#X connect 13 17 31 1;
#X connect 13 18 32 1;
#X connect 13 19 33 1;
#X connect 13 20 44 1;
#X connect 13 21 45 1;
#X connect 13 22 46 1;
#X connect 13 23 47 1;
#X connect 14 0 15 0;
#X connect 15 0 87 0;
#X connect 16 0 17 0;
#X connect 17 0 86 0;
#X connect 18 0 19 0;
#X connect 19 0 86 0;
#X connect 20 0 21 0;
#X connect 21 0 85 0;
#X connect 22 0 23 0;
#X connect 23 0 85 0;
#X connect 24 0 34 0;
#X connect 25 0 35 0;
#X connect 26 0 36 0;
#X connect 27 0 37 0;
#X connect 28 0 38 0;
#X connect 29 0 39 0;
#X connect 30 0 40 0;
#X connect 31 0 41 0;
#X connect 32 0 42 0;
#X connect 33 0 43 0;
#X connect 34 0 84 0;
#X connect 35 0 84 0;
#X connect 36 0 83 0;
#X connect 37 0 83 0;
#X connect 38 0 82 0;
#X connect 39 0 82 0;
#X connect 40 0 81 0;
#X connect 41 0 81 0;
#X connect 42 0 80 0;
#X connect 43 0 80 0;
#X connect 44 0 48 0;
#X connect 45 0 49 0;
#X connect 46 0 50 0;
#X connect 47 0 51 0;
#X connect 48 0 79 0;
#X connect 49 0 79 0;
#X connect 50 0 76 0;
#X connect 51 0 76 0;
#X connect 52 0 2 0;
#X connect 52 1 3 0;
#X connect 52 1 5 0;
#X connect 52 1 7 0;
#X connect 52 1 9 0;
#X connect 52 1 11 0;
#X connect 52 1 14 0;
#X connect 52 1 16 0;
#X connect 52 1 18 0;
#X connect 52 1 20 0;
#X connect 52 1 22 0;
#X connect 52 1 24 0;
#X connect 52 1 25 0;
#X connect 52 1 26 0;
#X connect 52 1 27 0;
#X connect 52 1 28 0;
#X connect 52 1 29 0;
#X connect 52 1 30 0;
#X connect 52 1 31 0;
#X connect 52 1 32 0;
#X connect 52 1 33 0;
#X connect 52 1 44 0;
#X connect 52 1 45 0;
#X connect 52 1 46 0;
#X connect 52 1 47 0;
#X connect 53 0 3 1;
#X connect 53 0 5 1;
#X connect 53 0 7 1;
#X connect 53 0 9 1;
#X connect 53 0 11 1;
#X connect 53 0 14 1;
#X connect 53 0 16 1;
#X connect 53 0 18 1;
#X connect 53 0 20 1;
#X connect 53 0 22 1;
#X connect 53 0 24 1;
#X connect 53 0 25 1;
#X connect 53 0 26 1;
#X connect 53 0 27 1;
#X connect 53 0 28 1;
#X connect 53 0 29 1;
#X connect 53 0 30 1;
#X connect 53 0 31 1;
#X connect 53 0 32 1;
#X connect 53 0 33 1;
#X connect 53 0 44 1;
#X connect 53 0 45 1;
#X connect 53 0 46 1;
#X connect 53 0 47 1;
#X connect 54 0 1 0;
#X connect 54 0 71 0;
#X connect 54 1 53 0;
#X connect 55 0 52 0;
#X connect 56 0 54 0;
#X connect 57 0 62 0;
#X connect 57 1 59 0;
#X connect 58 0 59 1;
#X connect 58 0 61 1;
#X connect 59 0 63 0;
#X connect 59 1 13 0;
#X connect 60 0 68 0;
#X connect 61 0 72 0;
#X connect 62 0 60 0;
#X connect 63 0 61 0;
#X connect 66 0 64 0;
#X connect 66 0 57 1;
#X connect 66 0 60 1;
#X connect 66 0 58 0;
#X connect 67 0 74 0;
#X connect 67 0 75 0;
#X connect 68 0 13 0;
#X connect 69 0 68 1;
#X connect 69 1 68 2;
#X connect 69 2 68 3;
#X connect 71 0 66 0;
#X connect 72 0 13 0;
#X connect 73 0 72 1;
#X connect 73 1 72 2;
#X connect 73 2 72 3;
#X connect 74 0 69 0;
#X connect 75 0 73 0;
#X connect 76 0 0 0;
#X connect 77 0 90 0;
#X connect 78 0 89 1;
#X connect 78 1 88 1;
#X connect 78 2 87 1;
#X connect 78 3 86 1;
#X connect 78 4 85 1;
#X connect 78 5 84 1;
#X connect 78 6 83 1;
#X connect 78 7 82 1;
#X connect 78 8 81 1;
#X connect 78 9 80 1;
#X connect 78 10 79 1;
#X connect 78 11 76 1;
#X connect 79 0 0 0;
#X connect 80 0 0 0;
#X connect 81 0 0 0;
#X connect 82 0 0 0;
#X connect 83 0 0 0;
#X connect 84 0 0 0;
#X connect 85 0 0 0;
#X connect 86 0 0 0;
#X connect 87 0 0 0;
#X connect 88 0 0 0;
#X connect 89 0 0 0;
#X connect 90 0 91 0;
#X connect 90 1 78 0;
#X connect 91 0 76 1;
#X connect 91 0 79 1;
#X connect 91 0 80 1;
#X connect 91 0 81 1;
#X connect 91 0 82 1;
#X connect 91 0 83 1;
#X connect 91 0 84 1;
#X connect 91 0 85 1;
#X connect 91 0 86 1;
#X connect 91 0 87 1;
#X connect 91 0 88 1;
#X connect 91 0 89 1;
#X connect 92 0 3 2;
#X connect 92 0 5 2;
#X connect 92 0 7 2;
#X connect 92 0 9 2;
#X connect 92 0 11 2;
#X connect 92 0 14 2;
#X connect 92 0 16 2;
#X connect 92 0 18 2;
#X connect 92 0 20 2;
#X connect 92 0 22 2;
#X connect 92 0 24 2;
#X connect 92 0 25 2;
#X connect 92 0 26 2;
#X connect 92 0 27 2;
#X connect 92 0 28 2;
#X connect 92 0 29 2;
#X connect 92 0 30 2;
#X connect 92 0 31 2;
#X connect 92 0 32 2;
#X connect 92 0 33 2;
#X connect 92 0 44 2;
#X connect 92 0 45 2;
#X connect 92 0 46 2;
#X connect 92 0 47 2;
#X connect 94 0 95 0;
#X connect 95 0 96 0;
#X connect 96 0 92 0;
#X restore 154 596 pd pulses;
#X obj 224 638 loadbang;
#X obj 174 718 spigot 1;
#X obj 224 681 tgl 19 0 empty empty global\ OFF\ leds 0 -10 0 12 #fcfcfc #000000 #000000 0 1;
#N canvas 517 301 806 435 debug 0;
#N canvas 655 223 913 663 test-chenillard 0;
#X obj 119 181 i 0;
#X obj 200 184 + 1;
#X obj 99 121 bng 19 250 50 0 empty empty empty 0 -10 0 12 #fcfcfc #000000 #000000;
#X msg 139 142 0;
#X obj 129 290 nbx 5 17 -1e+37 1e+37 0 0 empty empty empty 0 -10 0 12 #fcfcfc #000000 #000000 0 256;
#X obj 179 345 t b f b;
#X msg 399 404 clear1;
#X msg 129 395 update;
#X msg 186 426 pix1 \$1 200 200 200;
#X obj 142 27 inlet;
#X obj 97 91 metro 500;
#X obj 90 227 sel 26;
#X obj 81 38 tgl 19 0 empty empty empty 0 -10 0 12 #fcfcfc #000000 #000000 0 1;
#X msg 382 270 pix1 1 200 200 200;
#X obj 278 523 outlet;
#X connect 0 0 1 0;
#X connect 0 0 4 0;
#X connect 0 0 11 0;
#X connect 1 0 0 1;
#X connect 2 0 0 0;
#X connect 3 0 0 0;
#X connect 4 0 5 0;
#X connect 5 0 7 0;
#X connect 5 1 8 0;
#X connect 5 2 6 0;
#X connect 6 0 14 0;
#X connect 7 0 14 0;
#X connect 8 0 14 0;
#X connect 9 0 10 0;
#X connect 10 0 2 0;
#X connect 11 0 3 0;
#X connect 12 0 10 0;
#X connect 13 0 14 0;
#X restore 48 83 pd test-chenillard;
#X obj 41 26 tgl 19 0 empty empty empty 0 -10 0 12 #fcfcfc #000000 #000000 0 1;
#X obj 50 176 outlet;
#X msg 192 39 clear1;
#X msg 218 182 update;
#X obj 309 113 t b a;
#X msg 308 151 all \$1 \$2 \$3;
#X msg 306 74 250 250 120;
#X msg 419 82 128 128 60;
#X connect 0 0 2 0;
#X connect 1 0 0 0;
#X connect 3 0 2 0;
#X connect 4 0 2 0;
#X connect 5 0 4 0;
#X connect 5 1 6 0;
#X connect 6 0 2 0;
#X connect 7 0 5 0;
#X connect 8 0 5 0;
#X restore 273 682 pd debug;
#N canvas 445 241 1288 577 receive_params 0;
#X obj 87 121 iemnet/udpreceive 8012;
#X obj 104 198 osc/unpackOSC;
#N canvas 92 131 1254 789 sensors 0;
#X obj 146 129 nbx 5 17 -1e+37 1e+37 0 0 empty empty 0 -18 10 0 12 #fcfcfc #000000 #000000 0 256;
#X obj 146 157 nbx 5 17 -1e+37 1e+37 0 0 empty empty 1 -18 10 0 12 #fcfcfc #000000 #000000 0 256;
#X obj 146 185 nbx 5 17 -1e+37 1e+37 0 0 empty empty 2 -18 10 0 12 #fcfcfc #000000 #000000 0 256;
#X obj 146 213 nbx 5 17 -1e+37 1e+37 0 0 empty empty 3 -18 10 0 12 #fcfcfc #000000 #000000 0 256;
#X obj 146 241 nbx 5 17 -1e+37 1e+37 0 0 empty empty 4 -18 10 0 12 #fcfcfc #000000 #000000 0 256;
#X obj 146 269 nbx 5 17 -1e+37 1e+37 0 0 empty empty 5 -18 10 0 12 #fcfcfc #000000 #000000 0 256;
#X obj 290 131 nbx 5 17 -1e+37 1e+37 0 0 empty empty 6 -18 10 0 12 #fcfcfc #000000 #000000 0 256;
#X obj 290 159 nbx 5 17 -1e+37 1e+37 0 0 empty empty 7 -18 10 0 12 #fcfcfc #000000 #000000 0 256;
#X obj 290 187 nbx 5 17 -1e+37 1e+37 0 0 empty empty 8 -18 10 0 12 #fcfcfc #000000 #000000 0 256;
#X obj 290 215 nbx 5 17 -1e+37 1e+37 0 0 empty empty 9 -18 10 0 12 #fcfcfc #000000 #000000 0 256;
#X obj 290 243 nbx 5 17 -1e+37 1e+37 0 0 empty empty 10 -18 10 0 12 #fcfcfc #000000 #000000 0 256;
#X obj 290 271 nbx 5 17 -1e+37 1e+37 0 0 empty empty 11 -18 10 0 12 #fcfcfc #000000 #000000 0 256;
#X obj 457 -89 inlet;
#X obj 105 129 bng 19 250 50 0 empty empty empty 0 -10 0 12 #fcfcfc #000000 #000000;
#X obj 105 157 bng 19 250 50 0 empty empty empty 0 -10 0 12 #fcfcfc #000000 #000000;
#X obj 105 185 bng 19 250 50 0 empty empty empty 0 -10 0 12 #fcfcfc #000000 #000000;
#X obj 105 213 bng 19 250 50 0 empty empty empty 0 -10 0 12 #fcfcfc #000000 #000000;
#X obj 105 241 bng 19 250 50 0 empty empty empty 0 -10 0 12 #fcfcfc #000000 #000000;
#X obj 105 269 bng 19 250 50 0 empty empty empty 0 -10 0 12 #fcfcfc #000000 #000000;
#X obj 249 131 bng 19 250 50 0 empty empty empty 0 -10 0 12 #fcfcfc #000000 #000000;
#X obj 249 159 bng 19 250 50 0 empty empty empty 0 -10 0 12 #fcfcfc #000000 #000000;
#X obj 249 187 bng 19 250 50 0 empty empty empty 0 -10 0 12 #fcfcfc #000000 #000000;
#X obj 249 215 bng 19 250 50 0 empty empty empty 0 -10 0 12 #fcfcfc #000000 #000000;
#X obj 249 243 bng 19 250 50 0 empty empty empty 0 -10 0 12 #fcfcfc #000000 #000000;
#X obj 249 271 bng 19 250 50 0 empty empty empty 0 -10 0 12 #fcfcfc #000000 #000000;
#X obj 69 64 unpack f f;
#X obj 213 129 tgl 19 0 empty empty empty 0 -10 0 12 #fcfcfc #000000 #000000 0 1;
#X obj 459 -57 route 0 1 2 3 4 5 6 7 8 9 10 11;
#X obj 213 157 tgl 19 0 empty empty empty 0 -10 0 12 #fcfcfc #000000 #000000 0 1;
#X obj 213 185 tgl 19 0 empty empty empty 0 -10 0 12 #fcfcfc #000000 #000000 0 1;
#X obj 213 213 tgl 19 0 empty empty empty 0 -10 0 12 #fcfcfc #000000 #000000 0 1;
#X obj 213 241 tgl 19 0 empty empty empty 0 -10 0 12 #fcfcfc #000000 #000000 0 1;
#X obj 213 269 tgl 19 0 empty empty empty 0 -10 0 12 #fcfcfc #000000 #000000 0 1;
#X obj 358 130 tgl 19 0 empty empty empty 0 -10 0 12 #fcfcfc #000000 #000000 0 1;
#X obj 358 158 tgl 19 0 empty empty empty 0 -10 0 12 #fcfcfc #000000 #000000 0 1;
#X obj 358 186 tgl 19 0 empty empty empty 0 -10 0 12 #fcfcfc #000000 #000000 0 1;
#X obj 358 214 tgl 19 0 empty empty empty 0 -10 0 12 #fcfcfc #000000 #000000 0 1;
#X obj 358 242 tgl 19 0 empty empty empty 0 -10 0 12 #fcfcfc #000000 #000000 0 1;
#X obj 358 270 tgl 19 0 empty empty empty 0 -10 0 12 #fcfcfc #000000 #000000 0 1;
#X obj 150 64 unpack f f;
#X obj 237 64 unpack f f;
#X obj 333 64 unpack f f;
#X obj 418 64 unpack f f;
#X obj 505 64 unpack f f;
#X obj 596 64 unpack f f;
#X obj 677 64 unpack f f;
#X obj 764 64 unpack f f;
#X obj 860 64 unpack f f;
#X obj 945 64 unpack f f;
#X obj 1032 64 unpack f f;
#X connect 12 0 27 0;
#X connect 25 0 0 0;
#X connect 25 0 13 0;
#X connect 25 1 26 0;
#X connect 27 0 25 0;
#X connect 27 1 39 0;
#X connect 27 2 40 0;
#X connect 27 3 41 0;
#X connect 27 4 42 0;
#X connect 27 5 43 0;
#X connect 27 6 44 0;
#X connect 27 7 45 0;
#X connect 27 8 46 0;
#X connect 27 9 47 0;
#X connect 27 10 48 0;
#X connect 27 11 49 0;
#X connect 39 0 14 0;
#X connect 39 0 1 0;
#X connect 39 1 28 0;
#X connect 40 0 15 0;
#X connect 40 0 2 0;
#X connect 40 1 29 0;
#X connect 41 0 16 0;
#X connect 41 0 3 0;
#X connect 41 1 30 0;
#X connect 42 0 17 0;
#X connect 42 0 4 0;
#X connect 42 1 31 0;
#X connect 43 0 18 0;
#X connect 43 0 5 0;
#X connect 43 1 32 0;
#X connect 44 0 19 0;
#X connect 44 0 6 0;
#X connect 44 1 33 0;
#X connect 45 0 20 0;
#X connect 45 0 7 0;
#X connect 45 1 34 0;
#X connect 46 0 21 0;
#X connect 46 0 8 0;
#X connect 46 1 35 0;
#X connect 47 0 22 0;
#X connect 47 0 9 0;
#X connect 47 1 36 0;
#X connect 48 0 23 0;
#X connect 48 0 10 0;
#X connect 48 1 37 0;
#X connect 49 0 24 0;
#X connect 49 0 11 0;
#X connect 49 1 38 0;
#X coords 0 -1 1 1 280 200 1 100 100;
#X restore 717 138 pd sensors;
#X obj 83 465 outlet;
#X obj 286 12 r init2-bang;
#X obj 325 360 spigot 0;
#X obj 374 315 tgl 19 0 empty empty empty 0 -10 0 12 #fcfcfc #000000 #000000 0 1;
#X obj 324 399 print osc-inputs;
#X obj 352 256 route /sensor;
#X connect 0 0 1 0;
#X connect 1 0 3 0;
#X connect 1 0 5 0;
#X connect 1 0 8 0;
#X connect 5 0 7 0;
#X connect 6 0 5 1;
#X connect 8 0 2 0;
#X restore 251 43 pd receive_params;
#X obj 471 116 sound/main_audio;
#X obj 51 29 bng 19 250 50 0 empty empty reload\ config\ file 0 -10 0 12 #fcfcfc #000000 #000000;
#X obj 274 716 spigot 0;
#X obj 369 684 tgl 19 0 empty empty debug\ mode 0 -10 0 12 #fcfcfc #000000 #000000 0 1;
#X obj 542 254 re-pulse;
#X obj 886 222 bng 19 250 50 0 empty empty empty 0 -10 0 12 #fcfcfc #000000 #000000;
#X obj 885 103 loadbang;
#X obj 885 189 metro 2000;
#X obj 885 154 tgl 19 0 empty empty empty 0 -10 0 12 #fcfcfc #000000 #000000 0 1;
#X msg 295 489 all \$1;
#X obj 298 458 tgl 19 0 empty empty empty 0 -10 0 12 #fcfcfc #000000 #000000 0 1;
#X obj 149 542 meteo ---;
#N canvas 701 229 870 573 anim-state 0;
#X obj 49 24 inlet;
#X obj 120 388 outlet;
#X obj 82 115 change;
#X msg 83 88 \$1;
#X obj 129 271 nbx 5 17 -1e+37 1e+37 0 0 empty empty empty 0 -10 0 12 #fcfcfc #000000 #000000 0 256;
#X obj 208 114 f 0;
#X obj 207 152 nbx 5 17 -1e+37 1e+37 0 0 empty empty empty 0 -10 0 12 #fcfcfc #000000 #000000 0 256;
#X msg 81 209 -1;
#X obj 342 29 inlet;
#X obj 82 150 t b b;
#X msg 355 345 reset;
#X obj 403 286 spigot 0;
#X msg 463 248 1;
#X obj 470 434 bng 19 250 50 0 empty empty empty 0 -10 0 12 #fcfcfc #000000 #000000;
#X obj 14 473 print START-HOUR-ANIM;
#X obj 551 471 print END-HOUR-ANIM;
#X obj 493 185 t b b;
#X msg 495 248 0;
#X obj 409 389 counter 4;
#X obj 557 86 bng 19 250 50 0 empty empty empty 0 -10 0 12 #fcfcfc #000000 #000000;
#X obj 559 124 config-query hour-anim-cycles;
#X obj 563 293 nbx 5 17 -1e+37 1e+37 0 0 empty empty empty 0 -10 0 12 #fcfcfc #000000 #000000 0 256;
#X obj 564 216 * 2;
#X obj 511 296 tgl 19 0 empty empty empty 0 -10 0 12 #fcfcfc #000000 #000000 0 1;
#X obj 708 504 outlet;
#X obj 82 60 route /clock /day-state brightness;
#X obj 690 363 f;
#X obj 680 286 bng 19 250 50 0 empty empty empty 0 -10 0 12 #fcfcfc #000000 #000000;
#X connect 0 0 25 0;
#X connect 2 0 9 0;
#X connect 2 0 14 0;
#X connect 3 0 2 0;
#X connect 4 0 1 0;
#X connect 5 0 6 0;
#X connect 5 0 4 0;
#X connect 7 0 4 0;
#X connect 8 0 11 0;
#X connect 9 0 7 0;
#X connect 9 0 12 0;
#X connect 9 1 10 0;
#X connect 10 0 18 0;
#X connect 11 0 18 0;
#X connect 12 0 11 1;
#X connect 12 0 23 0;
#X connect 12 0 24 0;
#X connect 13 0 16 0;
#X connect 16 0 5 0;
#X connect 16 1 17 0;
#X connect 17 0 11 1;
#X connect 17 0 23 0;
#X connect 17 0 27 0;
#X connect 18 1 13 0;
#X connect 18 1 15 0;
#X connect 19 0 20 0;
#X connect 20 0 22 0;
#X connect 21 0 18 1;
#X connect 22 0 21 0;
#X connect 25 0 3 0;
#X connect 25 1 5 1;
#X connect 25 1 4 0;
#X connect 25 2 26 1;
#X connect 26 0 24 0;
#X connect 27 0 26 0;
#X restore 149 428 pd anim-state;
#N canvas 850 194 548 343 map-audio-msgs 0;
#X obj 74 72 inlet;
#X obj 59 289 outlet;
#X obj 75 150 route /clock /nebulosity /sensor;
#X msg 65 216 clock \$1 \$2;
#X msg 179 217 luminosity \$1;
#X msg 304 217 sensor \$1 \$2 \$3;
#X connect 0 0 2 0;
#X connect 2 0 3 0;
#X connect 2 1 4 0;
#X connect 2 2 5 0;
#X connect 3 0 1 0;
#X connect 4 0 1 0;
#X connect 5 0 1 0;
#X restore 469 77 pd map-audio-msgs;
#N canvas 795 341 733 434 map-anim-msgs 0;
#X obj 41 58 inlet;
#X obj 33 289 outlet;
#X msg 95 221 brightness \$1;
#X msg 347 224 sun-luminosity \$1;
#X msg 227 221 etalement \$1;
#X obj 74 116 route /nebulosity /luminosity;
#X obj 501 34 vsl 19 162 1 10 0 0 empty empty empty 0 -9 0 12 #fcfcfc #000000 #000000 0 1;
#X msg 510 226 sun-freq \$1;
#X obj 553 174 nbx 5 17 -1e+37 1e+37 0 0 empty empty empty 0 -10 0 12 #fcfcfc #000000 #000000 0 256;
#X connect 0 0 1 0;
#X connect 0 0 5 0;
#X connect 2 0 1 0;
#X connect 3 0 1 0;
#X connect 4 0 1 0;
#X connect 5 0 2 0;
#X connect 5 1 4 0;
#X connect 5 1 3 0;
#X connect 6 0 7 0;
#X connect 6 0 8 0;
#X connect 7 0 1 0;
#X restore 265 104 pd map-anim-msgs;
#X obj 263 416 route brightness;
#X connect 2 0 4 0;
#X connect 3 0 5 0;
#X connect 4 0 1 0;
#X connect 5 0 4 1;
#X connect 6 0 10 0;
#X connect 7 0 21 0;
#X connect 7 0 22 0;
#X connect 9 0 0 0;
#X connect 10 0 1 0;
#X connect 11 0 10 1;
#X connect 12 0 2 3;
#X connect 13 0 12 1;
#X connect 14 0 16 0;
#X connect 15 0 13 0;
#X connect 16 0 15 0;
#X connect 17 0 2 3;
#X connect 18 0 17 0;
#X connect 19 0 2 0;
#X connect 19 1 2 1;
#X connect 19 2 2 2;
#X connect 19 3 20 1;
#X connect 20 0 19 1;
#X connect 20 1 2 4;
#X connect 21 0 8 0;
#X connect 22 0 19 0;
#X connect 22 0 20 0;
#X connect 22 0 23 0;
#X connect 22 0 12 0;
#X connect 23 0 2 4;
