#N canvas 349 182 934 815 12;
#N canvas 602 39 764 256 init 0;
#X obj 278 132 config config-dev.txt;
#X obj 145 16 loadbang;
#X obj 145 41 t b b b;
#X obj 41 132 s init2-bang;
#X obj 145 64 bng 19 250 50 0 empty empty empty 0 -10 0 12 #fcfcfc #000000 #000000;
#X obj 145 156 s reload-config;
#X obj 145 91 t b b;
#X obj 279 84 bng 19 250 50 0 empty empty empty 0 -10 0 12 #fcfcfc #000000 #000000;
#X obj 309 24 inlet;
#X obj 472 141 text define -k start-seq;
#A set 1 4000 \; 0 3000 \; 1 3000 \; 0 4000 \; 1 5000 \; 0 6000 \; 1 4000 \; 0 4000 \; 1 6000 \; 0 3000 \; 1 3000 \; 0 3000 \;;
#X connect 1 0 2 0;
#X connect 2 0 3 0;
#X connect 2 1 4 0;
#X connect 2 2 0 0;
#X connect 4 0 6 0;
#X connect 6 0 5 0;
#X connect 6 1 0 0;
#X connect 7 0 0 0;
#X connect 8 0 2 0;
#X restore 52 53 pd init;
#X obj 423 745 display;
#N canvas 149 59 1651 1030 pulses 0;
#X obj 1979 1018 outlet;
#X obj 1812 201 sun-grad;
#X msg 435 307 update;
#X obj 12 658 color-lerp;
#X msg 12 683 pix1 0 \$1 \$2 \$3;
#X obj 134 658 color-lerp;
#X msg 134 683 pix1 1 \$1 \$2 \$3;
#X obj 262 658 color-lerp;
#X msg 262 683 pix1 2 \$1 \$2 \$3;
#X obj 387 658 color-lerp;
#X msg 387 683 pix1 3 \$1 \$2 \$3;
#X obj 509 658 color-lerp;
#X msg 509 683 pix1 4 \$1 \$2 \$3;
#X obj 1925 441 route 0 1 2 3 4 5 6 7 8 9 10 11 12 13 14 15 16 17 18 19 20 21 22 23, f 100;
#X obj 626 658 color-lerp;
#X msg 626 683 pix1 5 \$1 \$2 \$3;
#X obj 748 658 color-lerp;
#X msg 748 683 pix1 6 \$1 \$2 \$3;
#X obj 876 658 color-lerp;
#X msg 876 683 pix1 7 \$1 \$2 \$3;
#X obj 999 658 color-lerp;
#X msg 999 683 pix1 8 \$1 \$2 \$3;
#X obj 1120 658 color-lerp;
#X msg 1120 683 pix1 9 \$1 \$2 \$3;
#X obj 1251 659 color-lerp;
#X obj 1373 659 color-lerp;
#X obj 1501 659 color-lerp;
#X obj 1626 659 color-lerp;
#X obj 1748 659 color-lerp;
#X obj 1865 659 color-lerp;
#X obj 1987 659 color-lerp;
#X obj 2115 659 color-lerp;
#X obj 2238 659 color-lerp;
#X obj 2359 659 color-lerp;
#X msg 1251 684 pix1 10 \$1 \$2 \$3;
#X msg 1373 684 pix1 11 \$1 \$2 \$3;
#X msg 1501 684 pix1 12 \$1 \$2 \$3;
#X msg 1626 684 pix1 13 \$1 \$2 \$3;
#X msg 1748 684 pix1 14 \$1 \$2 \$3;
#X msg 1865 684 pix1 15 \$1 \$2 \$3;
#X msg 1987 684 pix1 16 \$1 \$2 \$3;
#X msg 2115 684 pix1 17 \$1 \$2 \$3;
#X msg 2238 684 pix1 18 \$1 \$2 \$3;
#X msg 2359 684 pix1 19 \$1 \$2 \$3;
#X obj 2513 662 color-lerp;
#X obj 2641 662 color-lerp;
#X obj 2782 665 color-lerp;
#X obj 2903 665 color-lerp;
#X msg 2513 687 pix1 20 \$1 \$2 \$3;
#X msg 2641 687 pix1 21 \$1 \$2 \$3;
#X msg 2782 690 pix1 22 \$1 \$2 \$3;
#X msg 2903 690 pix1 23 \$1 \$2 \$3;
#X obj 675 215 t b f b;
#X msg 1092 409 0 0 0;
#X obj 1807 69 t l b;
#X obj 692 71 inlet;
#X obj 1807 37 inlet;
#X obj 1811 236 route;
#X obj 2354 227 + 1;
#X obj 1842 280 route;
#X obj 2105 287 i;
#X obj 2326 366 i;
#X obj 1811 273 bng 19 250 50 0 empty empty empty 0 -10 0 12 #fcfcfc #000000 #000000;
#X obj 1837 313 bng 19 250 50 0 empty empty empty 0 -10 0 12 #fcfcfc #000000 #000000;
#X obj 1976 171 nbx 5 17 -1e+37 1e+37 0 0 empty empty empty 0 -10 0 12 #fcfcfc #000000 #000000 0 256;
#X text 2050 170 index led de l'heure (0->0h \, 2->1h \, 12->6h \, etc.);
#X obj 1974 141 mod 24;
#X obj 2222 28 inlet;
#X obj 2126 325 pack f f f f;
#X obj 2144 287 unpack f f f;
#X text 2268 27 couleur du soleil;
#X msg 1974 116 \$8;
#X obj 2318 396 pack f f f f;
#X obj 2362 366 unpack f f f;
#X msg 2169 229 \$1 \$2 \$3;
#X msg 2372 268 \$4 \$5 \$6;
#X obj 2297 870 spigot 1;
#X obj 2594 41 inlet mask-anim-mendo;
#X obj 2565 109 route 0 1 2 3 4 5 6 7 8 9 10 11;
#X obj 2208 870 spigot 1;
#X obj 2109 870 spigot 1;
#X obj 2009 870 spigot 1;
#X obj 1883 870 spigot 1;
#X obj 1768 870 spigot 1;
#X obj 1634 870 spigot 1;
#X obj 1546 870 spigot 1;
#X obj 1426 870 spigot 1;
#X obj 1315 870 spigot 1;
#X obj 1224 870 spigot 1;
#X obj 1079 870 spigot 1;
#X connect 1 0 57 0;
#X connect 2 0 0 0;
#X connect 3 0 4 0;
#X connect 4 0 89 0;
#X connect 5 0 6 0;
#X connect 6 0 89 0;
#X connect 7 0 8 0;
#X connect 8 0 88 0;
#X connect 9 0 10 0;
#X connect 10 0 88 0;
#X connect 11 0 12 0;
#X connect 12 0 87 0;
#X connect 13 0 3 1;
#X connect 13 1 5 1;
#X connect 13 2 7 1;
#X connect 13 3 9 1;
#X connect 13 4 11 1;
#X connect 13 5 14 1;
#X connect 13 6 16 1;
#X connect 13 7 18 1;
#X connect 13 8 20 1;
#X connect 13 9 22 1;
#X connect 13 10 24 1;
#X connect 13 11 25 1;
#X connect 13 12 26 1;
#X connect 13 13 27 1;
#X connect 13 14 28 1;
#X connect 13 15 29 1;
#X connect 13 16 30 1;
#X connect 13 17 31 1;
#X connect 13 18 32 1;
#X connect 13 19 33 1;
#X connect 13 20 44 1;
#X connect 13 21 45 1;
#X connect 13 22 46 1;
#X connect 13 23 47 1;
#X connect 14 0 15 0;
#X connect 15 0 87 0;
#X connect 16 0 17 0;
#X connect 17 0 86 0;
#X connect 18 0 19 0;
#X connect 19 0 86 0;
#X connect 20 0 21 0;
#X connect 21 0 85 0;
#X connect 22 0 23 0;
#X connect 23 0 85 0;
#X connect 24 0 34 0;
#X connect 25 0 35 0;
#X connect 26 0 36 0;
#X connect 27 0 37 0;
#X connect 28 0 38 0;
#X connect 29 0 39 0;
#X connect 30 0 40 0;
#X connect 31 0 41 0;
#X connect 32 0 42 0;
#X connect 33 0 43 0;
#X connect 34 0 84 0;
#X connect 35 0 84 0;
#X connect 36 0 83 0;
#X connect 37 0 83 0;
#X connect 38 0 82 0;
#X connect 39 0 82 0;
#X connect 40 0 81 0;
#X connect 41 0 81 0;
#X connect 42 0 80 0;
#X connect 43 0 80 0;
#X connect 44 0 48 0;
#X connect 45 0 49 0;
#X connect 46 0 50 0;
#X connect 47 0 51 0;
#X connect 48 0 79 0;
#X connect 49 0 79 0;
#X connect 50 0 76 0;
#X connect 51 0 76 0;
#X connect 52 0 2 0;
#X connect 52 1 3 0;
#X connect 52 1 5 0;
#X connect 52 1 7 0;
#X connect 52 1 9 0;
#X connect 52 1 11 0;
#X connect 52 1 14 0;
#X connect 52 1 16 0;
#X connect 52 1 18 0;
#X connect 52 1 20 0;
#X connect 52 1 22 0;
#X connect 52 1 24 0;
#X connect 52 1 25 0;
#X connect 52 1 26 0;
#X connect 52 1 27 0;
#X connect 52 1 28 0;
#X connect 52 1 29 0;
#X connect 52 1 30 0;
#X connect 52 1 31 0;
#X connect 52 1 32 0;
#X connect 52 1 33 0;
#X connect 52 1 44 0;
#X connect 52 1 45 0;
#X connect 52 1 46 0;
#X connect 52 1 47 0;
#X connect 53 0 3 1;
#X connect 53 0 5 1;
#X connect 53 0 7 1;
#X connect 53 0 9 1;
#X connect 53 0 11 1;
#X connect 53 0 14 1;
#X connect 53 0 16 1;
#X connect 53 0 18 1;
#X connect 53 0 20 1;
#X connect 53 0 22 1;
#X connect 53 0 24 1;
#X connect 53 0 25 1;
#X connect 53 0 26 1;
#X connect 53 0 27 1;
#X connect 53 0 28 1;
#X connect 53 0 29 1;
#X connect 53 0 30 1;
#X connect 53 0 31 1;
#X connect 53 0 32 1;
#X connect 53 0 33 1;
#X connect 53 0 44 1;
#X connect 53 0 45 1;
#X connect 53 0 46 1;
#X connect 53 0 47 1;
#X connect 54 0 1 0;
#X connect 54 0 71 0;
#X connect 54 1 53 0;
#X connect 55 0 52 0;
#X connect 56 0 54 0;
#X connect 57 0 62 0;
#X connect 57 1 59 0;
#X connect 58 0 59 1;
#X connect 58 0 61 1;
#X connect 59 0 63 0;
#X connect 59 1 13 0;
#X connect 60 0 68 0;
#X connect 61 0 72 0;
#X connect 62 0 60 0;
#X connect 63 0 61 0;
#X connect 66 0 64 0;
#X connect 66 0 57 1;
#X connect 66 0 60 1;
#X connect 66 0 58 0;
#X connect 67 0 74 0;
#X connect 67 0 75 0;
#X connect 68 0 13 0;
#X connect 69 0 68 1;
#X connect 69 1 68 2;
#X connect 69 2 68 3;
#X connect 71 0 66 0;
#X connect 72 0 13 0;
#X connect 73 0 72 1;
#X connect 73 1 72 2;
#X connect 73 2 72 3;
#X connect 74 0 69 0;
#X connect 75 0 73 0;
#X connect 76 0 0 0;
#X connect 77 0 78 0;
#X connect 78 0 89 1;
#X connect 78 1 88 1;
#X connect 78 2 87 1;
#X connect 78 3 86 1;
#X connect 78 4 85 1;
#X connect 78 5 84 1;
#X connect 78 6 83 1;
#X connect 78 7 82 1;
#X connect 78 8 81 1;
#X connect 78 9 80 1;
#X connect 78 10 79 1;
#X connect 78 11 76 1;
#X connect 79 0 0 0;
#X connect 80 0 0 0;
#X connect 81 0 0 0;
#X connect 82 0 0 0;
#X connect 83 0 0 0;
#X connect 84 0 0 0;
#X connect 85 0 0 0;
#X connect 86 0 0 0;
#X connect 87 0 0 0;
#X connect 88 0 0 0;
#X connect 89 0 0 0;
#X restore 43 601 pd pulses;
#X obj 474 622 loadbang;
#X obj 424 702 spigot 1;
#X obj 474 665 tgl 19 0 empty empty global\ OFF\ leds 0 -10 0 12 #fcfcfc #000000 #000000 0 1;
#N canvas 63 102 450 300 debug 0;
#N canvas 150 102 913 663 test-chenillard 0;
#X obj 119 181 i 0;
#X obj 200 184 + 1;
#X obj 99 121 bng 19 250 50 0 empty empty empty 0 -10 0 12 #fcfcfc #000000 #000000;
#X msg 139 142 0;
#X obj 129 290 nbx 5 17 -1e+37 1e+37 0 0 empty empty empty 0 -10 0 12 #fcfcfc #000000 #000000 0 256;
#X obj 179 345 t b f b;
#X msg 399 404 clear1;
#X msg 129 395 update;
#X msg 186 426 pix1 \$1 200 200 200;
#X obj 233 597 outlet;
#X obj 142 27 inlet;
#X obj 278 523 spigot 0;
#X obj 97 91 metro 500;
#X obj 90 227 sel 26;
#X obj 81 38 tgl 19 0 empty empty empty 0 -10 0 12 #fcfcfc #000000 #000000 0 1;
#X msg 382 270 pix1 1 200 200 200;
#X connect 0 0 1 0;
#X connect 0 0 4 0;
#X connect 0 0 13 0;
#X connect 1 0 0 1;
#X connect 2 0 0 0;
#X connect 3 0 0 0;
#X connect 4 0 5 0;
#X connect 5 0 7 0;
#X connect 5 1 8 0;
#X connect 5 2 6 0;
#X connect 6 0 11 0;
#X connect 7 0 11 0;
#X connect 8 0 11 0;
#X connect 10 0 11 1;
#X connect 10 0 12 0;
#X connect 11 0 9 0;
#X connect 12 0 2 0;
#X connect 13 0 3 0;
#X connect 14 0 12 0;
#X connect 15 0 11 0;
#X restore 48 83 pd test-chenillard;
#X obj 41 26 tgl 19 0 empty empty empty 0 -10 0 12 #fcfcfc #000000 #000000 0 1;
#X obj 50 176 outlet;
#X connect 0 0 2 0;
#X connect 1 0 0 0;
#X restore 523 666 pd debug;
#N canvas 463 264 1288 577 receive_params 0;
#X obj 87 121 iemnet/udpreceive 8012;
#X obj 104 198 osc/unpackOSC;
#X text 47 365 clock -> hh mm;
#X text 333 403 luminosity ->[0 \, 1];
#X obj 454 349 print receive_params other osc msg;
#X obj 86 345 bng 19 250 50 0 empty empty empty 0 -10 0 12 #fcfcfc #000000 #000000;
#X text 569 403 sensor ID speed;
#N canvas 92 131 1254 789 sensors 0;
#X obj 163 41 route 0 1 2 3 4 5 6 7 8 9 10 11;
#X obj 169 118 nbx 5 17 -1e+37 1e+37 0 0 empty empty 0 -18 10 0 12 #fcfcfc #000000 #000000 0 256;
#X obj 169 146 nbx 5 17 -1e+37 1e+37 0 0 empty empty 1 -18 10 0 12 #fcfcfc #000000 #000000 0 256;
#X obj 169 174 nbx 5 17 -1e+37 1e+37 0 0 empty empty 2 -18 10 0 12 #fcfcfc #000000 #000000 0 256;
#X obj 169 202 nbx 5 17 -1e+37 1e+37 0 0 empty empty 3 -18 10 0 12 #fcfcfc #000000 #000000 0 256;
#X obj 169 230 nbx 5 17 -1e+37 1e+37 0 0 empty empty 4 -18 10 0 12 #fcfcfc #000000 #000000 0 256;
#X obj 169 258 nbx 5 17 -1e+37 1e+37 0 0 empty empty 5 -18 10 0 12 #fcfcfc #000000 #000000 0 256;
#X obj 286 118 nbx 5 17 -1e+37 1e+37 0 0 empty empty 6 -18 10 0 12 #fcfcfc #000000 #000000 0 256;
#X obj 286 146 nbx 5 17 -1e+37 1e+37 0 0 empty empty 7 -18 10 0 12 #fcfcfc #000000 #000000 0 256;
#X obj 286 174 nbx 5 17 -1e+37 1e+37 0 0 empty empty 8 -18 10 0 12 #fcfcfc #000000 #000000 0 256;
#X obj 286 202 nbx 5 17 -1e+37 1e+37 0 0 empty empty 9 -18 10 0 12 #fcfcfc #000000 #000000 0 256;
#X obj 286 230 nbx 5 17 -1e+37 1e+37 0 0 empty empty 10 -18 10 0 12 #fcfcfc #000000 #000000 0 256;
#X obj 286 258 nbx 5 17 -1e+37 1e+37 0 0 empty empty 11 -18 10 0 12 #fcfcfc #000000 #000000 0 256;
#X obj 122 -24 inlet;
#X obj 127 118 bng 19 250 50 0 empty empty empty 0 -10 0 12 #fcfcfc #000000 #000000;
#X obj 127 146 bng 19 250 50 0 empty empty empty 0 -10 0 12 #fcfcfc #000000 #000000;
#X obj 127 174 bng 19 250 50 0 empty empty empty 0 -10 0 12 #fcfcfc #000000 #000000;
#X obj 127 202 bng 19 250 50 0 empty empty empty 0 -10 0 12 #fcfcfc #000000 #000000;
#X obj 127 230 bng 19 250 50 0 empty empty empty 0 -10 0 12 #fcfcfc #000000 #000000;
#X obj 127 258 bng 19 250 50 0 empty empty empty 0 -10 0 12 #fcfcfc #000000 #000000;
#X obj 245 118 bng 19 250 50 0 empty empty empty 0 -10 0 12 #fcfcfc #000000 #000000;
#X obj 245 146 bng 19 250 50 0 empty empty empty 0 -10 0 12 #fcfcfc #000000 #000000;
#X obj 245 174 bng 19 250 50 0 empty empty empty 0 -10 0 12 #fcfcfc #000000 #000000;
#X obj 245 202 bng 19 250 50 0 empty empty empty 0 -10 0 12 #fcfcfc #000000 #000000;
#X obj 245 230 bng 19 250 50 0 empty empty empty 0 -10 0 12 #fcfcfc #000000 #000000;
#X obj 245 258 bng 19 250 50 0 empty empty empty 0 -10 0 12 #fcfcfc #000000 #000000;
#X connect 0 0 1 0;
#X connect 0 0 14 0;
#X connect 0 1 2 0;
#X connect 0 1 15 0;
#X connect 0 2 3 0;
#X connect 0 2 16 0;
#X connect 0 3 4 0;
#X connect 0 3 17 0;
#X connect 0 4 5 0;
#X connect 0 4 18 0;
#X connect 0 5 6 0;
#X connect 0 5 19 0;
#X connect 0 6 7 0;
#X connect 0 6 20 0;
#X connect 0 7 8 0;
#X connect 0 7 21 0;
#X connect 0 8 9 0;
#X connect 0 8 22 0;
#X connect 0 9 10 0;
#X connect 0 9 23 0;
#X connect 0 10 11 0;
#X connect 0 10 24 0;
#X connect 0 11 12 0;
#X connect 0 11 25 0;
#X connect 13 0 0 0;
#X coords 0 -1 1 1 280 200 1 100 100;
#X restore 717 138 pd sensors;
#X text 748 417 nebulosity ->[0 \, 1];
#X obj 83 465 outlet;
#X obj 343 49 bng 19 250 50 0 empty empty empty 0 -10 0 12 #fcfcfc #000000 #000000;
#X obj 262 402 nbx 5 17 -1e+37 1e+37 0 0 empty empty empty 0 -10 0 12 #fcfcfc #000000 #000000 0 256;
#X msg 476 96 /nebulosity 0;
#X msg 250 84 /clock 0 0;
#X msg 346 93 /luminosity 0.5;
#X obj 276 26 r init2-bang;
#X obj 110 309 route /clock /luminosity /sensor /nebulosity /day;
#X obj 414 497 tgl 19 0 empty empty is\ day 0 -10 0 12 #fcfcfc #000000 #000000 0 1;
#X obj 612 496 nbx 5 17 -1e+37 1e+37 0 0 empty empty empty 0 -10 0 12 #fcfcfc #000000 #000000 0 256;
#X obj 608 465 unpack f f;
#X obj 695 502 nbx 5 17 -1e+37 1e+37 0 0 empty empty empty 0 -10 0 12 #fcfcfc #000000 #000000 0 256;
#X connect 0 0 1 0;
#X connect 1 0 9 0;
#X connect 1 0 16 0;
#X connect 10 0 13 0;
#X connect 10 0 14 0;
#X connect 10 0 12 0;
#X connect 12 0 9 0;
#X connect 13 0 9 0;
#X connect 14 0 9 0;
#X connect 15 0 10 0;
#X connect 16 0 5 0;
#X connect 16 1 11 0;
#X connect 16 2 7 0;
#X connect 16 3 19 0;
#X connect 16 4 17 0;
#X connect 16 5 4 0;
#X connect 19 0 18 0;
#X connect 19 1 20 0;
#X restore 251 43 pd receive_params;
#X obj 46 567 meteo;
#X obj 435 182 tgl 19 0 empty empty empty 0 -10 0 12 #fcfcfc #000000 #000000 0 1;
#X obj 670 90 sound/main_audio;
#X obj 375 235 test-anim;
#X obj 337 180 route 0;
#X obj 336 146 route /sensor;
#X obj 575 257 hour-anim;
#X obj 575 147 route /clock;
#X obj 575 202 change;
#X msg 576 175 \$1;
#X msg 575 230 1;
#X obj 637 318 print hour-anim-done;
#X obj 665 246 print hour-anim-start;
#X obj 511 258 tgl 19 0 empty empty empty 0 -10 0 12 #fcfcfc #000000 #000000 0 1;
#X msg 592 283 0;
#X text 575 555 Etats:;
#X text 574 575 0: pulse météo;
#X text 575 591 1: Changement d'heures: hour-anim;
#X obj 455 581 anims-state;
#X obj 51 29 bng 19 250 50 0 empty empty reload\ config\ file 0 -10 0 12 #fcfcfc #000000 #000000;
#X obj 524 700 spigot 0;
#X obj 619 668 tgl 19 0 empty empty debug\ mode 0 -10 0 12 #fcfcfc #000000 #000000 0 1;
#X obj 451 438 i 0;
#X obj 479 394 loadbang;
#X obj 566 536 nbx 5 17 -1e+37 1e+37 0 0 empty empty empty 0 -10 0 12 #fcfcfc #000000 #000000 0 256;
#X obj 33 293 re-pulse;
#X obj 253 255 bng 19 250 50 0 empty empty empty 0 -10 0 12 #fcfcfc #000000 #000000;
#X obj 40 131 tgl 19 0 empty empty empty 0 -10 0 12 #fcfcfc #000000 #000000 0 1;
#N canvas 247 305 513 532 clock-source 0;
#X obj 29 48 inlet;
#X obj 28 119 metro 500;
#X obj 30 162 bng 19 250 50 0 empty empty empty 0 -10 0 12 #fcfcfc #000000 #000000;
#X msg 207 32 reset;
#X obj 206 69 counter 4;
#X obj 31 332 outlet;
#X obj 158 334 outlet;
#X connect 0 0 1 0;
#X connect 1 0 2 0;
#X connect 1 0 4 0;
#X connect 2 0 5 0;
#X connect 3 0 4 0;
#X connect 4 1 6 0;
#X restore 31 164 pd clock-source;
#X obj 47 104 loadbang;
#X obj 252 222 metro 2000;
#X obj 252 187 tgl 19 0 empty empty empty 0 -10 0 12 #fcfcfc #000000 #000000 0 1;
#X connect 2 0 26 1;
#X connect 3 0 5 0;
#X connect 4 0 1 0;
#X connect 5 0 4 1;
#X connect 6 0 28 0;
#X connect 7 0 10 0;
#X connect 7 0 15 0;
#X connect 7 0 33 0;
#X connect 7 0 8 1;
#X connect 8 0 2 0;
#X connect 8 1 2 1;
#X connect 8 2 2 2;
#X connect 9 0 11 1;
#X connect 12 0 11 0;
#X connect 13 0 12 0;
#X connect 14 0 26 2;
#X connect 14 1 19 0;
#X connect 14 1 22 0;
#X connect 15 0 17 0;
#X connect 16 0 18 0;
#X connect 17 0 16 0;
#X connect 18 0 14 0;
#X connect 18 0 20 0;
#X connect 18 0 21 0;
#X connect 21 0 30 0;
#X connect 22 0 21 0;
#X connect 26 0 4 0;
#X connect 27 0 0 0;
#X connect 28 0 1 0;
#X connect 29 0 28 1;
#X connect 30 0 26 0;
#X connect 30 0 32 0;
#X connect 31 0 30 0;
#X connect 33 0 2 3;
#X connect 33 1 26 1;
#X connect 34 0 33 1;
#X connect 35 0 36 0;
#X connect 36 1 8 0;
#X connect 37 0 35 0;
#X connect 37 0 39 0;
#X connect 38 0 34 0;
#X connect 39 0 38 0;
