#N canvas 439 126 1300 960 12;
#X obj 246 76 config;
#X obj 235 51 bng 19 250 50 0 empty empty empty 0 -10 0 12 #fcfcfc #000000 #000000;
#X text 264 47 reload config;
#N canvas 362 175 1105 643 led-control 0;
#X obj 28 370 display;
#X msg 29 325 clear;
#X msg 244 333 update;
#X msg 330 337 ping;
#X msg 408 339 1 50 40 0;
#X obj 550 89 vsl 19 162 0 255 0 0 empty empty empty 0 -9 0 12 #ff0400 #000000 #000000 0 1;
#X obj 579 88 vsl 19 162 0 255 0 0 empty empty empty 0 -9 0 12 #00ff04 #000000 #000000 0 1;
#X obj 613 88 vsl 19 162 0 255 0 0 empty empty empty 0 -9 0 12 #0400ff #000000 #000000 0 1;
#X obj 624 264 nbx 3 17 -1e+37 1e+37 0 0 empty empty empty 0 -10 0 12 #fcfcfc #000000 #000000 0 256;
#X obj 579 263 nbx 3 17 -1e+37 1e+37 0 0 empty empty empty 0 -10 0 12 #fcfcfc #000000 #000000 0 256;
#X obj 533 265 nbx 3 17 -1e+37 1e+37 0 0 empty empty empty 0 -10 0 12 #fcfcfc #000000 #000000 0 256;
#X obj 535 351 pack f f f;
#X obj 565 305 t b f;
#X obj 617 312 t b f;
#X msg 513 429 all \$1 \$2 \$3;
#X obj 533 398 t b l;
#X msg 111 327 all 255 255 255;
#X msg 121 292 all 40 40 40;
#X msg 247 292 all 0 0 0;
#X obj 72 133 inlet;
#X connect 1 0 0 0;
#X connect 2 0 0 0;
#X connect 3 0 0 0;
#X connect 4 0 0 0;
#X connect 5 0 10 0;
#X connect 6 0 9 0;
#X connect 7 0 8 0;
#X connect 8 0 13 0;
#X connect 9 0 12 0;
#X connect 10 0 11 0;
#X connect 11 0 15 0;
#X connect 12 0 11 0;
#X connect 12 1 11 1;
#X connect 13 0 11 0;
#X connect 13 1 11 2;
#X connect 14 0 0 0;
#X connect 15 0 2 0;
#X connect 15 1 14 0;
#X connect 16 0 0 0;
#X connect 17 0 0 0;
#X connect 18 0 0 0;
#X connect 19 0 0 0;
#X restore 299 154 pd led-control;
#X obj 307 257 state_control;
#X obj 333 306 sequencer;
#X obj 230 527 s testColor;
#X obj 386 587 s testColorUpdate;
#X obj 398 476 s testColorReset;
#X text 393 449 clear screen;
#X text 383 564 Update leds signal;
#X obj 306 407 visualize;
#X obj 584 228 nbx 5 17 -1e+37 1e+37 0 0 empty empty empty 0 -10 0 12 #fcfcfc #000000 #000000 0 256;
#X obj 802 203 vsl 19 162 0 1 0 0 empty empty coeff\ étalement\ tache 0 -9 0 12 #fcfcfc #000000 #000000 0 1;
#N canvas 532 189 716 391 recv-inputs 1;
#X obj 66 108 osc/unpackOSC;
#X obj 66 77 iemnet/udpreceive 8888;
#X obj 123 206 outlet;
#X obj 68 146 route /battery;
#X obj 296 118 osc/unpackOSC;
#X obj 296 87 iemnet/udpreceive 8011;
#X text 86 43 BMS;
#X text 308 56 meteo;
#X obj 301 186 print;
#X obj 468 128 osc/unpackOSC;
#X obj 468 97 iemnet/udpreceive 8012;
#X text 482 67 sensors;
#X obj 440 273 outlet;
#X obj 473 196 route /sensor;
#X connect 0 0 3 0;
#X connect 1 0 0 0;
#X connect 3 0 2 0;
#X connect 4 0 8 0;
#X connect 5 0 4 0;
#X connect 9 0 13 0;
#X connect 10 0 9 0;
#X connect 13 0 12 0;
#X restore 83 143 pd recv-inputs;
#X msg 867 251 1;
#X msg 908 253 0.75;
#X msg 951 256 0.5;
#X msg 987 257 0.25;
#X obj 83 186 nbx 5 17 -1e+37 1e+37 0 0 empty empty %\ batterie\ restante 0 -10 0 12 #fcfcfc #000000 #000000 0 256;
#N canvas 96 218 537 651 clock 0;
#X obj 123 36 loadbang;
#X obj 143 155 bng 19 250 50 0 empty empty empty 0 -10 0 12 #fcfcfc #000000 #000000;
#X obj 137 66 tgl 19 0 empty empty empty 0 -10 0 12 #fcfcfc #000000 #000000 0 1;
#X obj 150 461 outlet;
#X obj 178 327 spigot 1;
#X obj 250 282 tgl 19 0 empty empty controle\ Auto 0 -10 0 12 #fcfcfc #000000 #000000 0 1;
#X obj 174 385 nbx 5 17 -1e+37 1e+37 0 0 empty empty empty 0 -10 0 12 #fcfcfc #000000 #000000 0 256;
#X obj 125 238 time, f 14;
#X obj 343 343 nbx 5 17 -1e+37 1e+37 0 0 empty empty empty 0 -10 0 12 #fcfcfc #000000 #000000 0 256;
#X obj 125 91 metro 1000;
#X obj 428 353 nbx 5 17 -1e+37 1e+37 0 0 empty empty empty 0 -10 0 12 #fcfcfc #000000 #000000 0 256;
#X connect 0 0 2 0;
#X connect 1 0 7 0;
#X connect 2 0 9 0;
#X connect 4 0 6 0;
#X connect 5 0 4 1;
#X connect 6 0 3 0;
#X connect 7 0 4 0;
#X connect 7 1 8 0;
#X connect 7 3 10 0;
#X connect 9 0 1 0;
#X restore 496 62 pd clock;
#X text 563 61 <--- Controle Auto/manuel à l'interieur;
#X obj 36 196 bng 19 250 50 0 empty empty empty 0 -10 0 12 #fcfcfc #000000 #000000;
#X obj 606 358 change;
#X msg 679 458 update;
#X obj 622 264 i;
#X text 703 410 demarrage animation à l'heure;
#N canvas 169 228 1024 701 pulse 0;
#X obj 177 50 route stop reset start;
#X obj 245 15 inlet;
#X obj 188 548 outlet;
#X obj 185 284 tgl 19 0 empty empty empty 0 -10 0 12 #fcfcfc #000000 #000000 0 1;
#X msg 202 156 0;
#X msg 269 164 1;
#X msg 149 250 0;
#X obj 247 319 * 255;
#X obj 300 375 line 20;
#X msg 423 338 0 1000;
#X msg 327 258 0;
#X msg 327 319 \$1 200;
#X msg 425 282 255 200;
#X obj 202 225 metro 4000;
#X obj 656 259 bng 19 250 50 0 empty empty empty 0 -10 0 12 #fcfcfc #000000 #000000;
#X msg 644 409 255 200;
#X msg 776 419 0 200;
#X obj 742 566 line 20;
#X obj 706 271 spigot 1;
#X obj 799 238 tgl 19 0 empty empty empty 0 -10 0 12 #fcfcfc #000000 #000000 0 1;
#X obj 489 63 route stop reset start;
#X msg 799 202 0;
#X msg 652 535 0;
#X msg 835 216 1;
#X obj 784 370 delay 3000;
#X obj 688 315 delay 4000;
#X connect 0 0 4 0;
#X connect 0 0 6 0;
#X connect 0 1 10 0;
#X connect 0 2 5 0;
#X connect 1 0 20 0;
#X connect 3 0 7 0;
#X connect 4 0 13 0;
#X connect 5 0 13 0;
#X connect 6 0 3 0;
#X connect 6 0 9 0;
#X connect 7 0 11 0;
#X connect 9 0 8 0;
#X connect 10 0 8 0;
#X connect 11 0 8 0;
#X connect 12 0 8 0;
#X connect 13 0 3 0;
#X connect 14 0 15 0;
#X connect 14 0 25 0;
#X connect 15 0 17 0;
#X connect 16 0 17 0;
#X connect 17 0 2 0;
#X connect 18 0 14 0;
#X connect 19 0 18 1;
#X connect 20 0 21 0;
#X connect 20 0 22 0;
#X connect 20 1 22 0;
#X connect 20 2 14 0;
#X connect 20 2 23 0;
#X connect 21 0 19 0;
#X connect 22 0 17 0;
#X connect 23 0 19 0;
#X connect 24 0 18 0;
#X connect 25 0 16 0;
#X connect 25 0 24 0;
#X restore 858 617 pd pulse;
#X msg 825 583 start;
#X msg 865 526 stop;
#X obj 1005 602 vsl 19 162 0 255 0 0 empty empty empty 0 -9 0 12 #fcfcfc #000000 #000000 0 1;
#X msg 618 159 11;
#X msg 809 758 all \$1 \$1 \$1;
#X obj 65 262 nbx 5 17 -1e+37 1e+37 0 0 empty empty empty 0 -10 0 12 #fcfcfc #000000 #000000 0 256;
#X obj 70 223 route 1;
#X obj 877 683 t b f;
#X msg 717 803 update;
#X msg 647 748 100;
#X obj 54 312 speed-check;
#X obj 59 365 print state;
#X obj 72 419 sel 0 1 2;
#X obj 381 757 bng 19 250 50 0 empty empty empty 0 -10 0 12 #fcfcfc #000000 #000000;
#X obj 487 838 delay 2000;
#X msg 621 778 255;
#X obj 639 824 t b f f;
#X msg 620 883 1 \$1 \$1 \$1;
#X msg 717 889 0 \$1 \$1 \$1;
#X connect 1 0 0 0;
#X connect 5 0 7 0;
#X connect 5 1 8 0;
#X connect 5 1 11 1;
#X connect 5 2 6 0;
#X connect 5 2 11 0;
#X connect 12 0 25 0;
#X connect 12 0 23 0;
#X connect 13 0 5 1;
#X connect 14 0 19 0;
#X connect 14 0 22 0;
#X connect 14 1 34 0;
#X connect 15 0 13 0;
#X connect 16 0 13 0;
#X connect 17 0 13 0;
#X connect 18 0 13 0;
#X connect 24 0 3 0;
#X connect 25 0 5 0;
#X connect 27 0 30 0;
#X connect 27 0 35 0;
#X connect 28 0 27 0;
#X connect 29 0 27 0;
#X connect 31 0 12 0;
#X connect 32 0 3 0;
#X connect 33 0 38 0;
#X connect 34 0 33 0;
#X connect 35 0 24 0;
#X connect 35 1 32 0;
#X connect 36 0 3 0;
#X connect 37 0 44 0;
#X connect 38 0 39 0;
#X connect 38 0 40 0;
#X connect 40 0 28 0;
#X connect 40 1 41 0;
#X connect 40 2 37 0;
#X connect 41 0 29 0;
#X connect 41 0 42 0;
#X connect 42 0 43 0;
#X connect 43 0 44 0;
#X connect 44 0 36 0;
#X connect 44 1 45 0;
#X connect 44 2 46 0;
#X connect 45 0 3 0;
