#N canvas 678 153 1065 840 12;
#X obj 246 76 config;
#X obj 235 51 bng 19 250 50 0 empty empty empty 0 -10 0 12 #fcfcfc #000000 #000000;
#X text 264 47 reload config;
#N canvas 92 131 1105 643 led-control 0;
#X obj 28 370 display;
#X msg 29 325 clear;
#X msg 244 333 update;
#X msg 330 337 ping;
#X msg 408 339 1 50 40 0;
#X obj 550 89 vsl 19 162 0 255 0 0 empty empty empty 0 -9 0 12 #ff0400 #000000 #000000 0 1;
#X obj 579 88 vsl 19 162 0 255 0 0 empty empty empty 0 -9 0 12 #00ff04 #000000 #000000 0 1;
#X obj 613 88 vsl 19 162 0 255 0 0 empty empty empty 0 -9 0 12 #0400ff #000000 #000000 0 1;
#X obj 624 264 nbx 3 17 -1e+37 1e+37 0 0 empty empty empty 0 -10 0 12 #fcfcfc #000000 #000000 0 256;
#X obj 579 263 nbx 3 17 -1e+37 1e+37 0 0 empty empty empty 0 -10 0 12 #fcfcfc #000000 #000000 0 256;
#X obj 533 265 nbx 3 17 -1e+37 1e+37 0 0 empty empty empty 0 -10 0 12 #fcfcfc #000000 #000000 0 256;
#X obj 535 351 pack f f f;
#X obj 565 305 t b f;
#X obj 617 312 t b f;
#X msg 513 429 all \$1 \$2 \$3;
#X obj 533 398 t b l;
#X msg 111 327 all 255 255 255;
#X connect 1 0 0 0;
#X connect 2 0 0 0;
#X connect 3 0 0 0;
#X connect 4 0 0 0;
#X connect 5 0 10 0;
#X connect 6 0 9 0;
#X connect 7 0 8 0;
#X connect 8 0 13 0;
#X connect 9 0 12 0;
#X connect 10 0 11 0;
#X connect 11 0 15 0;
#X connect 12 0 11 0;
#X connect 12 1 11 1;
#X connect 13 0 11 0;
#X connect 13 1 11 2;
#X connect 14 0 0 0;
#X connect 15 0 2 0;
#X connect 15 1 14 0;
#X connect 16 0 0 0;
#X restore 299 154 pd led-control;
#X obj 307 257 state_control;
#X obj 297 352 sequencer;
#X obj 281 525 s testColor;
#X obj 398 526 s testColorUpdate;
#X obj 548 530 s testColorReset;
#X text 543 503 clear screen;
#X text 395 503 Update leds signal;
#X obj 306 407 visualize;
#X obj 582 284 nbx 5 17 -1e+37 1e+37 0 0 empty empty empty 0 -10 0 12 #fcfcfc #000000 #000000 0 256;
#X obj 802 203 vsl 19 162 0 1 0 0 empty empty coeff\ étalement\ tache 0 -9 0 12 #fcfcfc #000000 #000000 0 1;
#N canvas 566 196 450 300 recv-inputs 0;
#X obj 66 108 osc/unpackOSC;
#X obj 66 77 iemnet/udpreceive 8888;
#X obj 123 206 outlet;
#X obj 68 146 route /battery;
#X connect 0 0 3 0;
#X connect 1 0 0 0;
#X connect 3 0 2 0;
#X restore 83 143 pd recv-inputs;
#X msg 867 251 1;
#X msg 908 253 0.75;
#X msg 951 256 0.5;
#X msg 987 257 0.25;
#X obj 83 186 nbx 5 17 -1e+37 1e+37 0 0 empty empty %\ batterie\ restante 0 -10 0 12 #fcfcfc #000000 #000000 0 256;
#N canvas 179 218 835 665 clock 0;
#X obj 123 36 loadbang;
#X obj 125 238 time, f 14;
#X obj 143 155 bng 19 250 50 0 empty empty empty 0 -10 0 12 #fcfcfc #000000 #000000;
#X obj 137 66 tgl 19 0 empty empty empty 0 -10 0 12 #fcfcfc #000000 #000000 0 1;
#X obj 125 91 metro 10000;
#X obj 150 461 outlet;
#X obj 178 327 spigot 1;
#X obj 250 282 tgl 19 0 empty empty controle\ Auto 0 -10 0 12 #fcfcfc #000000 #000000 0 1;
#X obj 174 385 nbx 5 17 -1e+37 1e+37 0 0 empty empty empty 0 -10 0 12 #fcfcfc #000000 #000000 0 256;
#X connect 0 0 3 0;
#X connect 1 0 7 0;
#X connect 1 0 6 0;
#X connect 2 0 1 0;
#X connect 3 0 4 0;
#X connect 4 0 2 0;
#X connect 6 0 8 0;
#X connect 7 0 6 1;
#X connect 8 0 5 0;
#X restore 496 62 pd clock;
#X text 563 61 <--- Controle Auto/manuel à l'interieur;
#X connect 1 0 0 0;
#X connect 5 0 7 0;
#X connect 5 1 8 0;
#X connect 5 1 11 1;
#X connect 5 2 6 0;
#X connect 5 2 11 0;
#X connect 12 0 5 0;
#X connect 13 0 5 1;
#X connect 14 0 19 0;
#X connect 15 0 13 0;
#X connect 16 0 13 0;
#X connect 17 0 13 0;
#X connect 18 0 13 0;
#X connect 20 0 12 0;
