#N canvas 423 479 1278 511 12;
#X obj 87 302 osc/packOSC;
#X msg 219 339 connect 127.0.0.1 8012;
#X obj 69 374 iemnet/udpsend;
#X obj 578 54 vsl 19 162 0 1 0 0 empty empty Luminositée\ [0:1] 0 -9 0 12 #e3c6ff #000000 #000000 0 1;
#X obj 38 56 hradio 19 1 0 24 empty empty Heure 0 -10 0 12 #9c00ff #000000 #000000 0;
#X msg 83 249 send /clock \$1 0;
#X msg 224 254 send /luminosity \$1;
#X obj 263 301 loadbang;
#X obj 71 93 nbx 5 17 -1e+37 1e+37 0 0 empty empty empty 0 -10 0 12 #fcfcfc #000000 #000000 0 256;
#X text 265 36 12;
#X text 156 37 6;
#X text 380 35 18;
#X msg 497 291 send /sensor 11 12;
#X obj 843 43 vsl 19 162 0 1 0 0 empty empty Nébulosité\ [0:1] 0 -9 0 12 #e3c6ff #000000 #000000 0 1;
#X msg 492 252 send /nebulosity \$1;
#X text 871 39 0: pas de nuages;
#X text 869 188 1: temps couvert;
#X obj 40 21 nbx 5 17 -1e+37 1e+37 0 0 empty empty empty 0 -10 0 12 #fcfcfc #000000 #000000 0 256;
#X msg 725 281 send /day \$1;
#X obj 724 254 tgl 19 0 empty empty empty 0 -10 0 12 #fcfcfc #000000 #000000 0 1;
#X text 916 261 day-state 0 sunrise \, 1 noon \, 2 sunset \, 3 night;
#X msg 916 225 send /day-state 3;
#X connect 0 0 2 0;
#X connect 1 0 2 0;
#X connect 3 0 6 0;
#X connect 4 0 5 0;
#X connect 4 0 8 0;
#X connect 5 0 0 0;
#X connect 6 0 0 0;
#X connect 7 0 1 0;
#X connect 12 0 0 0;
#X connect 13 0 14 0;
#X connect 14 0 0 0;
#X connect 17 0 4 0;
#X connect 18 0 0 0;
#X connect 19 0 18 0;
#X connect 21 0 0 0;
