#N canvas 922 158 593 544 12;
#X obj 150 189 test-seq;
#X obj 149 271 control2;
#X msg 139 129 stop;
#X msg 185 129 reset;
#X msg 243 131 start;
#X text 135 97 séquence de démarrage;
#X text 215 270 <- open me \, si pb port série;
#X obj 119 412 bng 19 250 50 0 empty empty empty 0 -10 0 12 #fcfcfc #000000 #000000;
#X obj 241 417 bng 19 250 50 0 empty empty empty 0 -10 0 12 #fcfcfc #000000 #000000;
#X obj 124 341 route 0 1;
#X text 271 414 trig capteurs;
#X connect 0 0 1 0;
#X connect 1 0 9 0;
#X connect 2 0 0 0;
#X connect 3 0 0 0;
#X connect 4 0 0 0;
#X connect 9 0 7 0;
#X connect 9 1 8 0;
