#N canvas 360 170 1284 785 12;
#X obj 126 118 led-controller;
#X msg 108 62 clear;
#X obj 513 19 nbx 5 17 0 23 0 0 empty empty empty 0 -10 0 12 #fcfcfc #000000 #000000 0 256;
#X msg 508 77 \$1 80 200 250;
#X obj 122 205 print;
#X msg 419 62 get 6;
#N canvas 758 -938 786 579 sequencer 0;
#X obj 82 78 nbx 5 17 -1e+37 1e+37 0 0 empty empty empty 0 -10 0 12 #fcfcfc #000000 #000000 0 256;
#X obj -20 118 + 1;
#X obj -49 118 - 1;
#X obj -50 152 mod 12;
#X obj 108 136 mod 12;
#X obj 559 134 i 0;
#X obj 604 119 + 1;
#X obj 559 103 bng 19 250 50 0 empty empty empty 0 -10 0 12 #fcfcfc #000000 #000000;
#X obj 559 180 nbx 5 17 -1e+37 1e+37 0 0 empty empty empty 0 -10 0 12 #fcfcfc #000000 #000000 0 256;
#X msg 628 149 0;
#X obj 559 39 tgl 19 0 empty empty empty 0 -10 0 12 #fcfcfc #000000 #000000 0 1;
#X obj 559 74 metro 500;
#X obj 560 216 t f b;
#X obj 651 149 sel 12;
#X obj 108 179 * 2;
#X obj 109 210 + 1;
#X obj -13 238 * 2;
#X obj -11 268 + 1;
#X text 599 35 soleil;
#X text 81 343 couleur centrale;
#X text -80 342 couleur 1er côté;
#X obj 255 165 mod 12;
#X obj 254 128 + 2;
#X obj 264 235 * 2;
#X obj 265 266 + 1;
#X text 242 345 couleur 2eme côté;
#X obj 222 123 - 2;
#X msg 78 312 \$1 250 243 243;
#X msg -60 317 \$1 246 233 186;
#X msg 243 318 \$1 243 224 125;
#X obj -19 445 outlet;
#X connect 0 0 2 0;
#X connect 0 0 1 0;
#X connect 0 0 4 0;
#X connect 0 0 22 0;
#X connect 0 0 26 0;
#X connect 1 0 3 0;
#X connect 2 0 3 0;
#X connect 3 0 16 0;
#X connect 4 0 14 0;
#X connect 5 0 6 0;
#X connect 5 0 8 0;
#X connect 5 0 13 0;
#X connect 6 0 5 1;
#X connect 7 0 5 0;
#X connect 8 0 12 0;
#X connect 9 0 5 0;
#X connect 10 0 11 0;
#X connect 11 0 7 0;
#X connect 12 0 0 0;
#X connect 13 0 9 0;
#X connect 14 0 15 0;
#X connect 14 0 27 0;
#X connect 15 0 27 0;
#X connect 16 0 17 0;
#X connect 16 0 28 0;
#X connect 17 0 28 0;
#X connect 21 0 23 0;
#X connect 22 0 21 0;
#X connect 23 0 24 0;
#X connect 23 0 29 0;
#X connect 24 0 29 0;
#X connect 26 0 21 0;
#X connect 27 0 30 0;
#X connect 28 0 30 0;
#X connect 29 0 30 0;
#X restore 737 183 pd sequencer;
#X obj 240 185 bng 19 250 50 0 empty empty empty 0 -10 0 12 #fcfcfc #000000 #000000;
#X obj 269 353 vsl 19 162 0 255 0 0 empty empty empty 0 -9 0 12 #ff0400 #000000 #000000 0 1;
#X obj 298 352 vsl 19 162 0 255 0 0 empty empty empty 0 -9 0 12 #00ff04 #000000 #000000 0 1;
#X obj 332 352 vsl 19 162 0 255 0 0 empty empty empty 0 -9 0 12 #0400ff #000000 #000000 0 1;
#X obj 343 528 nbx 3 17 -1e+37 1e+37 0 0 empty empty empty 0 -10 0 12 #fcfcfc #000000 #000000 0 256;
#X obj 298 527 nbx 3 17 -1e+37 1e+37 0 0 empty empty empty 0 -10 0 12 #fcfcfc #000000 #000000 0 256;
#X obj 252 529 nbx 3 17 -1e+37 1e+37 0 0 empty empty empty 0 -10 0 12 #fcfcfc #000000 #000000 0 256;
#X obj 83 255 unpack f f f;
#X msg 503 449 devices;
#X msg 687 469 close;
#X msg 602 459 open 3;
#X obj 532 404 print;
#X obj 537 260 bng 19 250 50 0 empty empty empty 0 -10 0 12 #fcfcfc #000000 #000000;
#X obj 545 380 list prepend 175;
#X obj 557 347 list prepend 18;
#X obj 518 535 comport 3 115200;
#X obj 556 314 list 100 0 0 0 100 0 0 0 100 100 0 0 0 100 0 0 0 100;
#X obj 863 603 list;
#X connect 1 0 0 0;
#X connect 2 0 3 0;
#X connect 3 0 0 0;
#X connect 5 0 0 0;
#X connect 6 0 0 0;
#X connect 8 0 13 0;
#X connect 9 0 12 0;
#X connect 10 0 11 0;
#X connect 14 0 8 0;
#X connect 14 1 9 0;
#X connect 14 2 10 0;
#X connect 15 0 22 0;
#X connect 16 0 22 0;
#X connect 17 0 22 0;
#X connect 19 0 23 0;
#X connect 20 0 18 0;
#X connect 20 0 22 0;
#X connect 21 0 20 0;
#X connect 23 0 21 0;
