#N canvas 604 311 887 788 12;
#X obj 222 17 inlet;
#X obj 487 23 inlet;
#X text 269 25 bang to output pulse params;
#X text 539 18 params;
#X obj 34 687 outlet;
#X obj 463 692 outlet;
#X text 532 696 sun color \, RGB;
#N canvas 419 222 1159 861 day 0;
#X obj 61 89 inlet;
#X obj 352 94 inlet;
#X text 108 97 bang to output pulse params;
#X text 404 89 params;
#X obj 210 826 outlet;
#X obj 290 535 pack f f;
#X obj 260 446 nbx 5 17 0 12 0 0 empty empty Etalement 0 -10 0 12 #fcfcfc #000000 #000000 0 256;
#X obj 290 503 t b f;
#X obj 391 451 nbx 5 17 -1e+37 1e+37 0 0 empty empty Position\ LED 0 -10 0 12 #fcfcfc #000000 #000000 0 256;
#X obj 399 334 nbx 5 17 -1e+37 1e+37 0 0 empty empty empty 0 -10 0 12 #fcfcfc #000000 #000000 0 256;
#X obj 398 360 * 2;
#X obj 389 392 i;
#X obj 255 280 * 12;
#X obj 255 312 i;
#X obj 290 313 nbx 5 17 -1e+37 1e+37 0 0 empty empty empty 0 -10 0 12 #fcfcfc #000000 #000000 0 256;
#X obj 400 305 change;
#X obj 317 647 tgl 19 0 empty empty empty 0 -10 0 12 #fcfcfc #000000 #000000 0 1;
#X obj 372 647 tgl 19 0 empty empty empty 0 -10 0 12 #fcfcfc #000000 #000000 0 1;
#X obj 414 647 tgl 19 0 empty empty empty 0 -10 0 12 #fcfcfc #000000 #000000 0 1;
#X obj 317 615 == 1;
#X obj 372 615 == 2;
#X obj 414 615 == 3;
#X obj 287 716 spigot 0;
#X obj 357 716 spigot 0;
#X obj 430 716 spigot 0;
#X obj 456 559 nbx 5 17 -1e+37 1e+37 0 0 empty empty empty 0 -10 0 12 #fcfcfc #000000 #000000 0 256;
#X obj 205 675 tgl 19 0 empty empty empty 0 -10 0 12 #fcfcfc #000000 #000000 0 1;
#X obj 153 707 spigot 0;
#X obj 205 643 == 0;
#X obj 458 500 loadbang;
#X msg 459 529 2;
#X obj 617 285 nbx 5 17 -1e+37 1e+37 0 0 empty empty nebulosity 0 -10 0 12 #fcfcfc #000000 #000000 0 256;
#X obj 684 441 change;
#X obj 702 516 bng 19 250 50 0 empty empty empty 0 -10 0 12 #fcfcfc #000000 #000000;
#X obj 696 307 * 4;
#X obj 697 358 i;
#X obj 703 396 nbx 5 17 -1e+37 1e+37 0 0 empty empty empty 0 -10 0 12 #fcfcfc #000000 #000000 0 256;
#X obj 878 813 outlet;
#X text 947 817 sun color \, RGB;
#X obj 949 307 * 255;
#X obj 949 359 i;
#X obj 948 417 nbx 5 17 -1e+37 1e+37 0 0 empty empty empty 0 -10 0 12 #fcfcfc #000000 #000000 0 256;
#X msg 952 476 \$1 \$1 \$1;
#X obj 950 386 max 100;
#X obj 997 276 config-query min-sun-luminosity;
#X obj 995 306 nbx 5 17 -1e+37 1e+37 0 0 empty empty empty 0 -10 0 12 #fcfcfc #000000 #000000 0 256;
#X msg 410 247 \$1;
#X obj 995 238 bng 19 250 50 0 empty empty empty 0 -10 0 12 #fcfcfc #000000 #000000;
#X obj 536 234 unpack f f;
#X obj 694 419 route 4;
#X msg 47 777 130 0 0 255 0 0 \$1 \$2;
#X msg 235 780 0 130 0 0 255 0 \$1 \$2;
#X msg 442 787 0 0 130 0 0 255 \$1 \$2;
#X msg 618 787 130 130 0 255 255 0 \$1 \$2;
#X obj 490 -3 config-query nebulosity0-gradient;
#X obj 490 -32 bng 19 250 50 0 empty empty empty 0 -10 0 12 #fcfcfc #000000 #000000;
#N canvas 63 102 413 268 set-grad-msg 0;
#X msg 9 138 set \$1 \$2 \$3 \$4 \$5 \$6;
#X msg 189 138 adddollar 1;
#X msg 281 138 adddollar 2;
#X obj 56 35 t b b a;
#X obj 56 9 inlet;
#X obj 10 174 outlet;
#X connect 0 0 5 0;
#X connect 1 0 5 0;
#X connect 2 0 5 0;
#X connect 3 0 2 0;
#X connect 3 1 1 0;
#X connect 3 2 0 0;
#X connect 4 0 3 0;
#X restore 490 30 pd set-grad-msg;
#X obj 749 -33 bng 19 250 50 0 empty empty empty 0 -10 0 12 #fcfcfc #000000 #000000;
#N canvas 63 102 413 268 set-grad-msg 0;
#X msg 9 138 set \$1 \$2 \$3 \$4 \$5 \$6;
#X msg 189 138 adddollar 1;
#X msg 281 138 adddollar 2;
#X obj 56 35 t b b a;
#X obj 56 9 inlet;
#X obj 10 174 outlet;
#X connect 0 0 5 0;
#X connect 1 0 5 0;
#X connect 2 0 5 0;
#X connect 3 0 2 0;
#X connect 3 1 1 0;
#X connect 3 2 0 0;
#X connect 4 0 3 0;
#X restore 749 29 pd set-grad-msg;
#X obj 749 -4 config-query nebulosity1-gradient;
#X obj 991 -33 bng 19 250 50 0 empty empty empty 0 -10 0 12 #fcfcfc #000000 #000000;
#N canvas 63 102 413 268 set-grad-msg 0;
#X msg 9 138 set \$1 \$2 \$3 \$4 \$5 \$6;
#X msg 189 138 adddollar 1;
#X msg 281 138 adddollar 2;
#X obj 56 35 t b b a;
#X obj 56 9 inlet;
#X obj 10 174 outlet;
#X connect 0 0 5 0;
#X connect 1 0 5 0;
#X connect 2 0 5 0;
#X connect 3 0 2 0;
#X connect 3 1 1 0;
#X connect 3 2 0 0;
#X connect 4 0 3 0;
#X restore 991 29 pd set-grad-msg;
#X obj 991 -4 config-query nebulosity2-gradient;
#X obj 1246 -30 bng 19 250 50 0 empty empty empty 0 -10 0 12 #fcfcfc #000000 #000000;
#N canvas 63 102 413 268 set-grad-msg 0;
#X msg 9 138 set \$1 \$2 \$3 \$4 \$5 \$6;
#X msg 189 138 adddollar 1;
#X msg 281 138 adddollar 2;
#X obj 56 35 t b b a;
#X obj 56 9 inlet;
#X obj 10 174 outlet;
#X connect 0 0 5 0;
#X connect 1 0 5 0;
#X connect 2 0 5 0;
#X connect 3 0 2 0;
#X connect 3 1 1 0;
#X connect 3 2 0 0;
#X connect 4 0 3 0;
#X restore 1246 32 pd set-grad-msg;
#X obj 1246 -1 config-query nebulosity3-gradient;
#X text 271 825 gradient \, format R0 G0 B0 R1 G1 B1 SPREAD INDEX;
#X obj 364 199 route /luminosity /clock /nebulosity /day;
#X obj 905 242 change;
#X obj 904 273 sel 1;
#X obj 875 328 print DAY-CHANGED;
#X connect 0 0 11 0;
#X connect 1 0 67 0;
#X connect 5 0 22 0;
#X connect 5 0 23 0;
#X connect 5 0 24 0;
#X connect 5 0 27 0;
#X connect 6 0 5 0;
#X connect 7 0 5 0;
#X connect 7 1 5 1;
#X connect 8 0 7 0;
#X connect 9 0 10 0;
#X connect 10 0 11 1;
#X connect 11 0 8 0;
#X connect 12 0 13 0;
#X connect 13 0 14 0;
#X connect 13 0 6 0;
#X connect 15 0 9 0;
#X connect 16 0 22 1;
#X connect 17 0 23 1;
#X connect 18 0 24 1;
#X connect 19 0 16 0;
#X connect 20 0 17 0;
#X connect 21 0 18 0;
#X connect 22 0 51 0;
#X connect 23 0 52 0;
#X connect 24 0 53 0;
#X connect 25 0 19 0;
#X connect 25 0 20 0;
#X connect 25 0 21 0;
#X connect 25 0 28 0;
#X connect 26 0 27 1;
#X connect 27 0 50 0;
#X connect 28 0 26 0;
#X connect 29 0 30 0;
#X connect 30 0 25 0;
#X connect 31 0 34 0;
#X connect 32 0 33 0;
#X connect 32 0 25 0;
#X connect 34 0 35 0;
#X connect 35 0 36 0;
#X connect 36 0 49 0;
#X connect 39 0 40 0;
#X connect 40 0 43 0;
#X connect 41 0 42 0;
#X connect 42 0 37 0;
#X connect 43 0 41 0;
#X connect 44 0 45 0;
#X connect 45 0 43 1;
#X connect 46 0 15 0;
#X connect 47 0 44 0;
#X connect 48 0 31 0;
#X connect 49 1 32 0;
#X connect 50 0 4 0;
#X connect 51 0 4 0;
#X connect 52 0 4 0;
#X connect 53 0 4 0;
#X connect 54 0 56 0;
#X connect 55 0 54 0;
#X connect 56 0 50 0;
#X connect 57 0 59 0;
#X connect 58 0 51 0;
#X connect 59 0 58 0;
#X connect 60 0 62 0;
#X connect 61 0 52 0;
#X connect 62 0 61 0;
#X connect 63 0 65 0;
#X connect 64 0 53 0;
#X connect 65 0 64 0;
#X connect 67 0 12 0;
#X connect 67 0 39 0;
#X connect 67 1 46 0;
#X connect 67 2 48 0;
#X connect 67 3 68 0;
#X connect 68 0 69 0;
#X connect 69 0 39 0;
#X connect 69 0 70 0;
#X restore 243 207 pd day;
#X obj 591 106 route /day;
#X obj 592 147 tgl 19 0 empty empty is\ day 0 -10 0 12 #fcfcfc #000000 #000000 0 1;
#X obj 314 258 spigot 1;
#X obj 235 258 spigot 1;
#X obj 594 180 == 0;
#X obj 443 331 spigot 0;
#N canvas 312 388 840 580 night 0;
#X obj 99 74 inlet;
#X obj 15 343 outlet;
#X obj 664 532 outlet;
#X msg 723 491 255 0 0;
#X obj 398 71 inlet;
#X text 154 74 bang to output pulse params;
#X text 442 70 params;
#X obj 559 322 nbx 5 17 -1e+37 1e+37 0 0 empty empty Position\ LED 0 -10 0 12 #fcfcfc #000000 #000000 0 256;
#X obj 560 220 nbx 5 17 -1e+37 1e+37 0 0 empty empty empty 0 -10 0 12 #fcfcfc #000000 #000000 0 256;
#X obj 560 246 * 2;
#X obj 560 274 i;
#X obj 559 186 change;
#X msg 559 150 \$1;
#X text 714 533 sun color \, RGB;
#X obj 477 109 route /clock;
#X msg 20 315 0 0 0 0 0 0 0 \$1;
#X text 65 343 gradient \, format R0 G0 B0 R1 G1 B1 \, SPREAD \, INDEX;
#X connect 0 0 3 0;
#X connect 0 0 10 0;
#X connect 3 0 2 0;
#X connect 4 0 14 0;
#X connect 8 0 9 0;
#X connect 9 0 10 1;
#X connect 10 0 7 0;
#X connect 10 0 15 0;
#X connect 11 0 8 0;
#X connect 12 0 11 0;
#X connect 14 0 12 0;
#X connect 15 0 1 0;
#X restore 486 240 pd night;
#X obj 512 331 spigot 0;
#X text 95 686 gradient \, format R0 G0 B0 R1 G1 B1 SPREAD \, INDEX;
#X obj 486 60 t a a;
#X connect 0 0 7 0;
#X connect 0 0 14 0;
#X connect 1 0 17 0;
#X connect 7 0 11 0;
#X connect 7 1 10 0;
#X connect 8 0 9 0;
#X connect 8 0 10 1;
#X connect 8 0 11 1;
#X connect 9 0 12 0;
#X connect 10 0 5 0;
#X connect 11 0 4 0;
#X connect 12 0 13 1;
#X connect 12 0 15 1;
#X connect 13 0 4 0;
#X connect 14 0 13 0;
#X connect 14 1 15 0;
#X connect 15 0 5 0;
#X connect 17 0 7 1;
#X connect 17 0 14 1;
#X connect 17 1 8 0;
