#N canvas 509 280 1112 788 12;
#X obj 487 23 inlet;
#X text 539 18 params;
#X obj 205 687 outlet;
#X obj 634 692 outlet;
#N canvas 287 167 1513 889 day 0;
#X obj 61 89 inlet;
#X obj 352 94 inlet;
#X text 108 97 bang to output pulse params;
#X text 404 89 params;
#X obj 307 730 outlet;
#X obj 290 535 pack f f;
#X obj 260 446 nbx 5 17 0 12 0 0 empty empty Etalement 0 -10 0 12 #fcfcfc #000000 #000000 0 256;
#X obj 290 503 t b f;
#X obj 391 451 nbx 5 17 -1e+37 1e+37 0 0 empty empty Position\ LED 0 -10 0 12 #fcfcfc #000000 #000000 0 256;
#X obj 399 334 nbx 5 17 -1e+37 1e+37 0 0 empty empty empty 0 -10 0 12 #fcfcfc #000000 #000000 0 256;
#X obj 398 360 * 2;
#X obj 387 407 i;
#X obj 255 280 * 12;
#X obj 255 312 i;
#X obj 290 313 nbx 5 17 -1e+37 1e+37 0 0 empty empty empty 0 -10 0 12 #fcfcfc #000000 #000000 0 256;
#X obj 400 305 change;
#X obj 939 730 outlet;
#X text 1008 734 sun color \, RGB;
#X obj 949 307 * 255;
#X obj 950 370 i;
#X obj 951 443 nbx 5 17 -1e+37 1e+37 0 0 empty empty empty 0 -10 0 12 #fcfcfc #000000 #000000 0 256;
#X obj 997 276 config-query min-sun-luminosity;
#X obj 995 306 nbx 5 17 -1e+37 1e+37 0 0 empty empty empty 0 -10 0 12 #fcfcfc #000000 #000000 0 256;
#X msg 410 247 \$1;
#X obj 995 238 bng 19 250 50 0 empty empty empty 0 -10 0 12 #fcfcfc #000000 #000000;
#X text 368 729 gradient \, format R0 G0 B0 R1 G1 B1 SPREAD INDEX;
#X msg 952 476 \$1 \$1 \$1 \$1 \$1 \$1;
#X obj 487 421 s position-soleil-hack;
#N canvas 158 165 1603 875 color-selector 0;
#X obj 230 813 outlet;
#X obj 49 80 inlet etalement-pos;
#X obj 281 83 inlet index;
#X obj 567 542 tgl 19 0 empty empty empty 0 -10 0 12 #fcfcfc #000000 #000000 0 1;
#X obj 779 533 tgl 19 0 empty empty empty 0 -10 0 12 #fcfcfc #000000 #000000 0 1;
#X obj 1248 539 tgl 19 0 empty empty empty 0 -10 0 12 #fcfcfc #000000 #000000 0 1;
#X obj 567 510 == 1;
#X obj 779 501 == 2;
#X obj 514 574 spigot 0;
#X obj 727 564 spigot 0;
#X obj 1196 569 spigot 0;
#X obj 328 542 tgl 19 0 empty empty empty 0 -10 0 12 #fcfcfc #000000 #000000 0 1;
#X obj 276 574 spigot 0;
#X obj 328 510 == 0;
#X obj 298 458 loadbang;
#X msg 282 625 243 223 225 248 244 248 \$1 \$2;
#X msg 514 624 127 127 60 30 30 20 \$1 \$2;
#X msg 721 631 191 221 220 105 107 105 \$1 \$2;
#X msg 1196 619 92 108 175 40 40 40 \$1 \$2;
#X obj 490 -32 bng 19 250 50 0 empty empty empty 0 -10 0 12 #fcfcfc #000000 #000000;
#N canvas 63 102 413 268 set-grad-msg 0;
#X msg 9 138 set \$1 \$2 \$3 \$4 \$5 \$6;
#X msg 189 138 adddollar 1;
#X msg 281 138 adddollar 2;
#X obj 56 35 t b b a;
#X obj 56 9 inlet;
#X obj 10 174 outlet;
#X connect 0 0 5 0;
#X connect 1 0 5 0;
#X connect 2 0 5 0;
#X connect 3 0 2 0;
#X connect 3 1 1 0;
#X connect 3 2 0 0;
#X connect 4 0 3 0;
#X restore 490 30 pd set-grad-msg;
#X obj 749 -33 bng 19 250 50 0 empty empty empty 0 -10 0 12 #fcfcfc #000000 #000000;
#N canvas 63 102 413 268 set-grad-msg 0;
#X msg 9 138 set \$1 \$2 \$3 \$4 \$5 \$6;
#X msg 189 138 adddollar 1;
#X msg 281 138 adddollar 2;
#X obj 56 35 t b b a;
#X obj 56 9 inlet;
#X obj 10 174 outlet;
#X connect 0 0 5 0;
#X connect 1 0 5 0;
#X connect 2 0 5 0;
#X connect 3 0 2 0;
#X connect 3 1 1 0;
#X connect 3 2 0 0;
#X connect 4 0 3 0;
#X restore 749 29 pd set-grad-msg;
#X obj 991 -33 bng 19 250 50 0 empty empty empty 0 -10 0 12 #fcfcfc #000000 #000000;
#N canvas 63 102 413 268 set-grad-msg 0;
#X msg 9 138 set \$1 \$2 \$3 \$4 \$5 \$6;
#X msg 189 138 adddollar 1;
#X msg 281 138 adddollar 2;
#X obj 56 35 t b b a;
#X obj 56 9 inlet;
#X obj 10 174 outlet;
#X connect 0 0 5 0;
#X connect 1 0 5 0;
#X connect 2 0 5 0;
#X connect 3 0 2 0;
#X connect 3 1 1 0;
#X connect 3 2 0 0;
#X connect 4 0 3 0;
#X restore 991 29 pd set-grad-msg;
#X obj 1474 -28 bng 19 250 50 0 empty empty empty 0 -10 0 12 #fcfcfc #000000 #000000;
#N canvas 63 102 413 268 set-grad-msg 0;
#X msg 9 138 set \$1 \$2 \$3 \$4 \$5 \$6;
#X msg 189 138 adddollar 1;
#X msg 281 138 adddollar 2;
#X obj 56 35 t b b a;
#X obj 56 9 inlet;
#X obj 10 174 outlet;
#X connect 0 0 5 0;
#X connect 1 0 5 0;
#X connect 2 0 5 0;
#X connect 3 0 2 0;
#X connect 3 1 1 0;
#X connect 3 2 0 0;
#X connect 4 0 3 0;
#X restore 1474 34 pd set-grad-msg;
#X obj 540 140 nbx 5 17 -1e+37 1e+37 0 0 empty empty empty 0 -10 0 12 #fcfcfc #000000 #000000 0 256;
#X text 207 603 0 matin;
#X text 526 602 1 midi;
#X text 745 598 2 aprem;
#X text 1282 593 4 nuit;
#X obj 616 141 print SET-DAY-INDEX;
#X obj 1014 528 tgl 19 0 empty empty empty 0 -10 0 12 #fcfcfc #000000 #000000 0 1;
#X obj 962 559 spigot 0;
#X msg 956 626 221 191 191 105 107 105 \$1 \$2;
#X text 979 598 3 soir;
#X obj 1014 496 == 3;
#X obj 1248 507 == 4;
#X obj 1243 -20 bng 19 250 50 0 empty empty empty 0 -10 0 12 #fcfcfc #000000 #000000;
#N canvas 63 102 413 268 set-grad-msg 0;
#X msg 9 138 set \$1 \$2 \$3 \$4 \$5 \$6;
#X msg 189 138 adddollar 1;
#X msg 281 138 adddollar 2;
#X obj 56 35 t b b a;
#X obj 56 9 inlet;
#X obj 10 174 outlet;
#X connect 0 0 5 0;
#X connect 1 0 5 0;
#X connect 2 0 5 0;
#X connect 3 0 2 0;
#X connect 3 1 1 0;
#X connect 3 2 0 0;
#X connect 4 0 3 0;
#X restore 1243 42 pd set-grad-msg;
#X obj 1243 9 config-query soir-gradient;
#X obj 490 -3 config-query matin-gradient;
#X obj 749 -4 config-query midi-gradient;
#X obj 991 -4 config-query aprem-gradient;
#X obj 1474 1 config-query nuit-gradient;
#X obj 790 129 + 1;
#X obj 792 187 nbx 5 17 -1e+37 1e+37 0 0 empty empty empty 0 -10 0 12 #fcfcfc #000000 #000000 0 256;
#X obj 791 160 mod 5;
#X obj 1017 139 hsl 162 19 0 1 0 0 empty empty empty -2 -10 0 12 #fcfcfc #000000 #000000 0 1;
#X obj 1007 178 nbx 5 17 -1e+37 1e+37 0 0 empty empty empty 0 -10 0 12 #fcfcfc #000000 #000000 0 256;
#X obj 996 265 lerp;
#X obj 1438 247 gradient-color;
#X obj 1448 180 nbx 5 17 -1e+37 1e+37 0 0 empty empty empty 0 -10 0 12 #fcfcfc #000000 #000000 0 256;
#X obj 1450 324 print;
#X connect 1 0 12 0;
#X connect 1 0 8 0;
#X connect 1 0 9 0;
#X connect 1 0 10 0;
#X connect 1 0 34 0;
#X connect 2 0 13 0;
#X connect 2 0 6 0;
#X connect 2 0 7 0;
#X connect 2 0 27 0;
#X connect 2 0 32 0;
#X connect 2 0 37 0;
#X connect 2 0 38 0;
#X connect 2 0 46 0;
#X connect 3 0 8 1;
#X connect 4 0 9 1;
#X connect 5 0 10 1;
#X connect 6 0 3 0;
#X connect 7 0 4 0;
#X connect 8 0 16 0;
#X connect 9 0 17 0;
#X connect 10 0 18 0;
#X connect 11 0 12 1;
#X connect 12 0 15 0;
#X connect 13 0 11 0;
#X connect 14 0 11 0;
#X connect 15 0 0 0;
#X connect 16 0 0 0;
#X connect 17 0 0 0;
#X connect 18 0 0 0;
#X connect 19 0 42 0;
#X connect 20 0 15 0;
#X connect 21 0 43 0;
#X connect 22 0 16 0;
#X connect 23 0 44 0;
#X connect 24 0 17 0;
#X connect 25 0 45 0;
#X connect 26 0 18 0;
#X connect 33 0 34 1;
#X connect 34 0 35 0;
#X connect 35 0 0 0;
#X connect 37 0 33 0;
#X connect 38 0 5 0;
#X connect 39 0 41 0;
#X connect 40 0 35 0;
#X connect 41 0 40 0;
#X connect 42 0 20 0;
#X connect 43 0 22 0;
#X connect 44 0 24 0;
#X connect 45 0 26 0;
#X connect 46 0 48 0;
#X connect 48 0 47 0;
#X connect 49 0 50 0;
#X connect 52 0 54 0;
#X connect 53 0 52 0;
#X restore 316 659 pd color-selector;
#X obj 842 113 inlet;
#X text 897 109 anim-state;
#X obj 465 280 nbx 5 17 -1e+37 1e+37 0 0 empty empty empty 0 -10 0 12 #fcfcfc #000000 #000000 0 256;
#X obj 354 132 route etalement /clock /day sun-luminosity;
#X obj 953 412 max 100;
#X obj 535 286 nbx 5 17 -1e+37 1e+37 0 0 empty empty empty 0 -10 0 12 #fcfcfc #000000 #000000 0 256;
#X obj 444 376 mod 24;
#X obj 432 625 change;
#X connect 0 0 11 0;
#X connect 1 0 32 0;
#X connect 5 0 28 0;
#X connect 6 0 5 0;
#X connect 7 0 5 0;
#X connect 7 1 5 1;
#X connect 8 0 7 0;
#X connect 9 0 10 0;
#X connect 10 0 35 0;
#X connect 11 0 8 0;
#X connect 11 0 27 0;
#X connect 12 0 13 0;
#X connect 13 0 14 0;
#X connect 13 0 6 0;
#X connect 15 0 9 0;
#X connect 18 0 19 0;
#X connect 19 0 33 0;
#X connect 20 0 26 0;
#X connect 21 0 22 0;
#X connect 22 0 33 1;
#X connect 23 0 15 0;
#X connect 23 0 31 0;
#X connect 24 0 21 0;
#X connect 26 0 16 0;
#X connect 28 0 4 0;
#X connect 29 0 36 0;
#X connect 32 0 12 0;
#X connect 32 1 23 0;
#X connect 32 3 18 0;
#X connect 33 0 20 0;
#X connect 34 0 15 0;
#X connect 35 0 11 1;
#X connect 36 0 28 1;
#X restore 206 323 pd day;
#X text 266 686 gradient \, format R0 G0 B0 R1 G1 B1 SPREAD \, INDEX;
#X obj 66 257 min 1;
#X obj 66 287 max 0;
#X obj 31 686 outlet;
#N canvas 541 437 1174 616 pulse-beat 0;
#X obj 308 304 delay 2000;
#X msg 54 347 1;
#X obj 94 22 inlet;
#X obj 52 413 outlet;
#X msg 139 365 0;
#X msg 235 117 stop, f 7;
#X text 97 322 delay 1;
#X text 323 337 delay 0;
#X obj 118 64 sel 1 0;
#X obj 94 133 bng 19 250 50 0 empty empty empty 0 -10 0 12 #fcfcfc #000000 #000000;
#X obj 264 27 inlet;
#X obj 373 123 unpack f f;
#X obj 88 298 delay 1000;
#X obj 470 216 change;
#X obj 325 208 change;
#X obj 252 426 outlet;
#X text 320 417 ramp time;
#X obj 258 391 max 100;
#X obj 546 281 / 2;
#X connect 0 0 9 0;
#X connect 1 0 3 0;
#X connect 2 0 8 0;
#X connect 4 0 3 0;
#X connect 5 0 0 0;
#X connect 5 0 12 0;
#X connect 8 0 9 0;
#X connect 8 1 5 0;
#X connect 9 0 1 0;
#X connect 9 0 12 0;
#X connect 10 0 11 0;
#X connect 11 0 14 0;
#X connect 11 1 13 0;
#X connect 12 0 0 0;
#X connect 12 0 4 0;
#X connect 13 0 0 1;
#X connect 14 0 12 1;
#X connect 14 0 18 0;
#X connect 17 0 15 0;
#X connect 18 0 17 0;
#X restore 64 75 pd pulse-beat;
#X obj 63 49 tgl 19 0 empty empty empty 0 -10 0 12 #fcfcfc #000000 #000000 0 1;
#X obj 154 161 tgl 19 0 empty empty empty 0 -10 0 12 #fcfcfc #000000 #000000 0 1;
#X obj 63 18 loadbang;
#X obj 620 29 inlet;
#X text 672 24 anim-params;
#X obj 882 707 outlet;
#X text 940 705 bang on pulse 0;
#X obj 90 314 sel 0;
#X obj 95 385 bng 19 250 50 0 empty empty empty 0 -10 0 12 #fcfcfc #000000 #000000;
#X obj 66 175 line 0 100;
#X obj 202 42 route /duty_cycle;
#X obj 399 278 nbx 5 17 -1e+37 1e+37 0 0 empty empty empty 0 -10 0 12 #fcfcfc #000000 #000000 0 256;
#X obj 87 108 pack f f;
#X msg 66 145 \$1 \$2;
#X obj 69 222 sin;
#X obj 150 248 nbx 5 17 -1e+37 1e+37 0 0 empty empty empty 0 -10 0 12 #fcfcfc #000000 #000000 0 256;
#X obj 68 201 * 1.5708;
#X text 703 696 sun color \, RGB;
#X text 134 203 PI/2;
#X connect 0 0 4 1;
#X connect 0 0 20 0;
#X connect 4 0 2 0;
#X connect 4 1 3 0;
#X connect 6 0 7 0;
#X connect 7 0 17 0;
#X connect 7 0 8 0;
#X connect 9 0 11 0;
#X connect 9 0 22 0;
#X connect 9 1 22 1;
#X connect 10 0 9 0;
#X connect 12 0 10 0;
#X connect 13 0 4 2;
#X connect 17 0 4 0;
#X connect 17 0 15 0;
#X connect 17 0 18 0;
#X connect 19 0 26 0;
#X connect 20 0 9 1;
#X connect 21 0 4 2;
#X connect 22 0 23 0;
#X connect 23 0 19 0;
#X connect 24 0 6 0;
#X connect 24 0 25 0;
#X connect 26 0 24 0;
