#N canvas 760 202 887 788 12;
#X obj 487 23 inlet;
#X text 140 37 bang to output pulse params;
#X text 539 18 params;
#X obj 205 687 outlet;
#X obj 634 692 outlet;
#X text 703 696 sun color \, RGB;
#N canvas 330 123 1513 889 day 0;
#X obj 61 89 inlet;
#X obj 352 94 inlet;
#X text 108 97 bang to output pulse params;
#X text 404 89 params;
#X obj 307 730 outlet;
#X obj 290 535 pack f f;
#X obj 260 446 nbx 5 17 0 12 0 0 empty empty Etalement 0 -10 0 12 #fcfcfc #000000 #000000 0 256;
#X obj 290 503 t b f;
#X obj 391 451 nbx 5 17 -1e+37 1e+37 0 0 empty empty Position\ LED 0 -10 0 12 #fcfcfc #000000 #000000 0 256;
#X obj 399 334 nbx 5 17 -1e+37 1e+37 0 0 empty empty empty 0 -10 0 12 #fcfcfc #000000 #000000 0 256;
#X obj 398 360 * 2;
#X obj 389 392 i;
#X obj 255 280 * 12;
#X obj 255 312 i;
#X obj 290 313 nbx 5 17 -1e+37 1e+37 0 0 empty empty empty 0 -10 0 12 #fcfcfc #000000 #000000 0 256;
#X obj 400 305 change;
#X obj 878 813 outlet;
#X text 947 817 sun color \, RGB;
#X obj 949 307 * 255;
#X obj 952 385 i;
#X obj 951 443 nbx 5 17 -1e+37 1e+37 0 0 empty empty empty 0 -10 0 12 #fcfcfc #000000 #000000 0 256;
#X obj 953 412 max 100;
#X obj 997 276 config-query min-sun-luminosity;
#X obj 995 306 nbx 5 17 -1e+37 1e+37 0 0 empty empty empty 0 -10 0 12 #fcfcfc #000000 #000000 0 256;
#X msg 410 247 \$1;
#X obj 995 238 bng 19 250 50 0 empty empty empty 0 -10 0 12 #fcfcfc #000000 #000000;
#X text 368 729 gradient \, format R0 G0 B0 R1 G1 B1 SPREAD INDEX;
#X obj 905 242 change;
#X obj 820 368 print DAY-CHANGED;
#X msg 952 476 \$1 \$1 \$1 \$1 \$1 \$1;
#X obj 487 421 s position-soleil-hack;
#X obj 904 273 sel 1 0;
#N canvas 431 214 1287 875 color-selector 0;
#X obj 230 813 outlet;
#X obj 49 80 inlet etalement-pos;
#X obj 281 83 inlet index;
#X obj 619 528 tgl 19 0 empty empty empty 0 -10 0 12 #fcfcfc #000000 #000000 0 1;
#X obj 688 529 tgl 19 0 empty empty empty 0 -10 0 12 #fcfcfc #000000 #000000 0 1;
#X obj 761 530 tgl 19 0 empty empty empty 0 -10 0 12 #fcfcfc #000000 #000000 0 1;
#X obj 619 496 == 1;
#X obj 688 497 == 2;
#X obj 761 498 == 3;
#X obj 566 560 spigot 0;
#X obj 636 560 spigot 0;
#X obj 709 560 spigot 0;
#X obj 531 529 tgl 19 0 empty empty empty 0 -10 0 12 #fcfcfc #000000 #000000 0 1;
#X obj 479 561 spigot 0;
#X obj 531 497 == 0;
#X obj 737 344 loadbang;
#X msg 738 373 2;
#X msg 282 625 243 223 225 248 244 248 \$1 \$2;
#X msg 514 624 255 255 0 130 130 0 \$1 \$2;
#X msg 721 631 191 221 220 105 107 105 \$1 \$2;
#X msg 985 635 92 108 175 0 0 0 \$1 \$2;
#X obj 490 -32 bng 19 250 50 0 empty empty empty 0 -10 0 12 #fcfcfc #000000 #000000;
#N canvas 63 102 413 268 set-grad-msg 0;
#X msg 9 138 set \$1 \$2 \$3 \$4 \$5 \$6;
#X msg 189 138 adddollar 1;
#X msg 281 138 adddollar 2;
#X obj 56 35 t b b a;
#X obj 56 9 inlet;
#X obj 10 174 outlet;
#X connect 0 0 5 0;
#X connect 1 0 5 0;
#X connect 2 0 5 0;
#X connect 3 0 2 0;
#X connect 3 1 1 0;
#X connect 3 2 0 0;
#X connect 4 0 3 0;
#X restore 490 30 pd set-grad-msg;
#X obj 749 -33 bng 19 250 50 0 empty empty empty 0 -10 0 12 #fcfcfc #000000 #000000;
#N canvas 63 102 413 268 set-grad-msg 0;
#X msg 9 138 set \$1 \$2 \$3 \$4 \$5 \$6;
#X msg 189 138 adddollar 1;
#X msg 281 138 adddollar 2;
#X obj 56 35 t b b a;
#X obj 56 9 inlet;
#X obj 10 174 outlet;
#X connect 0 0 5 0;
#X connect 1 0 5 0;
#X connect 2 0 5 0;
#X connect 3 0 2 0;
#X connect 3 1 1 0;
#X connect 3 2 0 0;
#X connect 4 0 3 0;
#X restore 749 29 pd set-grad-msg;
#X obj 991 -33 bng 19 250 50 0 empty empty empty 0 -10 0 12 #fcfcfc #000000 #000000;
#N canvas 63 102 413 268 set-grad-msg 0;
#X msg 9 138 set \$1 \$2 \$3 \$4 \$5 \$6;
#X msg 189 138 adddollar 1;
#X msg 281 138 adddollar 2;
#X obj 56 35 t b b a;
#X obj 56 9 inlet;
#X obj 10 174 outlet;
#X connect 0 0 5 0;
#X connect 1 0 5 0;
#X connect 2 0 5 0;
#X connect 3 0 2 0;
#X connect 3 1 1 0;
#X connect 3 2 0 0;
#X connect 4 0 3 0;
#X restore 991 29 pd set-grad-msg;
#X obj 1246 -30 bng 19 250 50 0 empty empty empty 0 -10 0 12 #fcfcfc #000000 #000000;
#N canvas 63 102 413 268 set-grad-msg 0;
#X msg 9 138 set \$1 \$2 \$3 \$4 \$5 \$6;
#X msg 189 138 adddollar 1;
#X msg 281 138 adddollar 2;
#X obj 56 35 t b b a;
#X obj 56 9 inlet;
#X obj 10 174 outlet;
#X connect 0 0 5 0;
#X connect 1 0 5 0;
#X connect 2 0 5 0;
#X connect 3 0 2 0;
#X connect 3 1 1 0;
#X connect 3 2 0 0;
#X connect 4 0 3 0;
#X restore 1246 32 pd set-grad-msg;
#X obj 490 -3 config-query sunrise-gradient;
#X obj 991 -4 config-query sunset-gradient;
#X obj 1246 -1 config-query night-gradient;
#X obj 540 140 nbx 5 17 -1e+37 1e+37 0 0 empty empty empty 0 -10 0 12 #fcfcfc #000000 #000000 0 256;
#X obj 749 -4 config-query noon-gradient;
#X connect 1 0 13 0;
#X connect 1 0 9 0;
#X connect 1 0 10 0;
#X connect 1 0 11 0;
#X connect 2 0 14 0;
#X connect 2 0 6 0;
#X connect 2 0 7 0;
#X connect 2 0 8 0;
#X connect 2 0 32 0;
#X connect 3 0 9 1;
#X connect 4 0 10 1;
#X connect 5 0 11 1;
#X connect 6 0 3 0;
#X connect 7 0 4 0;
#X connect 8 0 5 0;
#X connect 9 0 18 0;
#X connect 10 0 19 0;
#X connect 11 0 20 0;
#X connect 12 0 13 1;
#X connect 13 0 17 0;
#X connect 14 0 12 0;
#X connect 15 0 16 0;
#X connect 16 0 14 0;
#X connect 16 0 6 0;
#X connect 16 0 7 0;
#X connect 16 0 8 0;
#X connect 17 0 0 0;
#X connect 18 0 0 0;
#X connect 19 0 0 0;
#X connect 20 0 0 0;
#X connect 21 0 29 0;
#X connect 22 0 17 0;
#X connect 23 0 33 0;
#X connect 24 0 18 0;
#X connect 25 0 30 0;
#X connect 26 0 19 0;
#X connect 27 0 31 0;
#X connect 28 0 20 0;
#X connect 29 0 22 0;
#X connect 30 0 26 0;
#X connect 31 0 28 0;
#X connect 33 0 24 0;
#X restore 316 659 pd color-selector;
#X obj 354 132 route /luminosity /clock /luminosity2 /day /day-state;
#X obj 525 243 nbx 5 17 -1e+37 1e+37 0 0 empty empty empty 0 -10 0 12 #fcfcfc #000000 #000000 0 256;
#X connect 0 0 11 0;
#X connect 1 0 33 0;
#X connect 5 0 32 0;
#X connect 6 0 5 0;
#X connect 7 0 5 0;
#X connect 7 1 5 1;
#X connect 8 0 7 0;
#X connect 9 0 10 0;
#X connect 10 0 11 1;
#X connect 11 0 8 0;
#X connect 11 0 30 0;
#X connect 12 0 13 0;
#X connect 13 0 14 0;
#X connect 13 0 6 0;
#X connect 15 0 9 0;
#X connect 18 0 19 0;
#X connect 19 0 21 0;
#X connect 20 0 29 0;
#X connect 21 0 20 0;
#X connect 22 0 23 0;
#X connect 23 0 21 1;
#X connect 24 0 15 0;
#X connect 25 0 22 0;
#X connect 27 0 31 0;
#X connect 29 0 16 0;
#X connect 31 0 18 0;
#X connect 31 0 28 0;
#X connect 32 0 4 0;
#X connect 33 0 12 0;
#X connect 33 0 18 0;
#X connect 33 1 24 0;
#X connect 33 2 34 0;
#X connect 33 3 27 0;
#X connect 33 4 32 1;
#X restore 206 323 pd day;
#X text 266 686 gradient \, format R0 G0 B0 R1 G1 B1 SPREAD \, INDEX;
#X obj 66 30 inlet;
#X obj 66 138 line 0 100;
#X obj 66 61 tgl 19 0 empty empty empty 0 -10 0 12 #fcfcfc #000000 #000000 0 1;
#X msg 66 108 \$1 500;
#X obj 66 168 min 1;
#X obj 66 198 max 0;
#X obj 118 229 sel 0;
#X obj 31 686 outlet;
#X connect 0 0 6 1;
#X connect 6 0 3 0;
#X connect 6 1 4 0;
#X connect 8 0 10 0;
#X connect 9 0 12 0;
#X connect 10 0 11 0;
#X connect 11 0 9 0;
#X connect 12 0 13 0;
#X connect 13 0 14 0;
#X connect 13 0 15 0;
#X connect 14 0 6 0;
