#N canvas 324 140 1356 870 12;
#X obj 61 89 inlet;
#X obj 352 94 inlet;
#X text 108 97 bang to output pulse params;
#X text 404 89 params;
#X obj 205 1084 outlet;
#X obj 290 535 pack f f;
#X obj 260 446 nbx 5 17 0 12 0 0 empty empty Etalement 0 -10 0 12 #fcfcfc #000000 #000000 0 256;
#X obj 290 503 t b f;
#X obj 391 451 nbx 5 17 -1e+37 1e+37 0 0 empty empty Position\ LED 0 -10 0 12 #fcfcfc #000000 #000000 0 256;
#X obj 399 334 nbx 5 17 -1e+37 1e+37 0 0 empty empty empty 0 -10 0 12 #fcfcfc #000000 #000000 0 256;
#X obj 398 360 * 2;
#X obj 389 392 i;
#X obj 255 280 * 12;
#X obj 255 312 i;
#X obj 290 313 nbx 5 17 -1e+37 1e+37 0 0 empty empty empty 0 -10 0 12 #fcfcfc #000000 #000000 0 256;
#X obj 400 305 change;
#X text 457 899 9h AM;
#X text 797 899 midi;
#X obj 317 647 tgl 19 0 empty empty empty 0 -10 0 12 #fcfcfc #000000 #000000 0 1;
#X obj 372 647 tgl 19 0 empty empty empty 0 -10 0 12 #fcfcfc #000000 #000000 0 1;
#X obj 414 647 tgl 19 0 empty empty empty 0 -10 0 12 #fcfcfc #000000 #000000 0 1;
#X obj 317 615 == 1;
#X obj 372 615 == 2;
#X obj 414 615 == 3;
#X obj 287 716 spigot 0;
#X obj 357 716 spigot 0;
#X obj 430 716 spigot 0;
#X obj 456 559 nbx 5 17 -1e+37 1e+37 0 0 empty empty empty 0 -10 0 12 #fcfcfc #000000 #000000 0 256;
#X obj 229 652 tgl 19 0 empty empty empty 0 -10 0 12 #fcfcfc #000000 #000000 0 1;
#X obj 199 721 spigot 0;
#X obj 229 620 == 0;
#X text 333 979 clear;
#X msg 99 980 0 0 0 0 0 0 \$1 \$2;
#X obj 552 498 loadbang;
#X msg 553 538 2;
#X obj 364 199 route /luminosity /clock /nebulosity;
#X obj 617 285 nbx 5 17 -1e+37 1e+37 0 0 empty empty nebulosity 0 -10 0 12 #fcfcfc #000000 #000000 0 256;
#X obj 684 441 change;
#X obj 702 516 bng 19 250 50 0 empty empty empty 0 -10 0 12 #fcfcfc #000000 #000000;
#X obj 696 307 * 4;
#X obj 697 358 i;
#X obj 703 396 nbx 5 17 -1e+37 1e+37 0 0 empty empty empty 0 -10 0 12 #fcfcfc #000000 #000000 0 256;
#X obj 748 498 print nebulosity_changed;
#X msg 209 905 251 253 251 145 172 178 \$1 \$2;
#X text 873 970 midi;
#X msg 643 971 248 244 244 246 227 117 \$1 \$2;
#X text 803 801 test;
#X obj 578 655 tgl 19 0 empty empty empty 0 -10 0 12 #fcfcfc #000000 #000000 0 1;
#X obj 594 724 spigot 0;
#X obj 578 623 == 10;
#X msg 624 800 255 0 0 0 255 0 \$1 \$2;
#X obj 873 1071 outlet;
#X text 266 1083 gradient \, format R0 G0 B0 R1 G1 B1 INDEX SPREAD;
#X text 942 1075 sun color \, RGB;
#X msg 1040 573 255 0 0;
#X msg 1050 616 0 255 0;
#X msg 1058 652 0 0 255;
#X obj 942 307 * 255;
#X obj 941 360 i;
#X obj 948 417 nbx 5 17 -1e+37 1e+37 0 0 empty empty empty 0 -10 0 12 #fcfcfc #000000 #000000 0 256;
#X msg 952 476 \$1 \$1 \$1;
#X obj 950 386 max 100;
#X obj 879 224 config-query min-sun-luminosity;
#X obj 877 254 nbx 5 17 -1e+37 1e+37 0 0 empty empty empty 0 -10 0 12 #fcfcfc #000000 #000000 0 256;
#X msg 552 902 248 240 215 120 110 50 \$1 \$2;
#X msg 410 247 \$1;
#X obj 877 186 bng 19 250 50 0 empty empty empty 0 -10 0 12 #fcfcfc #000000 #000000;
#X connect 0 0 11 0;
#X connect 1 0 35 0;
#X connect 5 0 24 0;
#X connect 5 0 25 0;
#X connect 5 0 26 0;
#X connect 5 0 29 0;
#X connect 5 0 48 0;
#X connect 6 0 5 0;
#X connect 7 0 5 0;
#X connect 7 1 5 1;
#X connect 8 0 7 0;
#X connect 9 0 10 0;
#X connect 10 0 11 1;
#X connect 11 0 8 0;
#X connect 12 0 13 0;
#X connect 13 0 14 0;
#X connect 13 0 6 0;
#X connect 15 0 9 0;
#X connect 18 0 24 1;
#X connect 19 0 25 1;
#X connect 20 0 26 1;
#X connect 21 0 18 0;
#X connect 22 0 19 0;
#X connect 23 0 20 0;
#X connect 24 0 43 0;
#X connect 25 0 64 0;
#X connect 27 0 21 0;
#X connect 27 0 22 0;
#X connect 27 0 23 0;
#X connect 27 0 30 0;
#X connect 27 0 49 0;
#X connect 28 0 29 1;
#X connect 29 0 32 0;
#X connect 30 0 28 0;
#X connect 32 0 4 0;
#X connect 33 0 34 0;
#X connect 34 0 27 0;
#X connect 35 0 12 0;
#X connect 35 0 57 0;
#X connect 35 1 65 0;
#X connect 35 2 36 0;
#X connect 36 0 39 0;
#X connect 37 0 38 0;
#X connect 37 0 42 0;
#X connect 37 0 27 0;
#X connect 39 0 40 0;
#X connect 40 0 41 0;
#X connect 41 0 37 0;
#X connect 43 0 4 0;
#X connect 47 0 48 1;
#X connect 48 0 50 0;
#X connect 49 0 47 0;
#X connect 50 0 4 0;
#X connect 54 0 51 0;
#X connect 55 0 51 0;
#X connect 56 0 51 0;
#X connect 57 0 58 0;
#X connect 58 0 61 0;
#X connect 59 0 60 0;
#X connect 60 0 51 0;
#X connect 61 0 59 0;
#X connect 62 0 63 0;
#X connect 63 0 61 1;
#X connect 64 0 4 0;
#X connect 65 0 15 0;
#X connect 66 0 62 0;
