#N canvas 242 174 1288 893 12;
#X msg -413 68 \$1;
#X obj -413 123 mod 12;
#X obj -496 38 nbx 5 17 -1e+37 1e+37 0 0 empty empty empty 0 -10 0 12 #fcfcfc #000000 #000000 0 256;
#X obj -496 120 i;
#X obj 206 160 tgl 19 0 empty empty 0 0 -10 0 12 #fcfcfc #000000 #000000 0 1;
#X obj 235 160 tgl 19 0 empty empty 1 0 -10 0 12 #fcfcfc #000000 #000000 0 1;
#X obj 262 160 tgl 19 0 empty empty 2 0 -10 0 12 #fcfcfc #000000 #000000 0 1;
#X obj 289 160 tgl 19 0 empty empty 3 0 -10 0 12 #fcfcfc #000000 #000000 0 1;
#X obj 319 160 tgl 19 0 empty empty 4 0 -10 0 12 #fcfcfc #000000 #000000 0 1;
#N canvas 400 233 1119 658 route-mendos 0;
#X obj 149 21 inlet;
#X obj 367 127 route 0 1 2 3 4 5 6 7 8 9 10 11;
#X msg 57 225 1;
#X obj 43 334 outlet;
#X msg 110 225 1;
#X obj 99 334 outlet;
#X msg 170 225 1;
#X obj 157 334 outlet;
#X msg 221 225 1;
#X obj 211 334 outlet;
#X msg 276 225 1;
#X obj 264 334 outlet;
#X msg 327 225 1;
#X obj 315 334 outlet;
#X msg 377 225 1;
#X obj 377 334 outlet;
#X msg 438 225 1;
#X obj 438 334 outlet;
#X msg 496 225 1;
#X obj 496 334 outlet;
#X msg 551 225 1;
#X obj 557 334 outlet;
#X msg 602 225 1;
#X obj 608 334 outlet;
#X msg 664 225 1;
#X obj 670 334 outlet;
#X msg 46 95 0;
#X obj 59 279 i 0;
#X obj 158 87 route reset update;
#X obj 114 279 i 0;
#X obj 166 279 i 0;
#X obj 220 279 i 0;
#X obj 275 279 i 0;
#X obj 327 279 i 0;
#X obj 378 279 i 0;
#X obj 433 279 i 0;
#X obj 485 279 i 0;
#X obj 549 279 i 0;
#X obj 604 279 i 0;
#X obj 656 279 i 0;
#X connect 0 0 28 0;
#X connect 1 0 2 0;
#X connect 1 1 4 0;
#X connect 1 2 6 0;
#X connect 1 3 8 0;
#X connect 1 4 10 0;
#X connect 1 5 12 0;
#X connect 1 6 14 0;
#X connect 1 7 16 0;
#X connect 1 8 18 0;
#X connect 1 9 20 0;
#X connect 1 10 22 0;
#X connect 1 11 24 0;
#X connect 2 0 27 1;
#X connect 4 0 29 1;
#X connect 6 0 30 1;
#X connect 8 0 31 1;
#X connect 10 0 32 1;
#X connect 12 0 33 1;
#X connect 14 0 34 1;
#X connect 16 0 35 1;
#X connect 18 0 36 1;
#X connect 20 0 37 1;
#X connect 22 0 38 1;
#X connect 24 0 39 1;
#X connect 26 0 27 1;
#X connect 26 0 29 1;
#X connect 26 0 30 1;
#X connect 26 0 31 1;
#X connect 26 0 32 1;
#X connect 26 0 33 1;
#X connect 26 0 34 1;
#X connect 26 0 35 1;
#X connect 26 0 36 1;
#X connect 26 0 37 1;
#X connect 26 0 38 1;
#X connect 26 0 39 1;
#X connect 27 0 3 0;
#X connect 28 0 26 0;
#X connect 28 1 27 0;
#X connect 28 1 29 0;
#X connect 28 1 30 0;
#X connect 28 1 31 0;
#X connect 28 1 32 0;
#X connect 28 1 33 0;
#X connect 28 1 34 0;
#X connect 28 1 35 0;
#X connect 28 1 36 0;
#X connect 28 1 37 0;
#X connect 28 1 38 0;
#X connect 28 1 39 0;
#X connect 28 2 1 0;
#X connect 29 0 5 0;
#X connect 30 0 7 0;
#X connect 31 0 9 0;
#X connect 32 0 11 0;
#X connect 33 0 13 0;
#X connect 34 0 15 0;
#X connect 35 0 17 0;
#X connect 36 0 19 0;
#X connect 37 0 21 0;
#X connect 38 0 23 0;
#X connect 39 0 25 0;
#X restore 350 46 pd route-mendos ------------;
#X msg 347 -23 reset;
#X obj 350 160 tgl 19 0 empty empty 5 0 -10 0 12 #fcfcfc #000000 #000000 0 1;
#X obj 382 160 tgl 19 0 empty empty 6 0 -10 0 12 #fcfcfc #000000 #000000 0 1;
#X obj 410 160 tgl 19 0 empty empty 7 0 -10 0 12 #fcfcfc #000000 #000000 0 1;
#X obj 439 160 tgl 19 0 empty empty 8 0 -10 0 12 #fcfcfc #000000 #000000 0 1;
#X obj 467 160 tgl 19 0 empty empty 9 0 -10 0 12 #fcfcfc #000000 #000000 0 1;
#X obj 495 160 tgl 19 0 empty empty 10 0 -10 0 12 #fcfcfc #000000 #000000 0 1;
#X obj 525 160 tgl 19 0 empty empty 11 0 -10 0 12 #fcfcfc #000000 #000000 0 1;
#X obj -496 65 * 6;
#X obj -428 218 +;
#X obj -476 208 -;
#X obj -483 267 i;
#X obj -492 397 nbx 5 17 -1e+37 1e+37 0 0 empty empty empty 0 -10 0 12 #fcfcfc #000000 #000000 0 256;
#X obj -437 268 + 1;
#X obj -413 346 tgl 19 0 empty empty empty 0 -10 0 12 #fcfcfc #000000 #000000 0 1;
#X obj -464 303 <=;
#X obj -467 370 spigot 0;
#X obj -398 400 bng 19 250 50 0 empty empty empty 0 -10 0 12 #fcfcfc #000000 #000000;
#X obj -461 440 mod 12;
#X obj -409 182 i;
#X obj -342 52 t b b b;
#X obj -194 -34 bng 19 250 50 0 empty empty empty 0 -10 0 12 #fcfcfc #000000 #000000;
#X obj -497 -35 inlet params;
#X obj -169 -31 inlet update;
#X msg 291 -23 update;
#X obj -254 115 t b b b;
#X obj 29 589 outlet;
#X obj 208 227 tgl 19 0 empty empty 0 0 -10 0 12 #fcfcfc #000000 #000000 0 1;
#X obj 236 227 tgl 19 0 empty empty 1 0 -10 0 12 #fcfcfc #000000 #000000 0 1;
#X obj 263 227 tgl 19 0 empty empty 2 0 -10 0 12 #fcfcfc #000000 #000000 0 1;
#X obj 289 227 tgl 19 0 empty empty 3 0 -10 0 12 #fcfcfc #000000 #000000 0 1;
#X obj 315 227 tgl 19 0 empty empty 4 0 -10 0 12 #fcfcfc #000000 #000000 0 1;
#X obj 350 227 tgl 19 0 empty empty 5 0 -10 0 12 #fcfcfc #000000 #000000 0 1;
#X obj 382 227 tgl 19 0 empty empty 6 0 -10 0 12 #fcfcfc #000000 #000000 0 1;
#X obj 410 227 tgl 19 0 empty empty 7 0 -10 0 12 #fcfcfc #000000 #000000 0 1;
#X obj 439 227 tgl 19 0 empty empty 8 0 -10 0 12 #fcfcfc #000000 #000000 0 1;
#X obj 468 227 tgl 19 0 empty empty 9 0 -10 0 12 #fcfcfc #000000 #000000 0 1;
#X obj 496 227 tgl 19 0 empty empty 10 0 -10 0 12 #fcfcfc #000000 #000000 0 1;
#X obj 520 227 tgl 19 0 empty empty 11 0 -10 0 12 #fcfcfc #000000 #000000 0 1;
#X msg 171 378 0 \$1;
#X msg 210 378 1 \$1;
#X msg 251 378 2 \$1;
#X msg 305 378 3 \$1;
#X msg 349 378 4 \$1;
#X msg 389 378 5 \$1;
#X msg 441 378 6 \$1;
#X msg 485 378 7 \$1;
#X msg 529 378 8 \$1;
#X msg 574 378 9 \$1;
#X msg 618 378 10 \$1;
#X msg 663 378 11 \$1;
#X obj 168 313 == 0;
#X obj 208 313 == 0;
#X obj 252 313 == 0;
#X obj 292 313 == 0;
#X obj 345 313 == 0;
#X obj 385 313 == 0;
#X obj 433 313 == 0;
#X obj 473 313 == 0;
#X obj 522 313 == 0;
#X obj 562 313 == 0;
#X obj 611 313 == 0;
#X obj 664 313 == 0;
#X text 202 120 Desired state;
#X text 204 191 Restart anim;
#X obj 246 600 outlet;
#X text 310 600 Vers display;
#N canvas 204 271 1449 715 anim-logic 0;
#X obj 997 562 outlet;
#X obj 298 405 start-mendocino 0;
#X obj 439 405 start-mendocino 1;
#X obj 581 405 start-mendocino 2;
#X obj 714 405 start-mendocino 3;
#X obj 851 405 start-mendocino 4;
#X obj 992 405 start-mendocino 5;
#X obj 1136 405 start-mendocino 6;
#X obj 400 37 inlet;
#X obj 449 37 inlet;
#X obj 498 37 inlet;
#X obj 551 37 inlet;
#X obj 603 37 inlet;
#X obj 652 37 inlet;
#X obj 701 37 inlet;
#X obj 754 37 inlet;
#X obj 808 38 inlet;
#X obj 857 38 inlet;
#X obj 906 38 inlet;
#X obj 959 38 inlet;
#X obj 1278 407 start-mendocino 7;
#X obj 1413 407 start-mendocino 8;
#X obj 1543 408 start-mendocino 9;
#X obj 1678 408 start-mendocino 10;
#X obj 1827 408 start-mendocino 11;
#X obj 73 36 inlet;
#X text 118 37 sensors;
#X obj 72 99 route 0;
#X obj 81 158 nbx 5 17 -1e+37 1e+37 0 0 empty empty empty 0 -10 0 12 #fcfcfc #000000 #000000 0 256;
#X connect 1 0 0 0;
#X connect 2 0 0 0;
#X connect 3 0 0 0;
#X connect 4 0 0 0;
#X connect 5 0 0 0;
#X connect 6 0 0 0;
#X connect 7 0 0 0;
#X connect 8 0 1 0;
#X connect 9 0 2 0;
#X connect 10 0 3 0;
#X connect 11 0 4 0;
#X connect 12 0 5 0;
#X connect 13 0 6 0;
#X connect 14 0 7 0;
#X connect 15 0 20 0;
#X connect 16 0 21 0;
#X connect 17 0 22 0;
#X connect 18 0 23 0;
#X connect 19 0 24 0;
#X connect 20 0 0 0;
#X connect 21 0 0 0;
#X connect 22 0 0 0;
#X connect 23 0 0 0;
#X connect 24 0 0 0;
#X connect 25 0 27 0;
#X connect 27 0 28 0;
#X restore 219 553 pd anim-logic ----------------------;
#X msg 615 179 \$1;
#X obj 619 132 tgl 19 0 empty empty empty 0 -10 0 12 #fcfcfc #000000 #000000 0 1;
#X text 85 593 Vers pd pulses;
#X obj -107 115 route 9;
#X obj -105 150 nbx 5 17 -1e+37 1e+37 0 0 empty empty empty 0 -10 0 12 #fcfcfc #000000 #000000 0 256;
#X obj -496 9 route etalement /clock /sensor;
#X connect 0 0 1 0;
#X connect 1 0 29 1;
#X connect 2 0 18 0;
#X connect 3 0 20 1;
#X connect 3 0 19 1;
#X connect 9 0 4 0;
#X connect 9 1 5 0;
#X connect 9 2 6 0;
#X connect 9 3 7 0;
#X connect 9 4 8 0;
#X connect 9 5 11 0;
#X connect 9 6 12 0;
#X connect 9 7 13 0;
#X connect 9 8 14 0;
#X connect 9 9 15 0;
#X connect 9 10 16 0;
#X connect 9 11 17 0;
#X connect 10 0 9 0;
#X connect 18 0 3 1;
#X connect 19 0 25 1;
#X connect 20 0 21 1;
#X connect 21 0 23 0;
#X connect 21 0 25 0;
#X connect 21 0 26 0;
#X connect 22 0 28 0;
#X connect 23 0 21 1;
#X connect 24 0 26 1;
#X connect 25 0 24 0;
#X connect 26 0 22 0;
#X connect 26 0 27 0;
#X connect 27 0 21 0;
#X connect 28 0 9 0;
#X connect 29 0 20 0;
#X connect 29 0 19 0;
#X connect 30 0 35 0;
#X connect 30 1 29 0;
#X connect 30 2 3 0;
#X connect 31 0 30 0;
#X connect 32 0 83 0;
#X connect 33 0 30 0;
#X connect 34 0 9 0;
#X connect 35 0 34 0;
#X connect 35 1 21 0;
#X connect 35 2 10 0;
#X connect 37 0 61 0;
#X connect 37 0 77 1;
#X connect 38 0 62 0;
#X connect 38 0 77 2;
#X connect 39 0 63 0;
#X connect 39 0 77 3;
#X connect 40 0 64 0;
#X connect 40 0 77 4;
#X connect 41 0 65 0;
#X connect 41 0 77 5;
#X connect 42 0 66 0;
#X connect 42 0 77 6;
#X connect 43 0 67 0;
#X connect 43 0 77 7;
#X connect 44 0 68 0;
#X connect 44 0 77 8;
#X connect 45 0 69 0;
#X connect 45 0 77 9;
#X connect 46 0 70 0;
#X connect 46 0 77 10;
#X connect 47 0 71 0;
#X connect 47 0 77 11;
#X connect 48 0 72 0;
#X connect 48 0 77 12;
#X connect 49 0 36 0;
#X connect 50 0 36 0;
#X connect 51 0 36 0;
#X connect 52 0 36 0;
#X connect 53 0 36 0;
#X connect 54 0 36 0;
#X connect 55 0 36 0;
#X connect 56 0 36 0;
#X connect 57 0 36 0;
#X connect 58 0 36 0;
#X connect 59 0 36 0;
#X connect 60 0 36 0;
#X connect 61 0 49 0;
#X connect 62 0 50 0;
#X connect 63 0 51 0;
#X connect 64 0 52 0;
#X connect 65 0 53 0;
#X connect 66 0 54 0;
#X connect 67 0 55 0;
#X connect 68 0 56 0;
#X connect 69 0 57 0;
#X connect 70 0 58 0;
#X connect 71 0 59 0;
#X connect 72 0 60 0;
#X connect 77 0 75 0;
#X connect 78 0 48 0;
#X connect 78 0 47 0;
#X connect 78 0 46 0;
#X connect 78 0 45 0;
#X connect 78 0 44 0;
#X connect 78 0 43 0;
#X connect 78 0 42 0;
#X connect 78 0 41 0;
#X connect 78 0 40 0;
#X connect 78 0 39 0;
#X connect 78 0 38 0;
#X connect 78 0 37 0;
#X connect 79 0 78 0;
#X connect 81 0 82 0;
#X connect 83 0 2 0;
#X connect 83 1 0 0;
#X connect 83 2 81 0;
#X coords 0 -1 1 1 350 180 1 200 100;
