#N canvas 177 114 1359 951 12;
#X msg -308 -524 \$1;
#X obj -308 -469 mod 12;
#X obj -391 -554 nbx 5 17 -1e+37 1e+37 0 0 empty empty empty 0 -10 0 12 #fcfcfc #000000 #000000 0 256;
#X obj -391 -472 i;
#X obj -391 -583 route /luminosity /clock;
#X obj 206 160 tgl 19 0 empty empty 0 0 -10 0 12 #fcfcfc #000000 #000000 0 1;
#X obj 235 160 tgl 19 0 empty empty 1 0 -10 0 12 #fcfcfc #000000 #000000 0 1;
#X obj 262 160 tgl 19 0 empty empty 2 0 -10 0 12 #fcfcfc #000000 #000000 0 1;
#X obj 289 160 tgl 19 0 empty empty 3 0 -10 0 12 #fcfcfc #000000 #000000 0 1;
#X obj 319 160 tgl 19 0 empty empty 4 0 -10 0 12 #fcfcfc #000000 #000000 0 1;
#N canvas 400 233 1119 658 route-mendos 0;
#X obj 149 21 inlet;
#X obj 367 127 route 0 1 2 3 4 5 6 7 8 9 10 11;
#X msg 57 225 1;
#X obj 43 334 outlet;
#X msg 110 225 1;
#X obj 99 334 outlet;
#X msg 170 225 1;
#X obj 157 334 outlet;
#X msg 221 225 1;
#X obj 211 334 outlet;
#X msg 276 225 1;
#X obj 264 334 outlet;
#X msg 327 225 1;
#X obj 315 334 outlet;
#X msg 377 225 1;
#X obj 377 334 outlet;
#X msg 438 225 1;
#X obj 438 334 outlet;
#X msg 496 225 1;
#X obj 496 334 outlet;
#X msg 551 225 1;
#X obj 557 334 outlet;
#X msg 602 225 1;
#X obj 608 334 outlet;
#X msg 664 225 1;
#X obj 670 334 outlet;
#X msg 46 95 0;
#X obj 59 279 i 0;
#X obj 158 87 route reset update;
#X obj 114 279 i 0;
#X obj 166 279 i 0;
#X obj 220 279 i 0;
#X obj 275 279 i 0;
#X obj 327 279 i 0;
#X obj 378 279 i 0;
#X obj 433 279 i 0;
#X obj 485 279 i 0;
#X obj 549 279 i 0;
#X obj 604 279 i 0;
#X obj 656 279 i 0;
#X connect 0 0 28 0;
#X connect 1 0 2 0;
#X connect 1 1 4 0;
#X connect 1 2 6 0;
#X connect 1 3 8 0;
#X connect 1 4 10 0;
#X connect 1 5 12 0;
#X connect 1 6 14 0;
#X connect 1 7 16 0;
#X connect 1 8 18 0;
#X connect 1 9 20 0;
#X connect 1 10 22 0;
#X connect 1 11 24 0;
#X connect 2 0 27 1;
#X connect 4 0 29 1;
#X connect 6 0 30 1;
#X connect 8 0 31 1;
#X connect 10 0 32 1;
#X connect 12 0 33 1;
#X connect 14 0 34 1;
#X connect 16 0 35 1;
#X connect 18 0 36 1;
#X connect 20 0 37 1;
#X connect 22 0 38 1;
#X connect 24 0 39 1;
#X connect 26 0 27 1;
#X connect 26 0 29 1;
#X connect 26 0 30 1;
#X connect 26 0 31 1;
#X connect 26 0 32 1;
#X connect 26 0 33 1;
#X connect 26 0 34 1;
#X connect 26 0 35 1;
#X connect 26 0 36 1;
#X connect 26 0 37 1;
#X connect 26 0 38 1;
#X connect 26 0 39 1;
#X connect 27 0 3 0;
#X connect 28 0 26 0;
#X connect 28 1 27 0;
#X connect 28 1 29 0;
#X connect 28 1 30 0;
#X connect 28 1 31 0;
#X connect 28 1 32 0;
#X connect 28 1 33 0;
#X connect 28 1 34 0;
#X connect 28 1 35 0;
#X connect 28 1 36 0;
#X connect 28 1 37 0;
#X connect 28 1 38 0;
#X connect 28 1 39 0;
#X connect 28 2 1 0;
#X connect 29 0 5 0;
#X connect 30 0 7 0;
#X connect 31 0 9 0;
#X connect 32 0 11 0;
#X connect 33 0 13 0;
#X connect 34 0 15 0;
#X connect 35 0 17 0;
#X connect 36 0 19 0;
#X connect 37 0 21 0;
#X connect 38 0 23 0;
#X connect 39 0 25 0;
#X restore 350 46 pd route-mendos ------------;
#X msg 347 -23 reset;
#X obj 350 160 tgl 19 0 empty empty 5 0 -10 0 12 #fcfcfc #000000 #000000 0 1;
#X obj 382 160 tgl 19 0 empty empty 6 0 -10 0 12 #fcfcfc #000000 #000000 0 1;
#X obj 410 160 tgl 19 0 empty empty 7 0 -10 0 12 #fcfcfc #000000 #000000 0 1;
#X obj 439 160 tgl 19 0 empty empty 8 0 -10 0 12 #fcfcfc #000000 #000000 0 1;
#X obj 467 160 tgl 19 0 empty empty 9 0 -10 0 12 #fcfcfc #000000 #000000 0 1;
#X obj 495 160 tgl 19 0 empty empty 10 0 -10 0 12 #fcfcfc #000000 #000000 0 1;
#X obj 525 160 tgl 19 0 empty empty 11 0 -10 0 12 #fcfcfc #000000 #000000 0 1;
#X obj -391 -527 * 6;
#X obj -335 -254 +;
#X obj -383 -264 -;
#X obj 134 -290 i;
#X obj 125 -160 nbx 5 17 -1e+37 1e+37 0 0 empty empty empty 0 -10 0 12 #fcfcfc #000000 #000000 0 256;
#X obj 180 -289 + 1;
#X obj 204 -211 tgl 19 0 empty empty empty 0 -10 0 12 #fcfcfc #000000 #000000 0 1;
#X obj 153 -254 <=;
#X obj 150 -187 spigot 0;
#X obj 219 -157 bng 19 250 50 0 empty empty empty 0 -10 0 12 #fcfcfc #000000 #000000;
#X obj 156 -117 mod 12;
#X obj -304 -410 i;
#X obj -189 -585 t b b b;
#X obj -189 -630 bng 19 250 50 0 empty empty empty 0 -10 0 12 #fcfcfc #000000 #000000;
#X obj -392 -627 inlet params;
#X obj -164 -627 inlet update;
#X msg 428 -16 update;
#X obj 142 -401 t b b b;
#X connect 0 0 1 0;
#X connect 1 0 30 1;
#X connect 2 0 19 0;
#X connect 3 0 21 1;
#X connect 3 0 20 1;
#X connect 4 0 2 0;
#X connect 4 1 0 0;
#X connect 10 0 5 0;
#X connect 10 1 6 0;
#X connect 10 2 7 0;
#X connect 10 3 8 0;
#X connect 10 4 9 0;
#X connect 10 5 12 0;
#X connect 10 6 13 0;
#X connect 10 7 14 0;
#X connect 10 8 15 0;
#X connect 10 9 16 0;
#X connect 10 10 17 0;
#X connect 10 11 18 0;
#X connect 11 0 10 0;
#X connect 19 0 3 1;
#X connect 20 0 26 1;
#X connect 21 0 22 1;
#X connect 22 0 24 0;
#X connect 22 0 26 0;
#X connect 22 0 27 0;
#X connect 23 0 29 0;
#X connect 24 0 22 1;
#X connect 25 0 27 1;
#X connect 26 0 25 0;
#X connect 27 0 23 0;
#X connect 27 0 28 0;
#X connect 28 0 22 0;
#X connect 29 0 10 0;
#X connect 30 0 21 0;
#X connect 30 0 20 0;
#X connect 31 0 36 0;
#X connect 31 1 30 0;
#X connect 31 2 3 0;
#X connect 32 0 31 0;
#X connect 33 0 4 0;
#X connect 34 0 31 0;
#X connect 35 0 10 0;
#X connect 36 0 35 0;
#X connect 36 1 22 0;
#X connect 36 2 11 0;
#X coords 0 -1 1 1 350 100 1 200 100;
