#N canvas 194 424 580 535 12;
#X msg 164 193 line 0;
#X msg 244 205 step;
#X obj 290 316 bng 19 250 50 0 empty empty empty 0 -10 0 12 #fcfcfc #000000 #000000;
#X obj 172 362 nbx 5 17 -1e+37 1e+37 0 0 empty empty empty 0 -10 0 12 #fcfcfc #000000 #000000 0 256;
#X obj 76 362 nbx 5 17 -1e+37 1e+37 0 0 empty empty empty 0 -10 0 12 #fcfcfc #000000 #000000 0 256;
#X obj 124 313 unpack f f;
#X obj 82 427 line 0 100;
#X obj 178 403 delay;
#X msg 75 395 \$1 500;
#X msg 64 161 0;
#X obj 86 73 inlet;
#X obj 187 506 outlet;
#X obj 101 119 sel 0 1;
#X obj 213 88 print start-mendo-seq;
#X obj 206 146 t b b;
#X obj 278 503 outlet;
#X obj 128 248 text sequence start-seq;
#X connect 0 0 16 0;
#X connect 1 0 16 0;
#X connect 2 0 15 0;
#X connect 3 0 7 0;
#X connect 4 0 8 0;
#X connect 5 0 4 0;
#X connect 5 1 3 0;
#X connect 6 0 11 0;
#X connect 7 0 1 0;
#X connect 8 0 6 0;
#X connect 9 0 6 0;
#X connect 10 0 12 0;
#X connect 10 0 13 0;
#X connect 12 0 9 0;
#X connect 12 1 14 0;
#X connect 14 0 1 0;
#X connect 14 1 0 0;
#X connect 16 0 5 0;
#X connect 16 1 2 0;
