#N canvas 742 284 757 653 12;
#X obj 127 612 outlet;
#X obj 129 571 spigot 0;
#X obj 95 70 inlet;
#X obj 59 300 * 255;
#X obj 30 350 t b f;
#X msg 45 383 \$1 \$1 \$1;
#X msg 22 514 update;
#X msg 261 499 all \$1 \$2 \$3;
#X obj 278 614 outlet;
#X obj 43 244 start-mendocino-sequencer2;
#X connect 1 0 0 0;
#X connect 2 0 1 1;
#X connect 2 0 9 0;
#X connect 3 0 4 0;
#X connect 4 0 6 0;
#X connect 4 1 5 0;
#X connect 5 0 7 0;
#X connect 6 0 1 0;
#X connect 7 0 1 0;
#X connect 9 0 3 0;
#X connect 9 1 8 0;
