#N canvas 875 311 757 653 12;
#X obj 244 42 loadbang;
#X obj 177 201 * 2;
#X obj 252 221 + 1;
#X obj 313 89 bng 19 250 50 0 empty empty empty 0 -10 0 12 #fcfcfc #000000 #000000;
#X obj 253 128 f \$1;
#X obj 127 612 outlet;
#N canvas 1064 249 450 300 set-msg 0;
#X obj 62 74 inlet;
#X msg 46 132 set pix1 \$1;
#X msg 148 150 adddollar 1;
#X msg 245 153 adddollar 2;
#X msg 335 153 adddollar 3;
#X obj 53 213 outlet;
#X obj 115 100 t b b b f;
#X connect 0 0 6 0;
#X connect 1 0 5 0;
#X connect 2 0 5 0;
#X connect 3 0 5 0;
#X connect 4 0 5 0;
#X connect 6 0 4 0;
#X connect 6 1 3 0;
#X connect 6 2 2 0;
#X connect 6 3 1 0;
#X restore 177 313 pd set-msg;
#X msg 112 437 pix1 6 \$1 \$2 \$3;
#X msg 259 436 pix1 7 \$1 \$2 \$3;
#N canvas 1064 249 450 300 set-msg 0;
#X obj 62 74 inlet;
#X msg 46 132 set pix1 \$1;
#X msg 148 150 adddollar 1;
#X msg 245 153 adddollar 2;
#X msg 335 153 adddollar 3;
#X obj 53 213 outlet;
#X obj 115 100 t b b b f;
#X connect 0 0 6 0;
#X connect 1 0 5 0;
#X connect 2 0 5 0;
#X connect 3 0 5 0;
#X connect 4 0 5 0;
#X connect 6 0 4 0;
#X connect 6 1 3 0;
#X connect 6 2 2 0;
#X connect 6 3 1 0;
#X restore 270 311 pd set-msg;
#X obj 129 571 spigot 0;
#X obj 95 70 inlet;
#X obj 59 300 * 255;
#X obj 30 350 t b f;
#X msg 45 383 \$1 \$1 \$1;
#X msg 22 514 update;
#X obj 43 244 start-mendocino-sequencer;
#X obj 117 123 change;
#X obj 137 166 print start-mendocino state;
#X connect 0 0 4 0;
#X connect 1 0 2 0;
#X connect 1 0 6 0;
#X connect 2 0 9 0;
#X connect 3 0 4 0;
#X connect 4 0 1 0;
#X connect 6 0 7 0;
#X connect 7 0 10 0;
#X connect 8 0 10 0;
#X connect 9 0 8 0;
#X connect 10 0 5 0;
#X connect 11 0 17 0;
#X connect 12 0 13 0;
#X connect 13 0 15 0;
#X connect 13 1 14 0;
#X connect 14 0 8 0;
#X connect 14 0 7 0;
#X connect 15 0 10 0;
#X connect 16 0 12 0;
#X connect 17 0 10 1;
#X connect 17 0 16 0;
#X connect 17 0 18 0;
