#N canvas 742 284 757 653 12;
#X obj 127 612 outlet;
#X obj 129 571 spigot 0;
#X obj 95 70 inlet;
#X obj 30 350 t b f;
#X msg 22 514 update;
#X obj 278 614 outlet;
#X obj 43 244 start-mendocino-sequencer2;
#X obj 306 268 config-query start-animation-color;
#X obj 292 426 * 1;
#X msg 292 352 \$1;
#X obj 330 424 * 1;
#X msg 329 350 \$2;
#X obj 372 426 * 1;
#X msg 371 351 \$3;
#X msg 261 499 all \$1 \$2 \$3;
#X obj 298 449 pack f f f;
#X obj 73 372 t f f f;
#X connect 1 0 0 0;
#X connect 2 0 1 1;
#X connect 2 0 6 0;
#X connect 3 0 4 0;
#X connect 3 1 16 0;
#X connect 4 0 1 0;
#X connect 6 0 3 0;
#X connect 6 1 5 0;
#X connect 7 0 9 0;
#X connect 7 0 11 0;
#X connect 7 0 13 0;
#X connect 8 0 15 0;
#X connect 9 0 8 1;
#X connect 10 0 15 1;
#X connect 11 0 10 1;
#X connect 12 0 15 2;
#X connect 13 0 12 1;
#X connect 14 0 1 0;
#X connect 15 0 14 0;
#X connect 16 0 8 0;
#X connect 16 1 10 0;
#X connect 16 2 12 0;
