#N canvas 837 298 636 594 12;
#X obj 162 41 loadbang;
#X obj 107 178 * 2;
#X obj 182 198 + 1;
#X obj 68 240 nbx 5 17 -1e+37 1e+37 0 0 empty empty empty 0 -10 0 12 #fcfcfc #000000 #000000 0 256;
#X obj 196 237 nbx 5 17 -1e+37 1e+37 0 0 empty empty empty 0 -10 0 12 #fcfcfc #000000 #000000 0 256;
#X obj 243 66 bng 19 250 50 0 empty empty empty 0 -10 0 12 #fcfcfc #000000 #000000;
#X obj 183 105 f \$1;
#X obj 36 77 inlet;
#X obj 50 487 outlet;
#N canvas 1064 249 450 300 set-msg 0;
#X obj 62 74 inlet;
#X msg 46 132 set pix1 \$1;
#X msg 148 150 adddollar 1;
#X msg 245 153 adddollar 2;
#X msg 335 153 adddollar 3;
#X obj 53 213 outlet;
#X obj 115 100 t b b b f;
#X connect 0 0 6 0;
#X connect 1 0 5 0;
#X connect 2 0 5 0;
#X connect 3 0 5 0;
#X connect 4 0 5 0;
#X connect 6 0 4 0;
#X connect 6 1 3 0;
#X connect 6 2 2 0;
#X connect 6 3 1 0;
#X restore 107 290 pd set-msg;
#X msg 42 414 pix1 0 \$1 \$2 \$3;
#X msg 189 413 pix1 1 \$1 \$2 \$3;
#N canvas 1064 249 450 300 set-msg 0;
#X obj 62 74 inlet;
#X msg 46 132 set pix1 \$1;
#X msg 148 150 adddollar 1;
#X msg 245 153 adddollar 2;
#X msg 335 153 adddollar 3;
#X obj 53 213 outlet;
#X obj 115 100 t b b b f;
#X connect 0 0 6 0;
#X connect 1 0 5 0;
#X connect 2 0 5 0;
#X connect 3 0 5 0;
#X connect 4 0 5 0;
#X connect 6 0 4 0;
#X connect 6 1 3 0;
#X connect 6 2 2 0;
#X connect 6 3 1 0;
#X restore 200 288 pd set-msg;
#X obj 52 446 spigot 0;
#X obj 334 82 inlet;
#X obj -17 250 line 0 100;
#X msg -16 221 \$1 500;
#X obj -15 194 tgl 19 0 empty empty empty 0 -10 0 12 #fcfcfc #000000 #000000 0 1;
#X obj -11 277 * 255;
#X obj -89 338 t b f;
#X msg -25 375 \$1 \$1 \$1;
#X msg -59 444 update;
#X connect 0 0 6 0;
#X connect 1 0 2 0;
#X connect 1 0 3 0;
#X connect 2 0 4 0;
#X connect 3 0 9 0;
#X connect 4 0 12 0;
#X connect 5 0 6 0;
#X connect 6 0 1 0;
#X connect 7 0 17 0;
#X connect 9 0 10 0;
#X connect 10 0 13 0;
#X connect 11 0 13 0;
#X connect 12 0 11 0;
#X connect 13 0 8 0;
#X connect 14 0 13 1;
#X connect 15 0 18 0;
#X connect 16 0 15 0;
#X connect 17 0 16 0;
#X connect 18 0 19 0;
#X connect 19 0 21 0;
#X connect 19 1 20 0;
#X connect 20 0 11 0;
#X connect 20 0 10 0;
#X connect 21 0 8 0;
