#N canvas 832 220 997 707 12;
#X obj 109 67 vsl 19 162 0 1 0 0 empty empty empty 0 -9 0 12 #fcfcfc #000000 #000000 0 1;
#X text 44 39 intensité lumineuse;
#X obj 108 249 nbx 5 17 -1e+37 1e+37 0 0 empty empty empty 0 -10 0 12 #fcfcfc #000000 #000000 0 256;
#X obj 256 71 vsl 19 162 0 1 0 0 empty empty empty 0 -9 0 12 #fcfcfc #000000 #000000 0 1;
#X obj 255 253 nbx 5 17 -1e+37 1e+37 0 0 empty empty empty 0 -10 0 12 #fcfcfc #000000 #000000 0 256;
#X text 223 41 % batterie;
#X obj 376 253 nbx 5 17 -1e+37 1e+37 0 0 empty empty empty 0 -10 0 12 #fcfcfc #000000 #000000 0 256;
#X obj 377 85 vradio 19 1 0 4 empty empty empty 0 -10 0 12 #fcfcfc #000000 #000000 0;
#X text 405 85 0: nuit;
#X text 405 105 1: nuageux;
#X text 406 125 2: beau temps;
#X text 405 145 3: plein soleil;
#X obj 59 499 nbx 5 17 -1e+37 1e+37 0 0 empty empty empty 0 -10 0 12 #fcfcfc #000000 #000000 0 256;
#X obj 60 331 vradio 19 1 0 3 empty empty empty 0 -10 0 12 #fcfcfc #000000 #000000 0;
#X text 88 331 0: None;
#X text 88 351 1: Eco1;
#X text 89 371 2: Eco2;
#X text 51 303 energy saving (en fonction de la météo des jours à venir);
#X text 6 73 % de lumière reçu par le panneau, f 13;
#X text 370 41 météo T;
#X obj 559 253 nbx 5 17 -1e+37 1e+37 0 0 empty empty empty 0 -10 0 12 #fcfcfc #000000 #000000 0 256;
#X obj 560 85 vradio 19 1 0 4 empty empty empty 0 -10 0 12 #fcfcfc #000000 #000000 0;
#X text 588 85 0: nuit;
#X text 588 105 1: nuageux;
#X text 589 125 2: beau temps;
#X text 588 145 3: plein soleil;
#X text 553 41 météo T+1;
#X connect 0 0 2 0;
#X connect 3 0 4 0;
#X connect 7 0 6 0;
#X connect 13 0 12 0;
#X connect 21 0 20 0;
