#N canvas 573 508 796 510 12;
#X obj 337 -76 tgl 19 0 empty empty empty 0 -10 0 12 #fcfcfc #000000 #000000 0 1;
#X obj 383 146 nbx 5 17 -1e+37 1e+37 0 0 empty empty empty 0 -10 0 12 #fcfcfc #000000 #000000 0 256;
#X obj 383 178 vsl 19 162 0 255 0 0 empty empty empty 0 -9 0 12 #fcfcfc #000000 #000000 0 1;
#X msg 438 -15 reset;
#X obj 275 146 nbx 5 17 -1e+37 1e+37 0 0 empty empty empty 0 -10 0 12 #fcfcfc #000000 #000000 0 256;
#X obj 275 178 vsl 19 162 0 255 0 0 empty empty empty 0 -9 0 12 #fcfcfc #000000 #000000 0 1;
#X obj 343 127 bng 19 250 50 0 empty empty empty 0 -10 0 12 #fcfcfc #000000 #000000;
#X obj 454 128 bng 19 250 50 0 empty empty empty 0 -10 0 12 #fcfcfc #000000 #000000;
#X obj 383 100 ramp2 50;
#X obj 275 100 ramp2;
#X obj 334 -35 metro 200;
#X obj 442 306 s led1;
#X obj 507 313 s led2;
#X connect 0 0 10 0;
#X connect 1 0 2 0;
#X connect 3 0 9 0;
#X connect 3 0 8 0;
#X connect 4 0 5 0;
#X connect 8 0 1 0;
#X connect 8 0 12 0;
#X connect 8 1 7 0;
#X connect 9 0 4 0;
#X connect 9 0 11 0;
#X connect 9 1 6 0;
#X connect 10 0 9 0;
#X connect 10 0 8 0;
