#N canvas 893 186 898 873 12;
#X obj 326 376 text define -k start-mode;
#A set leds 0 0 \; 6 \; leds 255 255 \; 6 \;;
#X obj 383 178 bng 19 250 50 0 empty empty empty 0 -10 0 12 #fcfcfc #000000 #000000;
#X msg 318 328 line 0;
#X msg 226 342 auto;
#X obj 323 274 t b b;
#X msg 224 195 stop;
#X msg 374 149 start;
#X msg 306 184 reset;
#X obj 183 458 text sequence start-mode -g -t 1 sec;
#X obj 147 576 r leds;
#X obj 207 512 print LEDS;
#X obj 147 615 unpack f f;
#X obj 149 682 tgl 19 0 empty empty empty 0 -10 0 12 #fcfcfc #000000 #000000 0 1;
#X obj 231 679 tgl 19 0 empty empty empty 0 -10 0 12 #fcfcfc #000000 #000000 0 1;
#X obj 456 516 bng 19 250 50 0 empty empty empty 0 -10 0 12 #fcfcfc #000000 #000000;
#X msg 165 287 tempo 1 sec;
#X obj 50 173 vsl 19 162 0.5 10 0 0 empty empty empty 0 -9 0 12 #fcfcfc #000000 #000000 0 1;
#X obj 101 214 nbx 5 17 -1e+37 1e+37 0 0 empty empty empty 0 -10 0 12 #fcfcfc #000000 #000000 0 256;
#X obj 128 727 s led1;
#X obj 244 727 s led2;
#X msg 78 290 args \$1;
#X obj 411 719 nbx 5 17 -1e+37 1e+37 0 0 empty empty empty 0 -10 0 12 #fcfcfc #000000 #000000 0 256;
#X msg 301 635 \$1 1000;
#X obj 327 663 line 40;
#X obj 177 50 route stop reset start;
#X obj 245 15 inlet;
#X obj 114 782 outlet;
#X connect 1 0 4 0;
#X connect 2 0 8 0;
#X connect 3 0 8 0;
#X connect 4 0 3 0;
#X connect 4 1 2 0;
#X connect 5 0 8 0;
#X connect 6 0 1 0;
#X connect 7 0 2 0;
#X connect 8 0 10 0;
#X connect 8 1 4 0;
#X connect 8 1 14 0;
#X connect 9 0 11 0;
#X connect 11 0 12 0;
#X connect 11 0 22 0;
#X connect 11 1 13 0;
#X connect 12 0 18 0;
#X connect 12 0 26 0;
#X connect 13 0 19 0;
#X connect 15 0 8 0;
#X connect 16 0 17 0;
#X connect 17 0 20 0;
#X connect 20 0 8 0;
#X connect 22 0 23 0;
#X connect 23 0 21 0;
#X connect 24 0 5 0;
#X connect 24 1 7 0;
#X connect 24 2 6 0;
#X connect 25 0 24 0;
