#N canvas 150 372 1467 793 12;
#X obj 597 716 outlet;
#X obj 581 17 inlet;
#X obj 460 20 inlet;
#X obj 459 70 change;
#X obj 452 140 nbx 5 17 -1e+37 1e+37 0 0 empty empty empty 0 -10 0 12 #fcfcfc #000000 #000000 0 256;
#X obj 461 398 route -1;
#X obj 994 199 expr if($f1>1.8 && $f1 <=2 \, 3 \, -1);
#X obj 1247 198 expr if($f1>2 \, 4 \, -1);
#X obj 555 452 nbx 5 17 -1e+37 1e+37 0 0 empty empty State 0 -10 0 12 #fcfcfc #000000 #000000 0 256;
#N canvas 92 521 450 508 pulse-demarrage 0;
#X obj 125 276 line 0 100;
#X msg 93 122 1 1000;
#X obj 124 314 == 1;
#X msg 174 122 0 1000;
#X obj 124 348 change;
#X obj 124 160 delay 5000;
#X obj 122 387 sel 0 1;
#X obj 224 159 delay 4000;
#X obj 92 92 bng 19 250 50 0 empty empty empty 0 -10 0 12 #fcfcfc #000000 #000000;
#X obj 69 471 outlet;
#X obj 155 16 inlet;
#X obj 151 59 sel 1 0;
#X msg 230 84 stop;
#X connect 0 0 2 0;
#X connect 0 0 9 0;
#X connect 1 0 0 0;
#X connect 2 0 4 0;
#X connect 3 0 0 0;
#X connect 4 0 6 0;
#X connect 5 0 3 0;
#X connect 6 0 7 0;
#X connect 6 1 5 0;
#X connect 7 0 1 0;
#X connect 8 0 1 0;
#X connect 10 0 11 0;
#X connect 11 0 8 0;
#X connect 11 1 3 0;
#X connect 11 1 12 0;
#X connect 12 0 5 0;
#X connect 12 0 7 0;
#X restore 420 536 pd pulse-demarrage;
#X obj 420 503 == 1;
#X obj 461 45 spigot 0;
#X obj 420 600 spigot 0;
#X obj 590 64 sel 0 1;
#X msg 604 110 0;
#X obj 579 503 == 2;
#X obj 579 569 nbx 5 17 -1e+37 1e+37 0 0 empty empty empty 0 -10 0 12 #fcfcfc #000000 #000000 0 256;
#X obj 420 569 nbx 5 17 -1e+37 1e+37 0 0 empty empty empty 0 -10 0 12 #fcfcfc #000000 #000000 0 256;
#X obj 468 503 tgl 19 0 empty empty empty 0 -10 0 12 #fcfcfc #000000 #000000 0 1;
#X obj 631 503 tgl 19 0 empty empty empty 0 -10 0 12 #fcfcfc #000000 #000000 0 1;
#N canvas 927 318 565 537 pulse2 0;
#X obj 127 37 inlet;
#X obj 141 486 outlet;
#X obj 214 27 tgl 19 0 empty empty empty 0 -10 0 12 #fcfcfc #000000 #000000 0 1;
#X obj 140 440 nbx 5 17 -1e+37 1e+37 0 0 empty empty empty 0 -10 0 12 #fcfcfc #000000 #000000 0 256;
#X msg 156 137 0;
#X obj 69 238 line 0 20;
#X obj 126 267 change;
#X obj 126 299 sel 1;
#X obj 167 341 bng 19 250 50 0 empty empty empty 0 -10 0 12 #fcfcfc #000000 #000000;
#X obj 252 249 line 0 20;
#X obj 309 278 change;
#X obj 309 310 sel 0;
#X obj 319 350 bng 19 250 50 0 empty empty empty 0 -10 0 12 #fcfcfc #000000 #000000;
#X obj 130 75 sel 0 1;
#X obj 219 363 spigot 0;
#X obj 316 386 spigot 0;
#X obj 221 414 spigot 0;
#X msg 68 132 0 \, 1 5000;
#X msg 249 173 1 \, 0 5000;
#X connect 0 0 2 0;
#X connect 2 0 13 0;
#X connect 2 0 14 1;
#X connect 2 0 15 1;
#X connect 2 0 16 1;
#X connect 4 0 5 0;
#X connect 4 0 9 0;
#X connect 5 0 6 0;
#X connect 5 0 16 0;
#X connect 6 0 7 0;
#X connect 7 0 8 0;
#X connect 8 0 14 0;
#X connect 9 0 10 0;
#X connect 9 0 16 0;
#X connect 10 0 11 0;
#X connect 11 0 12 0;
#X connect 12 0 15 0;
#X connect 13 0 4 0;
#X connect 13 1 17 0;
#X connect 14 0 18 0;
#X connect 15 0 17 0;
#X connect 16 0 3 0;
#X connect 16 0 1 0;
#X connect 17 0 5 0;
#X connect 18 0 9 0;
#X restore 579 536 pd pulse2;
#N canvas 179 218 506 536 pulse3 0;
#X obj 214 0 inlet;
#X obj 141 486 outlet;
#X obj 214 27 tgl 19 0 empty empty empty 0 -10 0 12 #fcfcfc #000000 #000000 0 1;
#X obj 140 440 nbx 5 17 -1e+37 1e+37 0 0 empty empty empty 0 -10 0 12 #fcfcfc #000000 #000000 0 256;
#X msg 156 137 0;
#X obj 69 238 line 0 20;
#X msg 68 132 0 \, 1 1000;
#X obj 126 267 change;
#X obj 126 299 sel 1;
#X obj 167 341 bng 19 250 50 0 empty empty empty 0 -10 0 12 #fcfcfc #000000 #000000;
#X obj 252 249 line 0 20;
#X obj 309 278 change;
#X msg 249 173 1 \, 0 1000;
#X obj 309 310 sel 0;
#X obj 319 350 bng 19 250 50 0 empty empty empty 0 -10 0 12 #fcfcfc #000000 #000000;
#X obj 130 75 sel 0 1;
#X obj 219 363 spigot 0;
#X obj 316 386 spigot 0;
#X obj 221 414 spigot 0;
#X connect 0 0 2 0;
#X connect 2 0 15 0;
#X connect 2 0 16 1;
#X connect 2 0 17 1;
#X connect 2 0 18 1;
#X connect 3 0 1 0;
#X connect 4 0 5 0;
#X connect 4 0 10 0;
#X connect 5 0 7 0;
#X connect 5 0 18 0;
#X connect 6 0 5 0;
#X connect 7 0 8 0;
#X connect 8 0 9 0;
#X connect 9 0 16 0;
#X connect 10 0 11 0;
#X connect 10 0 18 0;
#X connect 11 0 13 0;
#X connect 12 0 10 0;
#X connect 13 0 14 0;
#X connect 14 0 17 0;
#X connect 15 0 4 0;
#X connect 15 1 6 0;
#X connect 16 0 12 0;
#X connect 17 0 6 0;
#X connect 18 0 3 0;
#X restore 720 536 pd pulse3;
#X obj 599 682 nbx 5 17 -1e+37 1e+37 0 0 empty empty empty 0 -10 0 12 #fcfcfc #000000 #000000 0 256;
#X obj 765 503 tgl 19 0 empty empty empty 0 -10 0 12 #fcfcfc #000000 #000000 0 1;
#X obj 720 503 == 3;
#X obj 720 569 nbx 5 17 -1e+37 1e+37 0 0 empty empty empty 0 -10 0 12 #fcfcfc #000000 #000000 0 256;
#X obj 579 600 spigot 0;
#X obj 720 600 spigot 0;
#X obj 892 506 tgl 19 0 empty empty empty 0 -10 0 12 #fcfcfc #000000 #000000 0 1;
#X obj 847 572 nbx 5 17 -1e+37 1e+37 0 0 empty empty empty 0 -10 0 12 #fcfcfc #000000 #000000 0 256;
#X obj 847 603 spigot 0;
#X obj 847 506 == 4;
#N canvas 606 277 506 536 pulse4 0;
#X obj 214 0 inlet;
#X obj 141 486 outlet;
#X obj 214 27 tgl 19 0 empty empty empty 0 -10 0 12 #fcfcfc #000000 #000000 0 1;
#X obj 140 440 nbx 5 17 -1e+37 1e+37 0 0 empty empty empty 0 -10 0 12 #fcfcfc #000000 #000000 0 256;
#X msg 156 137 0;
#X obj 69 238 line 0 20;
#X obj 126 267 change;
#X obj 167 341 bng 19 250 50 0 empty empty empty 0 -10 0 12 #fcfcfc #000000 #000000;
#X obj 252 249 line 0 20;
#X obj 309 278 change;
#X obj 309 310 sel 0;
#X obj 319 350 bng 19 250 50 0 empty empty empty 0 -10 0 12 #fcfcfc #000000 #000000;
#X obj 130 75 sel 0 1;
#X obj 219 363 spigot 0;
#X obj 316 386 spigot 0;
#X obj 221 414 spigot 0;
#X msg 68 132 0 \, 0.4 5000;
#X msg 249 173 0.4 \, 0 5000;
#X obj 126 299 sel 0.4;
#X connect 0 0 2 0;
#X connect 2 0 12 0;
#X connect 2 0 13 1;
#X connect 2 0 14 1;
#X connect 2 0 15 1;
#X connect 3 0 1 0;
#X connect 4 0 5 0;
#X connect 4 0 8 0;
#X connect 5 0 6 0;
#X connect 5 0 15 0;
#X connect 6 0 18 0;
#X connect 7 0 13 0;
#X connect 8 0 9 0;
#X connect 8 0 15 0;
#X connect 9 0 10 0;
#X connect 10 0 11 0;
#X connect 11 0 14 0;
#X connect 12 0 4 0;
#X connect 12 1 16 0;
#X connect 13 0 17 0;
#X connect 14 0 16 0;
#X connect 15 0 3 0;
#X connect 16 0 5 0;
#X connect 17 0 8 0;
#X connect 18 0 7 0;
#X restore 847 539 pd pulse4;
#X obj 413 196 expr if($f1>=0.0 && $f1 <=0.7 \, 1 \, -1);
#X obj 710 198 expr if($f1>0.7 && $f1 <=1.8 \, 2 \, -1);
#X connect 1 0 11 1;
#X connect 1 0 13 0;
#X connect 2 0 11 0;
#X connect 3 0 4 0;
#X connect 4 0 6 0;
#X connect 4 0 7 0;
#X connect 4 0 33 0;
#X connect 4 0 34 0;
#X connect 5 1 8 0;
#X connect 6 0 5 0;
#X connect 7 0 5 0;
#X connect 8 0 10 0;
#X connect 8 0 15 0;
#X connect 8 0 24 0;
#X connect 8 0 31 0;
#X connect 9 0 12 0;
#X connect 9 0 17 0;
#X connect 10 0 9 0;
#X connect 10 0 18 0;
#X connect 10 0 12 1;
#X connect 11 0 3 0;
#X connect 12 0 22 0;
#X connect 13 0 14 0;
#X connect 14 0 9 0;
#X connect 14 0 20 0;
#X connect 14 0 21 0;
#X connect 14 0 32 0;
#X connect 15 0 20 0;
#X connect 15 0 19 0;
#X connect 15 0 26 1;
#X connect 20 0 16 0;
#X connect 20 0 26 0;
#X connect 21 0 25 0;
#X connect 21 0 27 0;
#X connect 22 0 0 0;
#X connect 24 0 23 0;
#X connect 24 0 21 0;
#X connect 24 0 27 1;
#X connect 26 0 22 0;
#X connect 27 0 22 0;
#X connect 30 0 22 0;
#X connect 31 0 28 0;
#X connect 31 0 30 1;
#X connect 31 0 32 0;
#X connect 32 0 29 0;
#X connect 32 0 30 0;
#X connect 33 0 5 0;
#X connect 34 0 5 0;
