#N canvas 30 513 348 349 12;
#X obj 16 10 cnv 19 320 320 empty empty empty 20 12 0 12 #c6feff #404040 0;
#X obj 155 19 cnv 19 30 30 empty colorLed0 empty 20 12 0 12 #faf3f3 #fcfcfc 0;
#X obj 187 19 cnv 19 30 30 empty colorLed1 empty 20 12 0 12 #faf3f3 #fcfcfc 0;
#X obj 219 38 cnv 19 30 30 empty colorLed2 empty 20 12 0 12 #f6e9ba #fcfcfc 0;
#X obj 251 57 cnv 19 30 30 empty colorLed3 empty 20 12 0 12 #f6e9ba #fcfcfc 0;
#X obj 280 89 cnv 19 30 30 empty colorLed4 empty 20 12 0 12 #f3e07d #fcfcfc 0;
#X obj 291 115 cnv 19 30 30 empty colorLed5 empty 20 12 0 12 #f3e07d #fcfcfc 0;
#X obj 288 147 cnv 19 30 30 empty colorLed6 empty 20 12 0 12 #000000 #fcfcfc 0;
#X obj 288 179 cnv 19 30 30 empty colorLed7 empty 20 12 0 12 #000000 #fcfcfc 0;
#X obj 276 211 cnv 19 30 30 empty colorLed8 empty 20 12 0 12 #000000 #fcfcfc 0;
#X obj 269 245 cnv 19 30 30 empty colorLed9 empty 20 12 0 12 #000000 #fcfcfc 0;
#X obj 235 277 cnv 19 30 30 empty colorLed10 empty 20 12 0 12 #000000 #fcfcfc 0;
#X obj 202 290 cnv 19 30 30 empty colorLed11 empty 20 12 0 12 #000000 #fcfcfc 0;
#X obj 169 299 cnv 19 30 30 empty colorLed12 empty 20 12 0 12 #000000 #fcfcfc 0;
#X obj 136 299 cnv 19 30 30 empty colorLed13 empty 20 12 0 12 #000000 #fcfcfc 0;
#X obj 104 283 cnv 19 30 30 empty colorLed14 empty 20 12 0 12 #000000 #fcfcfc 0;
#X obj 80 267 cnv 19 30 30 empty colorLed15 empty 20 12 0 12 #000000 #fcfcfc 0;
#X obj 54 235 cnv 19 30 30 empty colorLed16 empty 20 12 0 12 #000000 #fcfcfc 0;
#X obj 47 203 cnv 19 30 30 empty colorLed17 empty 20 12 0 12 #000000 #fcfcfc 0;
#X obj 39 171 cnv 19 30 30 empty colorLed18 empty 20 12 0 12 #000000 #fcfcfc 0;
#X obj 39 139 cnv 19 30 30 empty colorLed19 empty 20 12 0 12 #000000 #fcfcfc 0;
#X obj 52 106 cnv 19 30 30 empty colorLed20 empty 20 12 0 12 #f3e07d #fcfcfc 0;
#X obj 60 74 cnv 19 30 30 empty colorLed21 empty 20 12 0 12 #f3e07d #fcfcfc 0;
#X obj 81 41 cnv 19 30 30 empty colorLed22 empty 20 12 0 12 #f6e9ba #fcfcfc 0;
#X obj 114 30 cnv 19 30 30 empty colorLed23 empty 20 12 0 12 #f6e9ba #fcfcfc 0;
#X obj 389 59 inlet;
#X obj 453 62 inlet;
#N canvas 527 176 1071 853 routing 0;
#X obj 41 221 s colorLed0;
#X obj 135 224 s colorLed1;
#X obj 226 226 s colorLed2;
#X obj 314 227 s colorLed3;
#X obj 398 229 s colorLed4;
#X obj 485 229 s colorLed5;
#X obj 570 230 s colorLed6;
#X obj 664 233 s colorLed7;
#X obj 753 229 s colorLed8;
#X obj 841 229 s colorLed9;
#X obj 64 344 s colorLed10;
#X obj 156 344 s colorLed11;
#X obj 248 344 s colorLed12;
#X obj 342 346 s colorLed13;
#X obj 435 348 s colorLed14;
#X obj 529 349 s colorLed15;
#X obj 623 350 s colorLed16;
#X obj 716 350 s colorLed17;
#X obj 809 351 s colorLed18;
#X obj 900 352 s colorLed19;
#X obj 485 587 s colorLed20;
#X obj 580 588 s colorLed21;
#X obj 674 590 s colorLed22;
#X obj 778 594 s colorLed23;
#X obj 61 153 route 0 1 2 3 4 5 6 7 8 9, f 59;
#X obj 492 545 route 20 21 22 23;
#X obj 60 10 inlet;
#X obj 302 37 inlet;
#X obj 97 278 route 10 11 12 13 14 15 16 17 18 19, f 59;
#X connect 24 0 0 0;
#X connect 24 1 1 0;
#X connect 24 2 2 0;
#X connect 24 3 3 0;
#X connect 24 4 4 0;
#X connect 24 5 5 0;
#X connect 24 6 6 0;
#X connect 24 7 7 0;
#X connect 24 8 8 0;
#X connect 24 9 9 0;
#X connect 24 10 28 0;
#X connect 25 0 20 0;
#X connect 25 1 21 0;
#X connect 25 2 22 0;
#X connect 25 3 23 0;
#X connect 26 0 24 0;
#X connect 27 0 0 0;
#X connect 27 0 1 0;
#X connect 27 0 2 0;
#X connect 27 0 3 0;
#X connect 27 0 4 0;
#X connect 27 0 5 0;
#X connect 27 0 6 0;
#X connect 27 0 7 0;
#X connect 27 0 8 0;
#X connect 27 0 9 0;
#X connect 27 0 10 0;
#X connect 27 0 11 0;
#X connect 27 0 12 0;
#X connect 27 0 13 0;
#X connect 27 0 14 0;
#X connect 27 0 15 0;
#X connect 27 0 16 0;
#X connect 27 0 17 0;
#X connect 27 0 18 0;
#X connect 27 0 19 0;
#X connect 27 0 20 0;
#X connect 27 0 21 0;
#X connect 27 0 22 0;
#X connect 27 0 23 0;
#X connect 28 0 10 0;
#X connect 28 1 11 0;
#X connect 28 2 12 0;
#X connect 28 3 13 0;
#X connect 28 4 14 0;
#X connect 28 5 15 0;
#X connect 28 6 16 0;
#X connect 28 7 17 0;
#X connect 28 8 18 0;
#X connect 28 9 19 0;
#X connect 28 10 25 0;
#X restore 356 315 pd routing;
#X msg 534 187 color #000000 0 0;
#X text 675 188 black out;
#N canvas 475 329 922 601 colorConv 0;
#X obj 282 314 t b f;
#X obj 168 339 t b f;
#X obj 308 346 makefilename %02x;
#X obj 228 373 makefilename %02x;
#X obj 148 410 makefilename %02x;
#X obj 148 540 outlet;
#X msg 148 469 symbol #\$1\$2\$3;
#X obj 148 440 pack symbol symbol symbol;
#X obj 80 56 inlet;
#X obj 152 66 inlet;
#X obj 228 69 inlet;
#X obj 43 408 bng 19 250 50 0 empty empty empty 0 -10 0 12 #fcfcfc #000000 #000000;
#X obj 64 116 * 100;
#X obj 57 155 / 100;
#X obj 54 204 i;
#X obj 173 131 * 100;
#X obj 166 170 / 100;
#X obj 163 219 i;
#X obj 324 140 * 100;
#X obj 317 179 / 100;
#X obj 314 228 i;
#X obj 401 73 inlet;
#X connect 0 0 7 0;
#X connect 0 1 2 0;
#X connect 1 0 7 0;
#X connect 1 1 3 0;
#X connect 2 0 7 2;
#X connect 3 0 7 1;
#X connect 4 0 7 0;
#X connect 6 0 5 0;
#X connect 7 0 6 0;
#X connect 8 0 12 0;
#X connect 9 0 15 0;
#X connect 10 0 18 0;
#X connect 11 0 7 0;
#X connect 12 0 13 0;
#X connect 13 0 14 0;
#X connect 14 0 4 0;
#X connect 15 0 16 0;
#X connect 16 0 17 0;
#X connect 17 0 1 0;
#X connect 18 0 19 0;
#X connect 19 0 20 0;
#X connect 20 0 0 0;
#X connect 21 0 12 1;
#X connect 21 0 15 1;
#X connect 21 0 18 1;
#X restore 392 147 pd colorConv;
#X obj 378 108 unpack f f f f;
#X obj 366 220 pack f s;
#X msg 362 251 \$1 color \$2 0 0;
#X obj 532 126 loadbang;
#X connect 25 0 31 0;
#X connect 26 0 28 0;
#X connect 28 0 27 1;
#X connect 30 0 32 1;
#X connect 31 0 32 0;
#X connect 31 1 30 0;
#X connect 31 2 30 1;
#X connect 31 3 30 2;
#X connect 32 0 33 0;
#X connect 33 0 27 0;
#X connect 34 0 28 0;
