#N canvas -64 -1050 1703 892 12;
#X obj 1369 53 cnv 19 320 320 empty empty empty 20 12 0 12 #c6feff #404040 0;
#X obj 1508 62 cnv 19 30 30 empty colorLed0 empty 20 12 0 12 #000000 #fcfcfc 0;
#X obj 1540 62 cnv 19 30 30 empty colorLed1 empty 20 12 0 12 #000000 #fcfcfc 0;
#X obj 1578 83 cnv 19 30 30 empty colorLed2 empty 20 12 0 12 #000000 #fcfcfc 0;
#X obj 1604 100 cnv 19 30 30 empty colorLed3 empty 20 12 0 12 #000000 #fcfcfc 0;
#X obj 1633 132 cnv 19 30 30 empty colorLed4 empty 20 12 0 12 #f3e07d #fcfcfc 0;
#X obj 1644 158 cnv 19 30 30 empty colorLed5 empty 20 12 0 12 #f3e07d #fcfcfc 0;
#X obj 1641 190 cnv 19 30 30 empty colorLed6 empty 20 12 0 12 #f6e9ba #fcfcfc 0;
#X obj 1641 221 cnv 19 30 30 empty colorLed7 empty 20 12 0 12 #f6e9ba #fcfcfc 0;
#X obj 1629 254 cnv 19 30 30 empty colorLed8 empty 20 12 0 12 #faf3f3 #fcfcfc 0;
#X obj 1622 288 cnv 19 30 30 empty colorLed9 empty 20 12 0 12 #faf3f3 #fcfcfc 0;
#X obj 1580 312 cnv 19 30 30 empty colorLed10 empty 20 12 0 12 #f6e9ba #fcfcfc 0;
#X obj 1551 325 cnv 19 30 30 empty colorLed11 empty 20 12 0 12 #f6e9ba #fcfcfc 0;
#X obj 1514 335 cnv 19 30 30 empty colorLed12 empty 20 12 0 12 #f3e07d #fcfcfc 0;
#X obj 1485 334 cnv 19 30 30 empty colorLed13 empty 20 12 0 12 #f3e07d #fcfcfc 0;
#X obj 1453 318 cnv 19 30 30 empty colorLed14 empty 20 12 0 12 #000000 #fcfcfc 0;
#X obj 1429 302 cnv 19 30 30 empty colorLed15 empty 20 12 0 12 #000000 #fcfcfc 0;
#X obj 1407 267 cnv 19 30 30 empty colorLed16 empty 20 12 0 12 #000000 #fcfcfc 0;
#X obj 1400 241 cnv 19 30 30 empty colorLed17 empty 20 12 0 12 #000000 #fcfcfc 0;
#X obj 1392 209 cnv 19 30 30 empty colorLed18 empty 20 12 0 12 #000000 #fcfcfc 0;
#X obj 1392 183 cnv 19 30 30 empty colorLed19 empty 20 12 0 12 #000000 #fcfcfc 0;
#X obj 1402 151 cnv 19 30 30 empty colorLed20 empty 20 12 0 12 #000000 #fcfcfc 0;
#X obj 1410 127 cnv 19 30 30 empty colorLed21 empty 20 12 0 12 #000000 #fcfcfc 0;
#X obj 1431 90 cnv 19 30 30 empty colorLed22 empty 20 12 0 12 #000000 #fcfcfc 0;
#X obj 1464 81 cnv 19 30 30 empty colorLed23 empty 20 12 0 12 #000000 #fcfcfc 0;
#X obj 1056 506 i 0;
#X obj 1101 491 + 1;
#X obj 1056 475 bng 19 250 50 0 empty empty empty 0 -10 0 12 #fcfcfc #000000 #000000;
#X obj 1056 552 nbx 5 17 -1e+37 1e+37 0 0 empty empty empty 0 -10 0 12 #fcfcfc #000000 #000000 0 256;
#X msg 1125 521 0;
#X obj 1056 411 tgl 19 0 empty empty empty 0 -10 0 12 #fcfcfc #000000 #000000 0 1;
#X obj 566 703 nbx 5 17 -1e+37 1e+37 0 0 empty empty empty 0 -10 0 12 #fcfcfc #000000 #000000 0 256;
#X obj 464 743 + 1;
#X obj 435 743 - 1;
#X obj 434 777 mod 12;
#X obj 592 761 mod 12;
#N canvas 474 419 922 601 colorConv 0;
#X obj 282 314 t b f;
#X obj 168 339 t b f;
#X obj 308 346 makefilename %02x;
#X obj 228 373 makefilename %02x;
#X obj 148 410 makefilename %02x;
#X obj 148 540 outlet;
#X msg 148 469 symbol #\$1\$2\$3;
#X obj 148 440 pack symbol symbol symbol;
#X obj 80 56 inlet;
#X obj 152 66 inlet;
#X obj 228 69 inlet;
#X obj 43 408 bng 19 250 50 0 empty empty empty 0 -10 0 12 #fcfcfc #000000 #000000;
#X connect 0 0 7 0;
#X connect 0 1 2 0;
#X connect 1 0 7 0;
#X connect 1 1 3 0;
#X connect 2 0 7 2;
#X connect 3 0 7 1;
#X connect 4 0 7 0;
#X connect 6 0 5 0;
#X connect 7 0 6 0;
#X connect 8 0 4 0;
#X connect 9 0 1 0;
#X connect 10 0 0 0;
#X connect 11 0 7 0;
#X restore 57 402 pd colorConv;
#X obj 135 242 vsl 15 128 0 255 0 0 empty empty empty 0 -9 0 10 #0800fc #fcfcfc #000000 0 1;
#X obj 98 238 vsl 15 128 0 255 0 0 empty empty empty 0 -9 0 10 #00fc00 #000000 #000000 0 1;
#X obj 62 242 vsl 15 128 0 255 0 0 empty empty empty 0 -9 0 10 #fc0000 #000000 #000000 0 1;
#X symbolatom 23 450 9 0 0 0 - - - 0;
#X msg 27 482 color \$1 0 0;
#X obj 127 512 nbx 5 17 -1e+37 1e+37 0 0 empty empty empty 0 -10 0 12 #fcfcfc #000000 #000000 0 256;
#X obj 26 548 list prepend 0;
#N canvas 527 176 1071 853 routing 0;
#X obj 41 221 s colorLed0;
#X obj 135 224 s colorLed1;
#X obj 226 226 s colorLed2;
#X obj 314 227 s colorLed3;
#X obj 398 229 s colorLed4;
#X obj 485 229 s colorLed5;
#X obj 570 230 s colorLed6;
#X obj 664 233 s colorLed7;
#X obj 753 229 s colorLed8;
#X obj 841 229 s colorLed9;
#X obj 64 344 s colorLed10;
#X obj 156 344 s colorLed11;
#X obj 248 344 s colorLed12;
#X obj 342 346 s colorLed13;
#X obj 435 348 s colorLed14;
#X obj 529 349 s colorLed15;
#X obj 623 350 s colorLed16;
#X obj 716 350 s colorLed17;
#X obj 809 351 s colorLed18;
#X obj 900 352 s colorLed19;
#X obj 485 587 s colorLed20;
#X obj 580 588 s colorLed21;
#X obj 674 590 s colorLed22;
#X obj 778 594 s colorLed23;
#X obj 61 153 route 0 1 2 3 4 5 6 7 8 9, f 59;
#X obj 492 545 route 20 21 22 23;
#X obj 60 10 inlet;
#X obj 302 37 inlet;
#X obj 97 278 route 10 11 12 13 14 15 16 17 18 19, f 59;
#X connect 24 0 0 0;
#X connect 24 1 1 0;
#X connect 24 2 2 0;
#X connect 24 3 3 0;
#X connect 24 4 4 0;
#X connect 24 5 5 0;
#X connect 24 6 6 0;
#X connect 24 7 7 0;
#X connect 24 8 8 0;
#X connect 24 9 9 0;
#X connect 24 10 28 0;
#X connect 25 0 20 0;
#X connect 25 1 21 0;
#X connect 25 2 22 0;
#X connect 25 3 23 0;
#X connect 26 0 24 0;
#X connect 27 0 0 0;
#X connect 27 0 1 0;
#X connect 27 0 2 0;
#X connect 27 0 3 0;
#X connect 27 0 4 0;
#X connect 27 0 5 0;
#X connect 27 0 6 0;
#X connect 27 0 7 0;
#X connect 27 0 8 0;
#X connect 27 0 9 0;
#X connect 27 0 10 0;
#X connect 27 0 11 0;
#X connect 27 0 12 0;
#X connect 27 0 13 0;
#X connect 27 0 14 0;
#X connect 27 0 15 0;
#X connect 27 0 16 0;
#X connect 27 0 17 0;
#X connect 27 0 18 0;
#X connect 27 0 19 0;
#X connect 27 0 20 0;
#X connect 27 0 21 0;
#X connect 27 0 22 0;
#X connect 27 0 23 0;
#X connect 28 0 10 0;
#X connect 28 1 11 0;
#X connect 28 2 12 0;
#X connect 28 3 13 0;
#X connect 28 4 14 0;
#X connect 28 5 15 0;
#X connect 28 6 16 0;
#X connect 28 7 17 0;
#X connect 28 8 18 0;
#X connect 28 9 19 0;
#X connect 28 10 25 0;
#X restore 99 627 pd routing;
#X msg 171 99 color #000000 0 0;
#X text 312 100 black out;
#X msg 350 314 0 127 127 127;
#N canvas 474 419 922 601 colorConv 0;
#X obj 282 314 t b f;
#X obj 168 339 t b f;
#X obj 308 346 makefilename %02x;
#X obj 228 373 makefilename %02x;
#X obj 148 410 makefilename %02x;
#X obj 148 540 outlet;
#X msg 148 469 symbol #\$1\$2\$3;
#X obj 148 440 pack symbol symbol symbol;
#X obj 80 56 inlet;
#X obj 152 66 inlet;
#X obj 228 69 inlet;
#X obj 43 408 bng 19 250 50 0 empty empty empty 0 -10 0 12 #fcfcfc #000000 #000000;
#X connect 0 0 7 0;
#X connect 0 1 2 0;
#X connect 1 0 7 0;
#X connect 1 1 3 0;
#X connect 2 0 7 2;
#X connect 3 0 7 1;
#X connect 4 0 7 0;
#X connect 6 0 5 0;
#X connect 7 0 6 0;
#X connect 8 0 4 0;
#X connect 9 0 1 0;
#X connect 10 0 0 0;
#X connect 11 0 7 0;
#X restore 354 381 pd colorConv;
#X obj 340 342 unpack f f f f;
#X symbolatom 340 432 9 0 0 0 - - - 0;
#X obj 253 380 nbx 5 17 -1e+37 1e+37 0 0 empty empty empty 0 -10 0 12 #fcfcfc #000000 #000000 0 256;
#X obj 253 454 pack f s;
#X msg 249 485 \$1 color \$2 0 0;
#X obj 1148 521 sel 24;
#X obj 1056 446 metro 500;
#X obj 1057 598 t f b;
#X obj 25 376 nbx 3 17 0 255 0 0 empty empty empty 0 -10 0 12 #fcfcfc #000000 #000000 0 256;
#X obj 74 377 nbx 3 17 0 255 0 0 empty empty empty 0 -10 0 12 #fcfcfc #000000 #000000 0 256;
#X obj 130 380 nbx 3 17 0 255 0 0 empty empty empty 0 -10 0 12 #fcfcfc #000000 #000000 0 256;
#X msg 528 244 \$1 255 255 216;
#X text 1048 373 chenillard;
#X obj 1043 759 i 0;
#X obj 1088 744 + 1;
#X obj 1043 728 bng 19 250 50 0 empty empty empty 0 -10 0 12 #fcfcfc #000000 #000000;
#X obj 1043 805 nbx 5 17 -1e+37 1e+37 0 0 empty empty empty 0 -10 0 12 #fcfcfc #000000 #000000 0 256;
#X msg 1112 774 0;
#X obj 1043 664 tgl 19 0 empty empty empty 0 -10 0 12 #fcfcfc #000000 #000000 0 1;
#X obj 1043 699 metro 500;
#X obj 1044 841 t f b;
#X obj 1135 774 sel 12;
#X obj 592 804 * 2;
#X obj 593 835 + 1;
#X obj 471 863 * 2;
#X obj 473 893 + 1;
#X text 1083 660 soleil;
#X text 565 968 couleur centrale;
#X text 404 967 couleur 1er côté;
#X obj 739 790 mod 12;
#X obj 738 753 + 2;
#X obj 748 860 * 2;
#X obj 749 891 + 1;
#X text 726 970 couleur 2eme côté;
#X obj 706 748 - 2;
#X msg 562 937 \$1 250 243 243;
#X msg 424 942 \$1 246 233 186;
#X msg 727 943 \$1 243 224 125;
#X obj 1272 541 config-query color-center;
#X obj 505 85 config;
#X obj 1465 539 config-query color-off2;
#X obj 1444 451 loadbang;
#X obj 494 60 bng 19 250 50 0 empty empty empty 0 -10 0 12 #fcfcfc #000000 #000000;
#X text 523 56 reload config;
#X obj 1272 572 set-color-msg;
#X obj 1462 572 set-color-msg;
#X obj 1639 569 set-color-msg;
#X obj 1642 536 config-query color-off1;
#X obj 1295 458 bng 19 250 50 0 empty empty empty 0 -10 0 12 #fcfcfc #000000 #000000;
#X connect 25 0 26 0;
#X connect 25 0 28 0;
#X connect 25 0 54 0;
#X connect 26 0 25 1;
#X connect 27 0 25 0;
#X connect 28 0 56 0;
#X connect 29 0 25 0;
#X connect 30 0 55 0;
#X connect 31 0 33 0;
#X connect 31 0 32 0;
#X connect 31 0 35 0;
#X connect 31 0 79 0;
#X connect 31 0 83 0;
#X connect 32 0 34 0;
#X connect 33 0 34 0;
#X connect 34 0 73 0;
#X connect 35 0 71 0;
#X connect 36 0 40 0;
#X connect 37 0 36 2;
#X connect 37 0 59 0;
#X connect 38 0 36 1;
#X connect 38 0 58 0;
#X connect 39 0 36 0;
#X connect 39 0 57 0;
#X connect 40 0 41 0;
#X connect 41 0 43 0;
#X connect 42 0 43 1;
#X connect 43 0 44 0;
#X connect 45 0 44 1;
#X connect 47 0 49 0;
#X connect 48 0 50 0;
#X connect 49 0 51 0;
#X connect 49 1 48 0;
#X connect 49 2 48 1;
#X connect 49 3 48 2;
#X connect 50 0 52 1;
#X connect 51 0 52 0;
#X connect 52 0 53 0;
#X connect 53 0 44 0;
#X connect 54 0 29 0;
#X connect 55 0 27 0;
#X connect 56 0 60 0;
#X connect 56 1 45 0;
#X connect 60 0 49 0;
#X connect 62 0 63 0;
#X connect 62 0 65 0;
#X connect 62 0 70 0;
#X connect 63 0 62 1;
#X connect 64 0 62 0;
#X connect 65 0 69 0;
#X connect 66 0 62 0;
#X connect 67 0 68 0;
#X connect 68 0 64 0;
#X connect 69 0 31 0;
#X connect 69 1 45 0;
#X connect 70 0 66 0;
#X connect 71 0 72 0;
#X connect 71 0 84 0;
#X connect 72 0 84 0;
#X connect 73 0 74 0;
#X connect 73 0 85 0;
#X connect 74 0 85 0;
#X connect 78 0 80 0;
#X connect 79 0 78 0;
#X connect 80 0 81 0;
#X connect 80 0 86 0;
#X connect 81 0 86 0;
#X connect 83 0 78 0;
#X connect 84 0 49 0;
#X connect 85 0 49 0;
#X connect 86 0 49 0;
#X connect 87 0 93 0;
#X connect 89 0 94 0;
#X connect 90 0 96 0;
#X connect 90 0 89 0;
#X connect 90 0 87 0;
#X connect 91 0 88 0;
#X connect 93 0 84 0;
#X connect 94 0 86 0;
#X connect 95 0 85 0;
#X connect 96 0 95 0;
#X connect 97 0 87 0;
#X connect 97 0 89 0;
#X connect 97 0 96 0;
