#N canvas 669 305 936 420 12;
#X obj 55 255 synth-controller;
#X obj 68 337 droidparty_main;
#X obj 22 29 inlet;
#X obj 64 71 route /clock;
#X msg 53 228 load \$1;
#X obj 62 136 unpack f f;
#X obj 64 171 mod 12;
#X obj 384 47 inlet;
#X obj 399 163 s vibrato_left_freq_knob;
#X obj 526 127 nbx 5 17 -1e+37 1e+37 0 0 empty empty empty 0 -10 0 12 #fcfcfc #000000 #000000 0 256;
#X obj 578 164 s vibrato_left_amount_knob;
#X obj 734 142 nbx 5 17 -1e+37 1e+37 0 0 empty empty empty 0 -10 0 12 #fcfcfc #000000 #000000 0 256;
#X obj 525 98 * 10;
#X obj 731 113 * 2;
#X connect 2 0 3 0;
#X connect 3 0 5 0;
#X connect 4 0 0 0;
#X connect 5 0 6 0;
#X connect 6 0 4 0;
#X connect 7 0 12 0;
#X connect 7 0 13 0;
#X connect 12 0 9 0;
#X connect 12 0 8 0;
#X connect 13 0 10 0;
#X connect 13 0 11 0;
