#N canvas 386 333 1255 600 12;
#X obj 63 247 synth-controller;
#X obj 68 337 droidparty_main;
#X msg 63 220 load \$1;
#X obj 62 136 unpack f f;
#X obj 64 171 mod 12;
#X obj 539 464 nbx 5 17 -1e+37 1e+37 0 0 empty empty empty 0 -10 0 12 #fcfcfc #000000 #000000 0 256;
#X obj 500 15 inlet;
#X obj 548 172 nbx 5 17 -1e+37 1e+37 0 0 empty empty luminosity 0 -10 0 12 #fcfcfc #000000 #000000 0 256;
#X obj 630 172 nbx 5 17 -1e+37 1e+37 0 0 empty empty speed\ 0 0 -10 0 12 #fcfcfc #000000 #000000 0 256;
#X obj 629 285 line 0;
#X msg 629 257 \$1 1000;
#X obj 629 313 min 1;
#X text 185 246 sous-patch de presets;
#X text 186 336 ui synth;
#X obj 630 125 route 0;
#X obj 506 69 route /clock /luminosity /sensor;
#X obj 530 491 s yellow-vsl;
#X obj 530 435 * 100;
#X obj 53 484 s vibrato_left_amount_knob;
#X obj 249 485 s vibrato_right_amount_knob;
#X obj 249 461 -;
#X msg 249 436 10 \$1;
#X obj 249 408 * 10;
#X obj 629 229 / 2;
#X connect 2 0 0 0;
#X connect 3 0 4 0;
#X connect 4 0 2 0;
#X connect 6 0 15 0;
#X connect 7 0 22 0;
#X connect 8 0 23 0;
#X connect 9 0 11 0;
#X connect 10 0 9 0;
#X connect 11 0 17 0;
#X connect 14 0 8 0;
#X connect 15 0 3 0;
#X connect 15 1 7 0;
#X connect 15 2 14 0;
#X connect 17 0 5 0;
#X connect 17 0 16 0;
#X connect 20 0 19 0;
#X connect 21 0 20 0;
#X connect 22 0 21 0;
#X connect 22 0 18 0;
#X connect 23 0 10 0;
