#N canvas 0 175 1800 913 12;
#X obj -507 857 text set \$0-pattr;
#X obj -214 -38 inlet;
#X obj -634 408 r Main_Frequency_knob;
#X obj -466 408 r Beat_Frequency_knob;
#X obj -586 474 f;
#X obj -634 442 route bang;
#X obj -418 474 f;
#X obj -466 442 route bang;
#X obj -253 474 f;
#X obj -303 442 route bang;
#X obj -303 408 r noise_brown_volume_slider;
#X obj 1080 758 list;
#X obj -508 291 t b f;
#X obj 628 256 outlet;
#X text -479 236 SAVE;
#X obj 160 80 loadbang;
#X obj 157 121 f \$1;
#X obj 402 138 route 0;
#X obj 233 81 bng 19 250 50 0 empty empty empty 0 -10 0 12 #fcfcfc #000000 #000000;
#X obj 367 7 symbol \$2;
#X msg 367 46 read \$1;
#X obj 362 89 text define \$0-pattr;
#X msg 286 63 click;
#X obj -146 -29 route save load show save_file;
#X obj 46 215 symbol \$2;
#X msg 55 263 write \$1;
#X obj -86 408 r sine_volume_slider;
#X obj -86 442 route bang;
#X obj -37 474 f;
#X obj 71 408 r sine_subbass_volume_knob;
#X obj 71 442 route bang;
#X obj 117 474 f;
#N canvas 0 391 1800 687 out-msgs 0;
#X obj 149 51 inlet;
#X obj 435 27 inlet;
#X obj 723 184 outlet;
#X obj 445 229 text get \$0-pattr;
#X text 433 124 LOAD;
#X obj 13 604 s yellow-vsl;
#X msg 13 550 \$1 1000;
#X obj 135 604 s green-vsl;
#X msg 135 550 \$1 1000;
#X obj 13 577 line;
#X obj 135 577 line;
#X obj 239 604 s noise_brown_volume_knob;
#X msg 239 550 \$1 1000;
#X obj 239 577 line;
#X obj 565 261 select 2;
#X obj 563 315 print pattr: out of range preset;
#X obj 596 146 i;
#X obj 644 87 bng 19 250 50 0 empty empty empty 0 -10 0 12 #fcfcfc #000000 #000000;
#X obj 543 96 t f f;
#N canvas 600 -517 450 300 set-msg 0;
#X obj 76 47 inlet;
#X obj 71 239 outlet;
#X msg 111 161 adddollar 1;
#X msg 218 165 set;
#X msg 50 148 add2 \$1;
#X obj 85 113 t f b b;
#X connect 0 0 5 0;
#X connect 2 0 1 0;
#X connect 3 0 1 0;
#X connect 4 0 1 0;
#X connect 5 0 4 0;
#X connect 5 1 2 0;
#X connect 5 2 3 0;
#X restore 205 166 pd set-msg;
#X obj 426 604 s sine_volume_knob;
#X msg 426 550 \$1 1000;
#X obj 426 577 line;
#X obj 569 604 s sine_subbass_volume_knob;
#X msg 569 550 \$1 1000;
#X obj 569 577 line;
#X obj 767 604 s master_volume-vsl;
#X msg 767 550 \$1 1000;
#X obj 767 577 line;
#X msg 916 550 \$1 1000;
#X obj 916 577 line;
#X obj 916 604 s FM_volume_knob;
#X msg 1053 550 \$1 1000;
#X obj 1053 577 line;
#X obj 1053 604 s phase_cutoff_knob;
#X msg 1206 550 \$1 1000;
#X obj 1206 577 line;
#X obj 1206 604 s phase_resonance_knob;
#X msg 1377 553 \$1 1000;
#X obj 1377 580 line;
#X obj 1377 607 s noise_cutoff_knob;
#X msg 1527 553 \$1 1000;
#X obj 1527 580 line;
#X obj 1527 607 s noise_volume_knob;
#X msg 1670 554 \$1 1000;
#X obj 1670 581 line;
#X obj 1670 608 s noise_resonance_knob;
#X msg 1844 553 \$1 1000;
#X obj 1844 580 line;
#X obj 1844 607 s noise_panning_knob;
#X msg 2006 554 \$1 1000;
#X obj 2006 581 line;
#X obj 2006 608 s vibrato_left_freq_knob;
#X msg 2183 553 \$1 1000;
#X obj 2183 580 line;
#X obj 2183 607 s vibrato_left_amount_knob;
#X msg 2388 554 \$1 1000;
#X obj 2388 581 line;
#X obj 2388 608 s vibrato_right_freq_knob;
#X obj 1503 407 unpack f f f f f f f f f f f f f f f f f;
#X msg 2584 562 \$1 1000;
#X obj 2584 589 line;
#X obj 2584 616 s vibrato_right_amount_knob;
#X connect 0 0 19 0;
#X connect 1 0 18 0;
#X connect 3 0 59 0;
#X connect 3 1 14 0;
#X connect 6 0 9 0;
#X connect 8 0 10 0;
#X connect 9 0 5 0;
#X connect 10 0 7 0;
#X connect 12 0 13 0;
#X connect 12 0 11 0;
#X connect 13 0 11 0;
#X connect 14 0 15 0;
#X connect 14 1 17 0;
#X connect 16 0 2 0;
#X connect 17 0 16 0;
#X connect 18 0 3 0;
#X connect 18 1 16 1;
#X connect 19 0 6 0;
#X connect 19 0 8 0;
#X connect 19 0 12 0;
#X connect 19 0 21 0;
#X connect 19 0 24 0;
#X connect 19 0 27 0;
#X connect 19 0 29 0;
#X connect 19 0 32 0;
#X connect 19 0 35 0;
#X connect 19 0 38 0;
#X connect 19 0 41 0;
#X connect 19 0 44 0;
#X connect 19 0 47 0;
#X connect 19 0 50 0;
#X connect 19 0 53 0;
#X connect 19 0 56 0;
#X connect 19 0 60 0;
#X connect 21 0 22 0;
#X connect 22 0 20 0;
#X connect 24 0 25 0;
#X connect 25 0 23 0;
#X connect 27 0 28 0;
#X connect 28 0 26 0;
#X connect 29 0 30 0;
#X connect 30 0 31 0;
#X connect 32 0 33 0;
#X connect 33 0 34 0;
#X connect 35 0 36 0;
#X connect 36 0 37 0;
#X connect 38 0 39 0;
#X connect 39 0 40 0;
#X connect 41 0 42 0;
#X connect 42 0 43 0;
#X connect 44 0 45 0;
#X connect 45 0 46 0;
#X connect 47 0 48 0;
#X connect 48 0 49 0;
#X connect 50 0 51 0;
#X connect 51 0 52 0;
#X connect 53 0 54 0;
#X connect 54 0 55 0;
#X connect 56 0 57 0;
#X connect 57 0 58 0;
#X connect 59 0 6 0;
#X connect 59 1 8 0;
#X connect 59 2 12 0;
#X connect 59 3 21 0;
#X connect 59 4 24 0;
#X connect 59 5 27 0;
#X connect 59 6 29 0;
#X connect 59 7 32 0;
#X connect 59 8 35 0;
#X connect 59 9 38 0;
#X connect 59 10 41 0;
#X connect 59 11 44 0;
#X connect 59 12 47 0;
#X connect 59 13 50 0;
#X connect 59 14 53 0;
#X connect 59 15 56 0;
#X connect 59 16 60 0;
#X connect 60 0 61 0;
#X connect 61 0 62 0;
#X restore 625 195 pd out-msgs;
#X obj 271 408 r master_volume_knob;
#X obj 271 442 route bang;
#X obj 320 474 f;
#X obj 432 442 route bang;
#X obj 482 474 f;
#X obj 432 408 r FM_volume_knob;
#X obj -416 752 t b l;
#X obj -364 805 bng 19 250 50 0 empty empty empty 0 -10 0 12 #fcfcfc #000000 #000000;
#X obj 584 442 route bang;
#X obj 636 474 f;
#X obj 584 408 r phase_cutoff_knob;
#X obj 757 442 route bang;
#X obj 804 474 f;
#X obj 757 408 r phase_resonance_knob;
#X obj 939 409 r noise_cutoff_knob;
#X obj 938 444 route bang;
#X obj 985 476 f;
#X obj 1086 444 route bang;
#X obj 1133 476 f;
#X obj 1087 409 r noise_volume_slider;
#X obj 1256 444 route bang;
#X obj 1303 476 f;
#X obj 1257 409 r noise_resonance_knob;
#X obj 1426 444 route bang;
#X obj 1473 476 f;
#X obj 1427 409 r noise_panning_knob;
#X obj 1591 443 route bang;
#X obj 1638 475 f;
#X obj 1592 408 r vibrato_left_freq;
#X obj 1741 445 route bang;
#X obj 1788 477 f;
#X obj 1742 410 r vibrato_left_amount;
#X obj 1891 444 route bang;
#X obj 1938 476 f;
#X obj 1892 409 r vibrato_right_freq;
#X obj 1033 152 t b b b b b b b b b b b b b b b b b;
#X obj 1082 720 pack f f f f f f f f f f f f f f f f f;
#X obj 2050 446 route bang;
#X obj 2097 478 f;
#X obj 2051 411 r vibrato_right_amount;
#X connect 1 0 23 0;
#X connect 2 0 5 0;
#X connect 3 0 7 0;
#X connect 4 0 69 0;
#X connect 5 1 4 1;
#X connect 6 0 69 1;
#X connect 7 1 6 1;
#X connect 8 0 69 2;
#X connect 9 1 8 1;
#X connect 10 0 9 0;
#X connect 11 0 39 0;
#X connect 12 0 68 0;
#X connect 12 1 0 1;
#X connect 15 0 16 0;
#X connect 15 0 19 0;
#X connect 16 0 17 0;
#X connect 17 1 32 0;
#X connect 18 0 16 0;
#X connect 19 0 20 0;
#X connect 19 0 24 1;
#X connect 20 0 21 0;
#X connect 22 0 21 0;
#X connect 23 0 12 0;
#X connect 23 1 32 1;
#X connect 23 2 22 0;
#X connect 23 3 24 0;
#X connect 24 0 25 0;
#X connect 25 0 21 0;
#X connect 26 0 27 0;
#X connect 27 1 28 1;
#X connect 28 0 69 3;
#X connect 29 0 30 0;
#X connect 30 1 31 1;
#X connect 31 0 69 4;
#X connect 32 0 13 0;
#X connect 33 0 34 0;
#X connect 34 1 35 1;
#X connect 35 0 69 5;
#X connect 36 1 37 1;
#X connect 37 0 69 6;
#X connect 38 0 36 0;
#X connect 39 0 40 0;
#X connect 39 1 0 0;
#X connect 40 0 24 0;
#X connect 41 1 42 1;
#X connect 42 0 69 7;
#X connect 43 0 41 0;
#X connect 44 1 45 1;
#X connect 45 0 69 8;
#X connect 46 0 44 0;
#X connect 47 0 48 0;
#X connect 48 1 49 1;
#X connect 49 0 69 9;
#X connect 50 1 51 1;
#X connect 51 0 69 10;
#X connect 52 0 50 0;
#X connect 53 1 54 1;
#X connect 54 0 69 11;
#X connect 55 0 53 0;
#X connect 56 1 57 1;
#X connect 57 0 69 12;
#X connect 58 0 56 0;
#X connect 59 1 60 1;
#X connect 60 0 69 13;
#X connect 61 0 59 0;
#X connect 62 1 63 1;
#X connect 63 0 69 14;
#X connect 64 0 62 0;
#X connect 65 1 66 1;
#X connect 66 0 69 15;
#X connect 67 0 65 0;
#X connect 68 0 4 0;
#X connect 68 1 6 0;
#X connect 68 2 8 0;
#X connect 68 3 28 0;
#X connect 68 4 31 0;
#X connect 68 5 35 0;
#X connect 68 6 37 0;
#X connect 68 7 42 0;
#X connect 68 8 45 0;
#X connect 68 9 49 0;
#X connect 68 10 51 0;
#X connect 68 11 54 0;
#X connect 68 12 57 0;
#X connect 68 13 60 0;
#X connect 68 14 63 0;
#X connect 68 15 66 0;
#X connect 68 16 71 0;
#X connect 69 0 11 0;
#X connect 70 1 71 1;
#X connect 71 0 69 16;
#X connect 72 0 70 0;
