#N canvas 214 189 682 839 12;
#X msg 85 90 save 0;
#X msg 85 121 save 1;
#X obj 69 564 nbx 5 17 -1e+37 1e+37 0 0 empty empty empty 0 -10 0 12 #fcfcfc #000000 #000000 0 256;
#X msg 330 128 load 0;
#X msg 330 158 load 1;
#X msg 85 152 save 2;
#X msg 330 188 load 2;
#X msg 330 218 load 3;
#X obj 329 92 loadbang;
#X msg 207 79 show;
#X msg 206 111 save_file;
#X msg 85 183 save 3;
#X text 393 127 LucidDreaming;
#X text 393 157 Sleep;
#X text 393 187 LucidDreamingAlt;
#X text 393 217 AstralProjection;
#X msg 85 214 save 4;
#X msg 330 248 load 4;
#X text 394 247 Energy;
#X msg 85 245 save 5;
#X msg 330 278 load 5;
#X text 395 277 Throat;
#X msg 330 307 load 6;
#X text 395 306 Delta Waves;
#X text 396 336 Theta Waves;
#X msg 331 337 load 7;
#X text 393 367 Alpha Waves;
#X msg 328 368 load 8;
#X text 393 400 Beta Waves;
#X msg 328 401 load 9;
#X text 393 434 Gamma Waves;
#X msg 86 275 save 6;
#X msg 85 307 save 7;
#X msg 85 338 save 8;
#X msg 85 369 save 9;
#X msg 328 435 load 10;
#X msg 85 400 save 10;
#X msg 81 424 save 11;
#X msg 81 455 save 12;
#X msg 328 475 load 11;
#X msg 328 509 load 12;
#X text 393 474 custom1;
#X text 393 508 custom2;
#X obj 120 28 inlet;
#X obj 70 508 pattr 3000 preset.txt;
#X connect 0 0 44 0;
#X connect 1 0 44 0;
#X connect 3 0 44 0;
#X connect 4 0 44 0;
#X connect 5 0 44 0;
#X connect 6 0 44 0;
#X connect 7 0 44 0;
#X connect 8 0 3 0;
#X connect 9 0 44 0;
#X connect 10 0 44 0;
#X connect 11 0 44 0;
#X connect 16 0 44 0;
#X connect 17 0 44 0;
#X connect 19 0 44 0;
#X connect 20 0 44 0;
#X connect 22 0 44 0;
#X connect 25 0 44 0;
#X connect 27 0 44 0;
#X connect 29 0 44 0;
#X connect 31 0 44 0;
#X connect 32 0 44 0;
#X connect 33 0 44 0;
#X connect 34 0 44 0;
#X connect 35 0 44 0;
#X connect 36 0 44 0;
#X connect 37 0 44 0;
#X connect 38 0 44 0;
#X connect 39 0 44 0;
#X connect 40 0 44 0;
#X connect 43 0 44 0;
#X connect 44 0 2 0;
