#N canvas 897 156 808 874 12;
#X msg 206 120 save 0;
#X msg 206 151 save 1;
#X obj 69 564 nbx 5 17 -1e+37 1e+37 0 0 empty empty empty 0 -10 0 12 #fcfcfc #000000 #000000 0 256;
#X msg 303 110 load 0;
#X msg 303 140 load 1;
#X msg 206 182 save 2;
#X msg 303 170 load 2;
#X msg 303 200 load 3;
#X obj 329 57 loadbang;
#X msg 206 8 show;
#X msg 205 40 save_file;
#X msg 206 213 save 3;
#X text 366 139 Sleep;
#X text 360 349 AstralProjection;
#X msg 206 244 save 4;
#X msg 303 230 load 4;
#X msg 206 275 save 5;
#X msg 303 260 load 5;
#X msg 303 289 load 6;
#X msg 304 319 load 7;
#X msg 301 350 load 8;
#X text 371 322 Beta Waves;
#X msg 301 383 load 9;
#X text 375 428 Gamma Waves;
#X msg 207 305 save 6;
#X msg 206 337 save 7;
#X msg 206 368 save 8;
#X msg 206 399 save 9;
#X msg 301 417 load 10;
#X msg 206 430 save 10;
#X msg 202 454 save 11;
#X msg 301 457 load 11;
#X obj 120 28 inlet;
#X obj 70 508 pattr 3000 preset.txt;
#X msg 17 483 save 13;
#X text 75 705 0 delta;
#X text 82 727 0 sleep;
#X text 366 109 Delta;
#X text 655 186 LucidDreamingAlt;
#X text 366 169 LucidDreaming;
#X text 654 256 Delta Alt;
#X text 368 459 Energy;
#X text 367 201 sleep alt;
#X text 368 231 Theta;
#X text 365 262 Alpha Waves;
#X text 365 289 Alpha Waves ALT \;;
#X text 366 387 Beta Waves ALT;
#X connect 0 0 33 0;
#X connect 1 0 33 0;
#X connect 3 0 33 0;
#X connect 4 0 33 0;
#X connect 5 0 33 0;
#X connect 6 0 33 0;
#X connect 7 0 33 0;
#X connect 8 0 3 0;
#X connect 9 0 33 0;
#X connect 10 0 33 0;
#X connect 11 0 33 0;
#X connect 14 0 33 0;
#X connect 15 0 33 0;
#X connect 16 0 33 0;
#X connect 17 0 33 0;
#X connect 18 0 33 0;
#X connect 19 0 33 0;
#X connect 20 0 33 0;
#X connect 22 0 33 0;
#X connect 24 0 33 0;
#X connect 25 0 33 0;
#X connect 26 0 33 0;
#X connect 27 0 33 0;
#X connect 28 0 33 0;
#X connect 29 0 33 0;
#X connect 30 0 33 0;
#X connect 31 0 33 0;
#X connect 32 0 33 0;
#X connect 33 0 2 0;
#X connect 34 0 33 0;
