#N canvas 1134 213 645 857 12;
#X obj 122 327 spigot 1;
#X obj 269 330 spigot 0;
#X obj 82 242 nbx 5 17 -1e+37 1e+37 0 0 empty empty empty 0 -10 0 12 #fcfcfc #000000 #000000 0 256;
#X obj 111 382 nbx 5 17 -1e+37 1e+37 0 0 empty empty empty 0 -10 0 12 #fcfcfc #000000 #000000 0 256;
#X obj 294 406 nbx 5 17 -1e+37 1e+37 0 0 empty empty empty 0 -10 0 12 #fcfcfc #000000 #000000 0 256;
#X obj 265 41 vradio 19 1 0 3 empty empty empty 0 -10 0 12 #fcfcfc #000000 #000000 0;
#X obj 214 155 == 0;
#X obj 225 259 == 1;
#X obj 432 337 spigot 0;
#X obj 422 439 nbx 5 17 -1e+37 1e+37 0 0 empty empty empty 0 -10 0 12 #fcfcfc #000000 #000000 0 256;
#X obj 388 266 == 2;
#X obj 89 511 i 0;
#X obj 124 512 + 1;
#X msg 133 471 0;
#X obj 84 587 nbx 5 17 -1e+37 1e+37 0 0 empty empty empty 0 -10 0 12 #fcfcfc #000000 #000000 0 256;
#X obj 84 424 > 0.3;
#X msg 86 187 1;
#X obj 92 470 sel 1;
#X obj 121 622 >= 3;
#X obj 116 725 print is running;
#X obj 136 659 sel 1;
#X msg 240 10 1;
#X msg 55 35 reset;
#X obj 60 70 bng 19 250 50 0 empty empty empty 0 -10 0 12 #fcfcfc #000000 #000000;
#X msg 186 11 0;
#X msg 104 141 1.3;
#X obj 259 639 print is sup;
#X obj 258 503 sel 1;
#X msg 135 151 1.2;
#X msg 299 11 2;
#X obj 447 574 i 0;
#X obj 482 575 + 1;
#X msg 491 534 0;
#X obj 442 650 nbx 5 17 -1e+37 1e+37 0 0 empty empty empty 0 -10 0 12 #fcfcfc #000000 #000000 0 256;
#X obj 450 533 sel 1;
#X obj 479 685 >= 3;
#X obj 494 722 sel 1;
#X obj 330 737 print is slowing;
#X msg 143 208 0.9;
#X obj 23 162 inlet;
#X obj 190 779 outlet;
#X obj 173 824 print;
#X obj 442 487 < 0.8;
#X obj 254 472 >= 1.5;
#X obj 312 476 == 0;
#X obj 324 521 sel 1;
#X connect 0 0 3 0;
#X connect 1 0 4 0;
#X connect 2 0 0 0;
#X connect 2 0 1 0;
#X connect 2 0 8 0;
#X connect 3 0 15 0;
#X connect 4 0 43 0;
#X connect 4 0 44 0;
#X connect 5 0 6 0;
#X connect 5 0 7 0;
#X connect 5 0 10 0;
#X connect 5 0 40 0;
#X connect 6 0 0 1;
#X connect 7 0 1 1;
#X connect 8 0 9 0;
#X connect 9 0 42 0;
#X connect 10 0 8 1;
#X connect 11 0 12 0;
#X connect 11 0 14 0;
#X connect 12 0 11 1;
#X connect 13 0 11 1;
#X connect 14 0 18 0;
#X connect 15 0 17 0;
#X connect 16 0 2 0;
#X connect 17 0 11 0;
#X connect 18 0 20 0;
#X connect 20 0 19 0;
#X connect 20 0 21 0;
#X connect 20 0 13 0;
#X connect 21 0 5 0;
#X connect 22 0 23 0;
#X connect 22 0 24 0;
#X connect 22 0 32 0;
#X connect 23 0 13 0;
#X connect 24 0 5 0;
#X connect 25 0 2 0;
#X connect 27 0 26 0;
#X connect 27 0 29 0;
#X connect 28 0 2 0;
#X connect 29 0 5 0;
#X connect 30 0 31 0;
#X connect 30 0 33 0;
#X connect 31 0 30 1;
#X connect 32 0 30 1;
#X connect 33 0 35 0;
#X connect 34 0 30 0;
#X connect 35 0 36 0;
#X connect 36 0 32 0;
#X connect 36 0 37 0;
#X connect 36 0 21 0;
#X connect 38 0 2 0;
#X connect 39 0 2 0;
#X connect 42 0 34 0;
#X connect 43 0 27 0;
#X connect 44 0 45 0;
#X connect 45 0 22 0;
