#N canvas 295 365 1304 628 12;
#N canvas 250 118 450 300 init 1;
#X obj 377 99 config config-dev.txt;
#X obj 244 -17 loadbang;
#X obj 244 83 params-store;
#X obj 244 8 t b b b;
#X obj 140 99 s init2-bang;
#X obj 244 33 bng 19 250 50 0 empty empty empty 0 -10 0 12 #fcfcfc #000000 #000000;
#X obj 244 108 s reload-config;
#X obj 244 58 t b b;
#X connect 1 0 3 0;
#X connect 3 0 4 0;
#X connect 3 1 5 0;
#X connect 3 2 0 0;
#X connect 5 0 7 0;
#X connect 7 0 6 0;
#X connect 7 0 2 0;
#X connect 7 1 0 0;
#X restore 123 18 pd init;
#X obj 435 553 display;
#N canvas 0 39 1800 1050 pulses 0;
#X obj 2707 912 outlet;
#X obj 1276 453 sun-grad;
#X msg 1359 394 update;
#X obj 725 729 color-lerp2;
#X msg 725 754 pix1 0 \$1 \$2 \$3;
#X obj 847 729 color-lerp2;
#X msg 847 754 pix1 1 \$1 \$2 \$3;
#X obj 975 729 color-lerp2;
#X msg 975 754 pix1 2 \$1 \$2 \$3;
#X obj 1100 729 color-lerp2;
#X msg 1100 754 pix1 3 \$1 \$2 \$3;
#X obj 1222 729 color-lerp2;
#X msg 1222 754 pix1 4 \$1 \$2 \$3;
#X obj 2507 404 route 0 1 2 3 4 5 6 7 8 9 10 11 12 13 14 15 16 17 18 19 20 21 22 23, f 100;
#X obj 1339 729 color-lerp2;
#X msg 1339 754 pix1 5 \$1 \$2 \$3;
#X obj 1461 729 color-lerp2;
#X msg 1461 754 pix1 6 \$1 \$2 \$3;
#X obj 1589 729 color-lerp2;
#X msg 1589 754 pix1 7 \$1 \$2 \$3;
#X obj 1712 729 color-lerp2;
#X msg 1712 754 pix1 8 \$1 \$2 \$3;
#X obj 1833 729 color-lerp2;
#X msg 1833 754 pix1 9 \$1 \$2 \$3;
#X obj 1964 730 color-lerp2;
#X obj 2086 730 color-lerp2;
#X obj 2214 730 color-lerp2;
#X obj 2339 730 color-lerp2;
#X obj 2461 730 color-lerp2;
#X obj 2578 730 color-lerp2;
#X obj 2700 730 color-lerp2;
#X obj 2828 730 color-lerp2;
#X obj 2951 730 color-lerp2;
#X obj 3072 730 color-lerp2;
#X msg 1964 755 pix1 10 \$1 \$2 \$3;
#X msg 2086 755 pix1 11 \$1 \$2 \$3;
#X msg 2214 755 pix1 12 \$1 \$2 \$3;
#X msg 2339 755 pix1 13 \$1 \$2 \$3;
#X msg 2461 755 pix1 14 \$1 \$2 \$3;
#X msg 2578 755 pix1 15 \$1 \$2 \$3;
#X msg 2700 755 pix1 16 \$1 \$2 \$3;
#X msg 2828 755 pix1 17 \$1 \$2 \$3;
#X msg 2951 755 pix1 18 \$1 \$2 \$3;
#X msg 3072 755 pix1 19 \$1 \$2 \$3;
#X obj 3201 737 color-lerp2;
#X obj 3329 737 color-lerp2;
#X obj 3452 737 color-lerp2;
#X obj 3573 737 color-lerp2;
#X msg 3201 762 pix1 20 \$1 \$2 \$3;
#X msg 3329 762 pix1 21 \$1 \$2 \$3;
#X msg 3452 762 pix1 22 \$1 \$2 \$3;
#X msg 3573 762 pix1 23 \$1 \$2 \$3;
#X obj 200 476 t b f b;
#X msg 232 581 clear2;
#X msg 1805 480 0 0 0;
#X obj 1309 314 t l b;
#X obj 217 332 inlet;
#X obj 948 100 inlet;
#X connect 1 0 13 0;
#X connect 2 0 0 0;
#X connect 3 0 4 0;
#X connect 4 0 0 0;
#X connect 5 0 6 0;
#X connect 6 0 0 0;
#X connect 7 0 8 0;
#X connect 8 0 0 0;
#X connect 9 0 10 0;
#X connect 10 0 0 0;
#X connect 11 0 12 0;
#X connect 12 0 0 0;
#X connect 13 0 3 1;
#X connect 13 1 5 1;
#X connect 13 2 7 1;
#X connect 13 3 9 1;
#X connect 13 4 11 1;
#X connect 13 5 14 1;
#X connect 13 6 16 1;
#X connect 13 7 18 1;
#X connect 13 8 20 1;
#X connect 13 9 22 1;
#X connect 13 10 24 1;
#X connect 13 11 25 1;
#X connect 13 12 26 1;
#X connect 13 13 27 1;
#X connect 13 14 28 1;
#X connect 13 15 29 1;
#X connect 13 16 30 1;
#X connect 13 17 31 1;
#X connect 13 18 32 1;
#X connect 13 19 33 1;
#X connect 13 20 44 1;
#X connect 13 21 45 1;
#X connect 13 22 46 1;
#X connect 13 23 47 1;
#X connect 14 0 15 0;
#X connect 15 0 0 0;
#X connect 16 0 17 0;
#X connect 17 0 0 0;
#X connect 18 0 19 0;
#X connect 19 0 0 0;
#X connect 20 0 21 0;
#X connect 21 0 0 0;
#X connect 22 0 23 0;
#X connect 23 0 0 0;
#X connect 24 0 34 0;
#X connect 25 0 35 0;
#X connect 26 0 36 0;
#X connect 27 0 37 0;
#X connect 28 0 38 0;
#X connect 29 0 39 0;
#X connect 30 0 40 0;
#X connect 31 0 41 0;
#X connect 32 0 42 0;
#X connect 33 0 43 0;
#X connect 34 0 0 0;
#X connect 35 0 0 0;
#X connect 36 0 0 0;
#X connect 37 0 0 0;
#X connect 38 0 0 0;
#X connect 39 0 0 0;
#X connect 40 0 0 0;
#X connect 41 0 0 0;
#X connect 42 0 0 0;
#X connect 43 0 0 0;
#X connect 44 0 48 0;
#X connect 45 0 49 0;
#X connect 46 0 50 0;
#X connect 47 0 51 0;
#X connect 48 0 0 0;
#X connect 49 0 0 0;
#X connect 50 0 0 0;
#X connect 51 0 0 0;
#X connect 52 0 2 0;
#X connect 52 1 3 0;
#X connect 52 1 5 0;
#X connect 52 1 7 0;
#X connect 52 1 9 0;
#X connect 52 1 11 0;
#X connect 52 1 14 0;
#X connect 52 1 16 0;
#X connect 52 1 18 0;
#X connect 52 1 20 0;
#X connect 52 1 22 0;
#X connect 52 1 24 0;
#X connect 52 1 25 0;
#X connect 52 1 26 0;
#X connect 52 1 27 0;
#X connect 52 1 28 0;
#X connect 52 1 29 0;
#X connect 52 1 30 0;
#X connect 52 1 31 0;
#X connect 52 1 32 0;
#X connect 52 1 33 0;
#X connect 52 1 44 0;
#X connect 52 1 45 0;
#X connect 52 1 46 0;
#X connect 52 1 47 0;
#X connect 52 2 53 0;
#X connect 54 0 3 1;
#X connect 54 0 5 1;
#X connect 54 0 7 1;
#X connect 54 0 9 1;
#X connect 54 0 11 1;
#X connect 54 0 14 1;
#X connect 54 0 16 1;
#X connect 54 0 18 1;
#X connect 54 0 20 1;
#X connect 54 0 22 1;
#X connect 54 0 24 1;
#X connect 54 0 25 1;
#X connect 54 0 26 1;
#X connect 54 0 27 1;
#X connect 54 0 28 1;
#X connect 54 0 29 1;
#X connect 54 0 30 1;
#X connect 54 0 31 1;
#X connect 54 0 32 1;
#X connect 54 0 33 1;
#X connect 54 0 44 1;
#X connect 54 0 45 1;
#X connect 54 0 46 1;
#X connect 54 0 47 1;
#X connect 55 0 1 0;
#X connect 55 1 54 0;
#X connect 56 0 52 0;
#X connect 57 0 55 0;
#X restore 24 333 pd pulses;
#X obj 63 376 loadbang;
#X obj 26 454 spigot 1;
#X obj 68 417 tgl 19 0 empty empty empty 0 -10 0 12 #fcfcfc #000000 #000000 0 1;
#X msg 18 162 \$1 1000;
#X obj 16 194 line 0 100;
#X obj 15 275 nbx 5 17 -1e+37 1e+37 0 0 empty empty empty 0 -10 0 12 #fcfcfc #000000 #000000 0 256;
#X obj 15 222 min 1;
#X obj 15 247 max 0;
#X obj 19 99 metro 2000;
#X obj 19 131 tgl 19 0 empty empty empty 0 -10 0 12 #fcfcfc #000000 #000000 0 1;
#X obj 19 74 tgl 19 0 empty empty empty 0 -10 0 12 #fcfcfc #000000 #000000 0 1;
#X obj 20 38 loadbang;
#N canvas 63 102 450 300 debug 0;
#N canvas 63 102 913 663 test-chenillard 0;
#X obj 119 181 i 0;
#X obj 200 184 + 1;
#X obj 99 121 bng 19 250 50 0 empty empty empty 0 -10 0 12 #fcfcfc #000000 #000000;
#X msg 139 142 0;
#X obj 129 290 nbx 5 17 -1e+37 1e+37 0 0 empty empty empty 0 -10 0 12 #fcfcfc #000000 #000000 0 256;
#X obj 90 227 sel 24;
#X obj 179 345 t b f b;
#X msg 399 404 clear1;
#X msg 129 395 update;
#X obj 97 91 metro 1000;
#X msg 186 426 pix1 \$1 200 200 200;
#X obj 233 597 outlet;
#X obj 142 27 inlet;
#X obj 278 523 spigot 0;
#X connect 0 0 1 0;
#X connect 0 0 4 0;
#X connect 0 0 5 0;
#X connect 1 0 0 1;
#X connect 2 0 0 0;
#X connect 3 0 0 0;
#X connect 4 0 6 0;
#X connect 5 0 3 0;
#X connect 6 0 8 0;
#X connect 6 1 10 0;
#X connect 6 2 7 0;
#X connect 7 0 13 0;
#X connect 8 0 13 0;
#X connect 9 0 2 0;
#X connect 10 0 13 0;
#X connect 12 0 9 0;
#X connect 12 0 13 1;
#X connect 13 0 11 0;
#X restore 48 83 pd test-chenillard;
#X obj 41 26 tgl 19 0 empty empty empty 0 -10 0 12 #fcfcfc #000000 #000000 0 1;
#X obj 50 176 outlet;
#X connect 0 0 2 0;
#X connect 1 0 0 0;
#X restore 679 420 pd debug;
#X obj 425 293 pack f f;
#X obj 396 193 nbx 5 17 0 12 0 0 empty empty Etalement 0 -10 0 12 #fcfcfc #000000 #000000 0 256;
#X obj 434 245 t b f;
#X obj 491 199 nbx 5 17 -1e+37 1e+37 0 0 empty empty Position\ LED 0 -10 0 12 #fcfcfc #000000 #000000 0 256;
#X obj 321 63 loadbang;
#X msg 389 122 2;
#X msg 447 132 4;
#X obj 607 55 hradio 19 1 0 12 empty empty Heure 0 -10 0 12 #9c00ff #000000 #000000 0;
#X obj 607 79 nbx 5 17 -1e+37 1e+37 0 0 empty empty empty 0 -10 0 12 #fcfcfc #000000 #000000 0 256;
#X obj 612 112 * 2;
#X msg 427 328 255 255 255 40 40 100 \$1 \$2;
#X obj 163 236 sel 0;
#X obj 169 297 bng 19 250 50 0 empty empty empty 0 -10 0 12 #fcfcfc #000000 #000000;
#X obj 638 175 i;
#X obj 960 91 vsl 19 162 0 1 0 0 empty empty Etalement\ [0:1] 0 -9 0 12 #e3c6ff #000000 #000000 0 1;
#X obj 950 286 * 12;
#X obj 949 319 i;
#X obj 954 391 nbx 5 17 -1e+37 1e+37 0 0 empty empty empty 0 -10 0 12 #fcfcfc #000000 #000000 0 256;
#X obj 995 261 nbx 5 17 -1e+37 1e+37 0 0 empty empty empty 0 -10 0 12 #fcfcfc #000000 #000000 0 256;
#X connect 2 0 4 0;
#X connect 3 0 5 0;
#X connect 4 0 1 0;
#X connect 5 0 4 1;
#X connect 6 0 7 0;
#X connect 7 0 9 0;
#X connect 8 0 2 0;
#X connect 8 0 27 0;
#X connect 9 0 10 0;
#X connect 10 0 8 0;
#X connect 11 0 12 0;
#X connect 12 0 6 0;
#X connect 13 0 11 0;
#X connect 14 0 13 0;
#X connect 15 0 1 0;
#X connect 16 0 26 0;
#X connect 17 0 16 0;
#X connect 18 0 16 0;
#X connect 18 1 16 1;
#X connect 19 0 18 0;
#X connect 20 0 17 0;
#X connect 20 0 21 0;
#X connect 20 0 22 0;
#X connect 21 0 17 0;
#X connect 22 0 19 0;
#X connect 23 0 24 0;
#X connect 24 0 25 0;
#X connect 25 0 29 1;
#X connect 26 0 2 1;
#X connect 27 0 28 0;
#X connect 28 0 29 0;
#X connect 29 0 19 0;
#X connect 30 0 31 0;
#X connect 30 0 34 0;
#X connect 31 0 32 0;
#X connect 32 0 33 0;
#X connect 32 0 17 0;
