#N canvas 93 131 1039 784 12;
#X obj 137 382 nbx 5 17 -1e+37 1e+37 0 0 empty empty empty 0 -10 0 12 #fcfcfc #000000 #000000 0 256;
#X obj 365 316 print START MSG;
#X obj 463 435 ==;
#X obj 314 123 nbx 5 17 -1e+37 1e+37 0 0 empty empty empty 0 -10 0 12 #fcfcfc #000000 #000000 0 256;
#X msg 385 254 \$1 1000;
#X obj 252 274 t a b;
#X msg 406 126 0;
#X msg 477 126 255;
#X obj 488 232 i;
#X obj 457 497 tgl 19 0 empty empty empty 0 -10 0 12 #fcfcfc #000000 #000000 0 1;
#X obj 369 179 t f f;
#X obj 428 378 bng 19 250 50 0 empty empty empty 0 -10 0 12 #fcfcfc #000000 #000000;
#X obj 509 498 sel 1;
#X obj 315 695 outlet;
#X msg 246 646 update;
#X obj 332 448 i;
#X obj 268 358 line 0 100;
#X msg 206 551 clear1;
#X obj 473 74 loadbang;
#X obj 753 275 i \$1;
#X obj 447 581 pack f f;
#X msg 412 649 pix1 \$2 \$1 \$1 \$1;
#X connect 0 0 15 0;
#X connect 2 0 9 0;
#X connect 2 0 12 0;
#X connect 4 0 5 0;
#X connect 5 0 16 0;
#X connect 5 1 1 0;
#X connect 5 1 17 0;
#X connect 6 0 10 0;
#X connect 7 0 10 0;
#X connect 8 0 2 1;
#X connect 10 0 4 0;
#X connect 10 1 8 0;
#X connect 12 0 14 0;
#X connect 14 0 13 0;
#X connect 15 0 20 0;
#X connect 16 0 2 0;
#X connect 16 0 11 0;
#X connect 16 0 15 0;
#X connect 17 0 13 0;
#X connect 18 0 19 0;
#X connect 19 0 20 1;
#X connect 20 0 21 0;
#X connect 21 0 13 0;
