#N canvas 380 507 1218 1047 12;
#X obj 628 420 mod 12;
#X obj 628 463 * 2;
#X obj 629 494 + 1;
#X text 601 627 couleur centrale;
#X text 296 690 couleur 1er côté;
#X obj 558 135 set-color-msg;
#X obj 768 135 set-color-msg;
#X obj 992 134 set-color-msg;
#X obj 100 832 bng 19 250 50 0 empty empty empty 0 -10 0 12 #fcfcfc #000000 #000000;
#X obj 58 118 t b f b;
#X obj 735 864 bng 19 250 50 0 empty empty empty 0 -10 0 12 #fcfcfc #000000 #000000;
#X obj 733 51 bng 19 250 50 0 empty empty empty 0 -10 0 12 #fcfcfc #000000 #000000;
#X obj 512 942 outlet;
#X obj 182 894 outlet;
#X text 751 912 clear screen;
#X text 146 858 update signal;
#X obj 354 228 i;
#X obj 311 392 * 2;
#X obj 267 438 - 1;
#X obj 299 555 mod 24;
#X obj 350 454 - 2;
#X obj 303 164 tgl 19 0 empty empty empty 0 -10 0 12 #fcfcfc #000000 #000000 0 1;
#X obj 263 167 tgl 19 0 empty empty empty 0 -10 0 12 #fcfcfc #000000 #000000 0 1;
#X obj 307 428 + 2;
#X obj 391 462 + 3;
#X obj 846 405 * 2;
#X obj 834 568 mod 24;
#X obj 377 166 tgl 19 0 empty empty empty 0 -10 0 12 #fcfcfc #000000 #000000 0 1;
#X obj 341 164 tgl 19 0 empty empty empty 0 -10 0 12 #fcfcfc #000000 #000000 0 1;
#X obj 802 451 - 3;
#X obj 885 467 - 4;
#X obj 842 441 + 4;
#X obj 926 475 + 5;
#X obj 269 59 > 0.25;
#X obj 327 63 > 0.5;
#X obj 390 73 > 0.75;
#X obj 457 64 > 0.9;
#X obj 265 506 spigot 0;
#X obj 396 502 spigot 0;
#X obj 800 519 spigot 0;
#X obj 931 515 spigot 0;
#X obj 61 -11 inlet;
#X obj 290 -16 inlet;
#X obj 57 40 i;
#X obj 295 10 t b f;
#X obj 558 104 config-query sun-color-center;
#X obj 773 100 config-query sun-color-off2;
#X obj 995 87 config-query sun-color-off1;
#X obj 693 935 outlet;
#X msg 287 719 \$1 40 40 40;
#X msg 821 684 \$1 20 20 20;
#X msg 598 596 \$1 250 243 243;
#X obj 730 14 r reload-config;
#X connect 0 0 1 0;
#X connect 1 0 2 0;
#X connect 1 0 51 0;
#X connect 2 0 51 0;
#X connect 5 0 51 0;
#X connect 6 0 50 0;
#X connect 7 0 49 0;
#X connect 8 0 13 0;
#X connect 9 0 10 0;
#X connect 9 1 16 0;
#X connect 9 2 8 0;
#X connect 10 0 48 0;
#X connect 11 0 45 0;
#X connect 11 0 46 0;
#X connect 11 0 47 0;
#X connect 16 0 0 0;
#X connect 16 0 17 0;
#X connect 16 0 25 0;
#X connect 17 0 18 0;
#X connect 17 0 20 0;
#X connect 17 0 23 0;
#X connect 17 0 24 0;
#X connect 18 0 37 0;
#X connect 19 0 49 0;
#X connect 20 0 38 0;
#X connect 21 0 38 1;
#X connect 22 0 37 1;
#X connect 23 0 37 0;
#X connect 24 0 38 0;
#X connect 25 0 29 0;
#X connect 25 0 30 0;
#X connect 25 0 31 0;
#X connect 25 0 32 0;
#X connect 26 0 50 0;
#X connect 27 0 40 1;
#X connect 28 0 39 1;
#X connect 29 0 39 0;
#X connect 30 0 40 0;
#X connect 31 0 39 0;
#X connect 32 0 40 0;
#X connect 33 0 22 0;
#X connect 34 0 21 0;
#X connect 35 0 28 0;
#X connect 36 0 27 0;
#X connect 37 0 19 0;
#X connect 38 0 19 0;
#X connect 39 0 26 0;
#X connect 40 0 26 0;
#X connect 41 0 43 0;
#X connect 42 0 44 0;
#X connect 43 0 9 0;
#X connect 44 0 43 0;
#X connect 44 1 33 0;
#X connect 44 1 34 0;
#X connect 44 1 35 0;
#X connect 44 1 36 0;
#X connect 45 0 5 0;
#X connect 46 0 6 0;
#X connect 47 0 7 0;
#X connect 49 0 12 0;
#X connect 50 0 12 0;
#X connect 51 0 12 0;
#X connect 52 0 11 0;
